<svg xmlns="http://www.w3.org/2000/svg" width="2000" height="2000" viewBox="0 0 5291.667 5291.667"><g aria-label="chooslr" style="line-height:1.25;-inkscape-font-specification:'Century Gothic, Bold';font-variant-ligatures:normal;font-variant-caps:normal;font-variant-numeric:normal;font-feature-settings:normal;text-align:center" transform="translate(0 4691.667)" font-weight="700" font-size="84.667" font-family="Century Gothic" letter-spacing="0" word-spacing="0" text-anchor="middle" stroke-width="9.452"><path fill="#f0f0f0" d="M0-4691.667h5291.667V600H0z"/><path d="M-770.94-583.9a209.329 209.329 0 0 1-209.327 209.33 209.329 209.329 0 0 1-209.33-209.33 209.329 209.329 0 0 1 209.329-209.329 209.329 209.329 0 0 1 209.329 209.33z" opacity=".97" fill="none" stroke="#c20000" stroke-width="1.396" stroke-linecap="round" stroke-linejoin="round" stroke-opacity=".905"/><path d="M-2326.27-126.129l-8.36 4.605q-2.358-2.468-4.678-3.426-2.284-.958-5.378-.958-5.636 0-9.135 3.39-3.462 3.351-3.462 8.618 0 5.12 3.352 8.361 3.352 3.242 8.803 3.242 6.74 0 10.497-4.605l7.92 5.415q-6.446 8.361-18.196 8.361-10.571 0-16.575-6.262-5.967-6.261-5.967-14.66 0-5.819 2.91-10.718t8.103-7.698q5.23-2.8 11.676-2.8 5.967 0 10.719 2.395 4.751 2.357 7.772 6.74zm46.175-22.541h9.981v19.521q2.947-2.541 5.93-3.794 2.984-1.289 6.041-1.289 5.967 0 10.056 4.125 3.499 3.573 3.499 10.498v26.483h-9.908v-17.57q0-6.96-.663-9.429-.663-2.468-2.284-3.683-1.584-1.216-3.941-1.216-3.057 0-5.267 2.026-2.173 2.026-3.02 5.525-.443 1.805-.443 8.25v16.097h-9.981z" style="-inkscape-font-specification:'Century Gothic, Bold';font-variant-ligatures:normal;font-variant-caps:normal;font-variant-numeric:normal;font-feature-settings:normal;text-align:center" fill="#c8c8c8"/><path d="M-2086.783 230.388q3.977 0 7.464 1.99 3.513 1.988 5.476 5.397 1.962 3.41 1.962 7.361 0 3.978-1.988 7.439-1.963 3.46-5.373 5.424-3.409 1.937-7.516 1.937-6.043 0-10.33-4.288-4.262-4.313-4.262-10.46 0-6.586 4.83-10.977 4.235-3.823 9.737-3.823zm.103 6.638q-3.28 0-5.476 2.299-2.17 2.273-2.17 5.837 0 3.668 2.145 5.94 2.169 2.274 5.475 2.274 3.306 0 5.501-2.3 2.196-2.298 2.196-5.914 0-3.616-2.17-5.863-2.143-2.273-5.501-2.273z" style="-inkscape-font-specification:'Century Gothic, Bold';font-variant-ligatures:normal;font-variant-caps:normal;font-variant-numeric:normal;font-feature-settings:normal;text-align:center" fill="#264488"/><path d="M-2088.96 75.248q3.977 0 7.464 1.99 3.513 1.988 5.476 5.398 1.963 3.41 1.963 7.362 0 3.977-1.989 7.439-1.963 3.46-5.372 5.424-3.41 1.937-7.517 1.937-6.044 0-10.332-4.288-4.262-4.313-4.262-10.46 0-6.588 4.83-10.979 4.236-3.823 9.738-3.823zm.102 6.639q-3.28 0-5.476 2.299-2.17 2.273-2.17 5.837 0 3.668 2.145 5.941 2.17 2.273 5.476 2.273t5.502-2.299q2.195-2.298 2.195-5.915 0-3.616-2.17-5.863-2.144-2.273-5.502-2.273z" style="-inkscape-font-specification:'Century Gothic, Bold';font-variant-ligatures:normal;font-variant-caps:normal;font-variant-numeric:normal;font-feature-settings:normal;text-align:center" opacity=".97" fill="#f4c100"/><path d="M-2170.715-128.633l-6.225 6.225q-3.794-3.757-6.888-3.757-1.694 0-2.652.736-.958.7-.958 1.768 0 .81.59 1.51.626.663 3.02 1.842l3.683 1.842q5.82 2.873 7.993 5.856 2.173 2.984 2.173 6.999 0 5.34-3.94 8.913-3.905 3.573-10.498 3.573-8.767 0-13.997-6.85l6.188-6.741q1.768 2.062 4.125 3.351 2.394 1.253 4.236 1.253 1.99 0 3.205-.958t1.215-2.21q0-2.32-4.383-4.53l-3.389-1.695q-9.724-4.899-9.724-12.265 0-4.752 3.647-8.104 3.683-3.388 9.392-3.388 3.905 0 7.33 1.731 3.462 1.694 5.857 4.899zm46.91-20.037h10.056v55.544h-10.056zm56.23 15.47h8.619v5.046q1.4-2.984 3.72-4.53 2.32-1.548 5.083-1.548 1.952 0 4.088 1.031l-3.13 8.656q-1.768-.884-2.91-.884-2.32 0-3.941 2.873-1.584 2.873-1.584 11.271l.037 1.952v16.207h-9.982z" style="-inkscape-font-specification:'Century Gothic, Bold';font-variant-ligatures:normal;font-variant-caps:normal;font-variant-numeric:normal;font-feature-settings:normal;text-align:center" fill="#c8c8c8"/><ellipse cx="2835.147" cy="763.614" rx="146.149" ry="146.634" transform="rotate(-35.741)" opacity=".97" fill="none" stroke="#264488" stroke-width="78.383" stroke-linecap="round" stroke-linejoin="round"/><ellipse style="line-height:1.25;-inkscape-font-specification:'Century Gothic, Bold';font-variant-ligatures:normal;font-variant-caps:normal;font-variant-numeric:normal;font-feature-settings:normal;text-align:center" cx="4190.004" cy="-1246.778" rx="146.149" ry="146.634" transform="rotate(-35.741)" opacity=".97" fill="none" stroke="#f4c100" stroke-width="78.383" stroke-linecap="round" stroke-linejoin="round"/><path style="line-height:1.25;-inkscape-font-specification:'Century Gothic, Bold';font-variant-ligatures:normal;font-variant-caps:normal;font-variant-numeric:normal;font-feature-settings:normal;text-align:center" d="M-1147.639-141.942A209.329 209.329 0 0 1-938.31-351.27a209.329 209.329 0 0 1 209.329 209.33 209.329 209.329 0 0 1-209.33 209.328 209.329 209.329 0 0 1-209.328-209.329z" opacity=".97" fill="none" stroke="#c20000" stroke-width="1.396" stroke-linecap="round" stroke-linejoin="round" stroke-opacity=".905"/><path d="M2502.818-3058.18q21.081 0 39.56 10.54 18.617 10.54 29.02 28.61 10.404 18.069 10.404 39.013 0 21.08-10.54 39.423-10.404 18.343-28.473 28.746-18.069 10.266-39.834 10.266-32.031 0-54.754-22.723-22.587-22.86-22.587-55.439 0-34.906 25.598-58.176 22.45-20.26 51.606-20.26zm.548 35.18q-17.385 0-29.02 12.183-11.498 12.046-11.498 30.936 0 19.438 11.361 31.484 11.499 12.046 29.02 12.046 17.522 0 29.157-12.183 11.635-12.182 11.635-31.347 0-19.164-11.498-31.073-11.362-12.046-29.157-12.046z" style="line-height:1.25;-inkscape-font-specification:'Century Gothic, Bold';font-variant-ligatures:normal;font-variant-caps:normal;font-variant-numeric:normal;font-feature-settings:normal;text-align:center" opacity=".97" fill="#f4c100"/><circle cx="2159.032" cy="-1499.959" r="68.832" fill="#264488"/><circle style="line-height:1.25;-inkscape-font-specification:'Century Gothic, Bold';font-variant-ligatures:normal;font-variant-caps:normal;font-variant-numeric:normal;font-feature-settings:normal;text-align:center" cx="2570.556" cy="-1766.339" r="68.832" fill="#f4c100"/><circle style="line-height:1.25;-inkscape-font-specification:'Century Gothic, Bold';font-variant-ligatures:normal;font-variant-caps:normal;font-variant-numeric:normal;font-feature-settings:normal;text-align:center" cx="2498.128" cy="-2638.344" r="68.832" fill="#264488" stroke="#f4c100" stroke-width="35.278" stroke-linecap="square" stroke-linejoin="round"/><circle style="line-height:1.25;-inkscape-font-specification:'Century Gothic, Bold';font-variant-ligatures:normal;font-variant-caps:normal;font-variant-numeric:normal;font-feature-settings:normal;text-align:center" cx="2978.108" cy="-534.861" r="68.832" fill="#f4c100" stroke="#264488" stroke-width="35.278" stroke-linecap="square" stroke-linejoin="round"/><circle style="line-height:1.25;-inkscape-font-specification:'Century Gothic, Bold';font-variant-ligatures:normal;font-variant-caps:normal;font-variant-numeric:normal;font-feature-settings:normal;text-align:center" cx="-2097.926" cy="218.037" r="4.658" fill="#264488"/><circle style="line-height:1.25;-inkscape-font-specification:'Century Gothic, Bold';font-variant-ligatures:normal;font-variant-caps:normal;font-variant-numeric:normal;font-feature-settings:normal;text-align:center" cx="2972.388" cy="-1351.181" r="41.078" fill="#264488"/><circle style="line-height:1.25;-inkscape-font-specification:'Century Gothic, Bold';font-variant-ligatures:normal;font-variant-caps:normal;font-variant-numeric:normal;font-feature-settings:normal;text-align:center" cx="2939.979" cy="-1918.117" r="41.078" fill="#264488"/><circle style="line-height:1.25;-inkscape-font-specification:'Century Gothic, Bold';font-variant-ligatures:normal;font-variant-caps:normal;font-variant-numeric:normal;font-feature-settings:normal;text-align:center" cx="2973.581" cy="-1595.854" r="19.492" fill="#264488"/><circle style="line-height:1.25;-inkscape-font-specification:'Century Gothic, Bold';font-variant-ligatures:normal;font-variant-caps:normal;font-variant-numeric:normal;font-feature-settings:normal;text-align:center" cx="-2120.554" cy="219.542" r="2.21" fill="#264488"/><circle style="line-height:1.25;-inkscape-font-specification:'Century Gothic, Bold';font-variant-ligatures:normal;font-variant-caps:normal;font-variant-numeric:normal;font-feature-settings:normal;text-align:center" cx="2029.127" cy="-435.862" r="4.658" transform="rotate(-171.47)" fill="#f4c100"/><circle style="line-height:1.25;-inkscape-font-specification:'Century Gothic, Bold';font-variant-ligatures:normal;font-variant-caps:normal;font-variant-numeric:normal;font-feature-settings:normal;text-align:center" cx="2030.893" cy="-417.424" transform="rotate(-171.47)" r="2.68" fill="#f4c100"/><circle style="line-height:1.25;-inkscape-font-specification:'Century Gothic, Bold';font-variant-ligatures:normal;font-variant-caps:normal;font-variant-numeric:normal;font-feature-settings:normal;text-align:center" cx="2016.702" cy="-446.69" r="2.21" transform="rotate(-171.47)" fill="#f4c100"/><circle style="line-height:1.25;-inkscape-font-specification:'Century Gothic, Bold';font-variant-ligatures:normal;font-variant-caps:normal;font-variant-numeric:normal;font-feature-settings:normal;text-align:center" cx="-2119.263" cy="2558.886" r="19.492" transform="rotate(-171.47)" fill="#f4c100"/><path style="line-height:1.25;-inkscape-font-specification:'Century Gothic, Bold';font-variant-ligatures:normal;font-variant-caps:normal;font-variant-numeric:normal;font-feature-settings:normal;text-align:center" fill="#f0f0f0" d="M-1654.338 138.518h600v600h-600z"/><path d="M-1473.85 425.903l-8.362 4.604q-2.357-2.467-4.677-3.425-2.284-.958-5.378-.958-5.636 0-9.135 3.389-3.462 3.352-3.462 8.619 0 5.12 3.352 8.361 3.352 3.241 8.803 3.241 6.74 0 10.498-4.604l7.919 5.415q-6.446 8.36-18.196 8.36-10.571 0-16.575-6.26-5.967-6.262-5.967-14.66 0-5.82 2.91-10.719 2.91-4.899 8.103-7.698 5.23-2.8 11.676-2.8 5.967 0 10.719 2.395 4.751 2.357 7.772 6.74zm46.174-22.542h9.981v19.522q2.947-2.542 5.93-3.794 2.984-1.29 6.041-1.29 5.967 0 10.056 4.126 3.499 3.573 3.499 10.498v26.483h-9.908v-17.57q0-6.961-.663-9.429t-2.284-3.683q-1.584-1.216-3.941-1.216-3.057 0-5.267 2.026-2.173 2.026-3.02 5.525-.443 1.805-.443 8.25v16.097h-9.981z" style="line-height:1.25;-inkscape-font-specification:'Century Gothic, Bold';font-variant-ligatures:normal;font-variant-caps:normal;font-variant-numeric:normal;font-feature-settings:normal;text-align:center" fill="#c8c8c8"/><path d="M-1557.29 585.634q3.977 0 7.464 1.989 3.512 1.988 5.475 5.398 1.963 3.41 1.963 7.36 0 3.978-1.989 7.44-1.963 3.46-5.372 5.423-3.41 1.937-7.516 1.937-6.044 0-10.331-4.287-4.262-4.313-4.262-10.46 0-6.587 4.83-10.978 4.236-3.822 9.737-3.822zm.103 6.638q-3.28 0-5.476 2.298-2.17 2.273-2.17 5.838 0 3.667 2.144 5.94 2.17 2.273 5.476 2.273t5.501-2.299q2.196-2.298 2.196-5.914 0-3.616-2.17-5.863-2.144-2.273-5.501-2.273z" style="line-height:1.25;-inkscape-font-specification:'Century Gothic, Bold';font-variant-ligatures:normal;font-variant-caps:normal;font-variant-numeric:normal;font-feature-settings:normal;text-align:center" fill="#264488"/><path d="M-1132.346 264.419q3.978 0 7.465 1.989 3.513 1.989 5.476 5.398 1.963 3.41 1.963 7.362 0 3.978-1.989 7.439-1.963 3.461-5.373 5.424-3.41 1.938-7.516 1.938-6.044 0-10.332-4.288-4.262-4.314-4.262-10.461 0-6.587 4.83-10.978 4.236-3.823 9.738-3.823zm.103 6.638q-3.28 0-5.476 2.299-2.17 2.273-2.17 5.838 0 3.668 2.145 5.94 2.17 2.274 5.476 2.274t5.502-2.3q2.195-2.298 2.195-5.914 0-3.617-2.17-5.864-2.143-2.273-5.501-2.273z" style="line-height:1.25;-inkscape-font-specification:'Century Gothic, Bold';font-variant-ligatures:normal;font-variant-caps:normal;font-variant-numeric:normal;font-feature-settings:normal;text-align:center" opacity=".97" fill="#f4c100"/><path d="M-1318.296 423.399l-6.225 6.224q-3.794-3.757-6.888-3.757-1.694 0-2.652.737-.958.7-.958 1.768 0 .81.59 1.51.626.663 3.02 1.842l3.683 1.842q5.82 2.873 7.993 5.856 2.173 2.984 2.173 6.998 0 5.341-3.94 8.914-3.905 3.573-10.498 3.573-8.767 0-13.997-6.851l6.188-6.74q1.768 2.062 4.125 3.351 2.395 1.253 4.236 1.253 1.99 0 3.205-.958t1.215-2.21q0-2.32-4.383-4.53l-3.389-1.695q-9.724-4.899-9.724-12.265 0-4.752 3.647-8.104 3.683-3.388 9.392-3.388 3.905 0 7.33 1.73 3.463 1.695 5.857 4.9zm46.91-20.038h10.056v55.545h-10.056zm56.23 15.47h8.619v5.046q1.4-2.983 3.72-4.53 2.32-1.547 5.083-1.547 1.952 0 4.089 1.031l-3.131 8.656q-1.768-.884-2.91-.884-2.32 0-3.941 2.873-1.584 2.873-1.584 11.271l.037 1.952v16.207h-9.982z" style="line-height:1.25;-inkscape-font-specification:'Century Gothic, Bold';font-variant-ligatures:normal;font-variant-caps:normal;font-variant-numeric:normal;font-feature-settings:normal;text-align:center" fill="#c8c8c8"/><ellipse style="line-height:1.25;-inkscape-font-specification:'Century Gothic, Bold';font-variant-ligatures:normal;font-variant-caps:normal;font-variant-numeric:normal;font-feature-settings:normal;text-align:center" cx="-1591.006" cy="-381.744" rx="16.571" ry="16.626" transform="rotate(-35.741)" opacity=".97" fill="none" stroke="#264488" stroke-width="8.888" stroke-linecap="round" stroke-linejoin="round"/><ellipse style="line-height:1.25;-inkscape-font-specification:'Century Gothic, Bold';font-variant-ligatures:normal;font-variant-caps:normal;font-variant-numeric:normal;font-feature-settings:normal;text-align:center" cx="-1111.92" cy="-463.35" rx="16.571" ry="16.626" transform="rotate(-35.741)" opacity=".97" fill="none" stroke="#f4c100" stroke-width="8.888" stroke-linecap="round" stroke-linejoin="round"/><path d="M-1119.59 300.59q2.39 0 4.486 1.196 2.11 1.195 3.29 3.244 1.18 2.048 1.18 4.423 0 2.39-1.195 4.47-1.18 2.08-3.229 3.26-2.048 1.164-4.516 1.164-3.632 0-6.209-2.577-2.56-2.592-2.56-6.286 0-3.958 2.902-6.596 2.545-2.297 5.851-2.297zm.062 3.99q-1.97 0-3.29 1.38-1.304 1.367-1.304 3.509 0 2.204 1.288 3.57 1.304 1.365 3.29 1.365 1.987 0 3.307-1.381 1.319-1.381 1.319-3.554t-1.304-3.524q-1.288-1.365-3.306-1.365z" style="line-height:1.25;-inkscape-font-specification:'Century Gothic, Bold';font-variant-ligatures:normal;font-variant-caps:normal;font-variant-numeric:normal;font-feature-settings:normal;text-align:center" opacity=".97" fill="#f4c100"/><circle style="line-height:1.25;-inkscape-font-specification:'Century Gothic, Bold';font-variant-ligatures:normal;font-variant-caps:normal;font-variant-numeric:normal;font-feature-settings:normal;text-align:center" cx="-1146.249" cy="311.663" r="7.805" fill="#f4c100"/><circle style="line-height:1.25;-inkscape-font-specification:'Century Gothic, Bold';font-variant-ligatures:normal;font-variant-caps:normal;font-variant-numeric:normal;font-feature-settings:normal;text-align:center" cx="-1115.177" cy="336.327" r="7.805" fill="#264488" stroke="#f4c100" stroke-width="4" stroke-linecap="square" stroke-linejoin="round"/><circle style="line-height:1.25;-inkscape-font-specification:'Century Gothic, Bold';font-variant-ligatures:normal;font-variant-caps:normal;font-variant-numeric:normal;font-feature-settings:normal;text-align:center" cx="-1560.934" cy="564.486" r="7.805" fill="#f4c100" stroke="#264488" stroke-width="4" stroke-linecap="square" stroke-linejoin="round"/><circle style="line-height:1.25;-inkscape-font-specification:'Century Gothic, Bold';font-variant-ligatures:normal;font-variant-caps:normal;font-variant-numeric:normal;font-feature-settings:normal;text-align:center" cx="-1563.298" cy="546.49" r="4.658" fill="#264488"/><circle style="line-height:1.25;-inkscape-font-specification:'Century Gothic, Bold';font-variant-ligatures:normal;font-variant-caps:normal;font-variant-numeric:normal;font-feature-settings:normal;text-align:center" cx="-1580.212" cy="535.022" r="4.658" fill="#264488"/><circle style="line-height:1.25;-inkscape-font-specification:'Century Gothic, Bold';font-variant-ligatures:normal;font-variant-caps:normal;font-variant-numeric:normal;font-feature-settings:normal;text-align:center" cx="-1578.114" cy="515.441" r="4.658" fill="#264488"/><circle style="line-height:1.25;-inkscape-font-specification:'Century Gothic, Bold';font-variant-ligatures:normal;font-variant-caps:normal;font-variant-numeric:normal;font-feature-settings:normal;text-align:center" cx="-1562.301" cy="524.411" r="2.21" fill="#264488"/><circle style="line-height:1.25;-inkscape-font-specification:'Century Gothic, Bold';font-variant-ligatures:normal;font-variant-caps:normal;font-variant-numeric:normal;font-feature-settings:normal;text-align:center" cx="-1573.289" cy="579.633" r="2.21" fill="#264488"/><circle style="line-height:1.25;-inkscape-font-specification:'Century Gothic, Bold';font-variant-ligatures:normal;font-variant-caps:normal;font-variant-numeric:normal;font-feature-settings:normal;text-align:center" cx="1046.966" cy="-514.838" r="4.658" transform="rotate(-171.47)" fill="#f4c100"/><circle style="line-height:1.25;-inkscape-font-specification:'Century Gothic, Bold';font-variant-ligatures:normal;font-variant-caps:normal;font-variant-numeric:normal;font-feature-settings:normal;text-align:center" cx="1035.421" cy="-516.524" r="2.68" transform="rotate(-171.47)" fill="#f4c100"/><circle style="line-height:1.25;-inkscape-font-specification:'Century Gothic, Bold';font-variant-ligatures:normal;font-variant-caps:normal;font-variant-numeric:normal;font-feature-settings:normal;text-align:center" cx="1038.587" cy="-526.979" r="2.21" transform="rotate(-171.47)" fill="#f4c100"/><circle style="line-height:1.25;-inkscape-font-specification:'Century Gothic, Bold';font-variant-ligatures:normal;font-variant-caps:normal;font-variant-numeric:normal;font-feature-settings:normal;text-align:center" cx="1042.433" cy="-538.239" r="2.21" transform="rotate(-171.47)" fill="#f4c100"/><circle style="line-height:1.25;-inkscape-font-specification:'Century Gothic, Bold';font-variant-ligatures:normal;font-variant-caps:normal;font-variant-numeric:normal;font-feature-settings:normal;text-align:center" cx="-2109.005" cy="256.699" r="2.21" fill="#264488"/><path style="line-height:1.25;-inkscape-font-specification:'Century Gothic, Bold';font-variant-ligatures:normal;font-variant-caps:normal;font-variant-numeric:normal;font-feature-settings:normal;text-align:center" fill="#f0f0f0" d="M-5744.557-6789.264H-452.89v5291.667h-5291.667z"/><ellipse style="line-height:1.25;-inkscape-font-specification:'Century Gothic, Bold';font-variant-ligatures:normal;font-variant-caps:normal;font-variant-numeric:normal;font-feature-settings:normal;text-align:center" cx="-602.249" cy="-4294.465" rx="146.149" ry="146.634" transform="rotate(-35.741)" opacity=".97" fill="none" stroke="#264488" stroke-width="78.383" stroke-linecap="round" stroke-linejoin="round"/><ellipse style="line-height:1.25;-inkscape-font-specification:'Century Gothic, Bold';font-variant-ligatures:normal;font-variant-caps:normal;font-variant-numeric:normal;font-feature-settings:normal;text-align:center" cx="752.608" cy="-6304.857" rx="146.149" ry="146.634" transform="rotate(-35.741)" opacity=".97" fill="none" stroke="#f4c100" stroke-width="78.383" stroke-linecap="round" stroke-linejoin="round"/><path d="M-3241.738-5155.778q21.08 0 39.56 10.54 18.616 10.54 29.02 28.61 10.403 18.069 10.403 39.013 0 21.08-10.54 39.423-10.404 18.343-28.473 28.746-18.069 10.267-39.834 10.267-32.031 0-54.754-22.724-22.587-22.86-22.587-55.439 0-34.906 25.598-58.176 22.45-20.26 51.606-20.26zm.547 35.18q-17.385 0-29.02 12.183-11.498 12.046-11.498 30.936 0 19.438 11.361 31.484 11.499 12.046 29.02 12.046 17.522 0 29.157-12.183 11.635-12.182 11.635-31.347 0-19.164-11.498-31.073-11.362-12.046-29.157-12.046z" style="line-height:1.25;-inkscape-font-specification:'Century Gothic, Bold';font-variant-ligatures:normal;font-variant-caps:normal;font-variant-numeric:normal;font-feature-settings:normal;text-align:center" opacity=".97" fill="#f4c100"/><circle style="line-height:1.25;-inkscape-font-specification:'Century Gothic, Bold';font-variant-ligatures:normal;font-variant-caps:normal;font-variant-numeric:normal;font-feature-settings:normal;text-align:center" cx="-3585.525" cy="-3597.557" r="68.832" fill="#264488"/><circle style="line-height:1.25;-inkscape-font-specification:'Century Gothic, Bold';font-variant-ligatures:normal;font-variant-caps:normal;font-variant-numeric:normal;font-feature-settings:normal;text-align:center" cx="-3174.001" cy="-3863.936" r="68.832" fill="#f4c100"/><circle style="line-height:1.25;-inkscape-font-specification:'Century Gothic, Bold';font-variant-ligatures:normal;font-variant-caps:normal;font-variant-numeric:normal;font-feature-settings:normal;text-align:center" cx="-3246.429" cy="-4735.942" r="68.832" fill="#264488" stroke="#f4c100" stroke-width="35.278" stroke-linecap="square" stroke-linejoin="round"/><circle style="line-height:1.25;-inkscape-font-specification:'Century Gothic, Bold';font-variant-ligatures:normal;font-variant-caps:normal;font-variant-numeric:normal;font-feature-settings:normal;text-align:center" cx="-2766.449" cy="-2632.459" r="68.832" fill="#f4c100" stroke="#264488" stroke-width="35.278" stroke-linecap="square" stroke-linejoin="round"/><circle style="line-height:1.25;-inkscape-font-specification:'Century Gothic, Bold';font-variant-ligatures:normal;font-variant-caps:normal;font-variant-numeric:normal;font-feature-settings:normal;text-align:center" cx="-2772.169" cy="-3448.78" r="41.078" fill="#264488"/><circle style="line-height:1.25;-inkscape-font-specification:'Century Gothic, Bold';font-variant-ligatures:normal;font-variant-caps:normal;font-variant-numeric:normal;font-feature-settings:normal;text-align:center" cx="-2804.578" cy="-4015.715" r="41.078" fill="#264488"/><circle style="line-height:1.25;-inkscape-font-specification:'Century Gothic, Bold';font-variant-ligatures:normal;font-variant-caps:normal;font-variant-numeric:normal;font-feature-settings:normal;text-align:center" cx="-2770.976" cy="-3693.452" r="19.492" fill="#264488"/><circle style="line-height:1.25;-inkscape-font-specification:'Century Gothic, Bold';font-variant-ligatures:normal;font-variant-caps:normal;font-variant-numeric:normal;font-feature-settings:normal;text-align:center" cx="3872.881" cy="3781.202" r="19.492" transform="rotate(-171.47)" fill="#f4c100"/></g><text style="line-height:1.25;-inkscape-font-specification:'Century Gothic, Bold';font-variant-ligatures:normal;font-variant-caps:normal;font-variant-numeric:normal;font-feature-settings:normal;text-align:center" x="-899.848" y="3976.508" font-weight="700" font-size="84.667" font-family="Century Gothic" letter-spacing="0" word-spacing="0" text-anchor="middle" fill="#00c900" stroke-width="9.452"><tspan x="-899.848" y="3976.508" style="-inkscape-font-specification:'Century Gothic, Bold';font-variant-ligatures:normal;font-variant-caps:normal;font-variant-numeric:normal;font-feature-settings:normal;text-align:center">chooslr</tspan></text></svg>