<?xml version="1.0" standalone="no"?><!-- Generator: Gravit.io --><svg xmlns="http://www.w3.org/2000/svg" xmlns:xlink="http://www.w3.org/1999/xlink" style="isolation:isolate" viewBox="0 0 1000 1000" width="1000" height="1000"><defs><clipPath id="_clipPath_Tzgbo9iha14LQWl0bcwWCf9A3WVnxYFt"><rect width="1000" height="1000"/></clipPath></defs><g clip-path="url(#_clipPath_Tzgbo9iha14LQWl0bcwWCf9A3WVnxYFt)"><path d=" M 716.666 261.243 L 717.73 265.198 C 718.491 268.021 718.726 329.573 718.551 480.092 L 718.304 691.03 L 715.265 686.188 C 709.509 677.023 707.148 672.465 702.847 662.2 C 695.042 643.569 687.386 616.965 682.885 592.834 C 667.427 509.976 669.53 407.016 688.23 331.196 C 694.038 307.648 707.856 272.511 714.801 263.627 L 716.666 261.243 Z " fill="rgb(0,0,0)"/><path d=" M 724.637 205.336 C 669.143 205.34 595.473 205.388 497.506 205.451 L 102.598 205.707 L 96.762 208.621 C 89.175 212.41 81.311 220.248 77.992 227.33 L 75.363 232.941 L 75.113 480.676 C 74.864 727.371 74.87 728.431 76.832 733.674 C 81.038 744.916 88.503 752.622 99.467 757.039 C 103.959 758.849 106.978 759.127 125.699 759.449 C 144.624 759.775 146.859 759.982 146.895 761.432 C 146.917 762.323 147.027 768.106 147.139 774.283 C 147.364 786.758 148.309 789.316 153.961 792.762 C 156.872 794.536 159.06 794.656 188.363 794.66 L 219.658 794.664 L 222.686 792.117 C 227.85 787.771 228.561 785.32 228.561 771.855 L 228.561 759.648 L 499.939 759.648 L 771.316 759.648 L 771.316 771.846 C 771.316 782.019 771.631 784.659 773.213 787.76 C 776.707 794.608 777.731 794.778 813.596 794.459 L 845.205 794.178 L 848.207 791.174 C 851.939 787.441 853.08 782.889 852.941 772.293 C 852.882 767.746 852.876 763.071 852.928 761.904 C 853.021 759.806 853.24 759.78 874.178 759.4 C 886.956 759.169 896.749 758.554 898.908 757.848 C 909.001 754.547 919.518 744.167 923.102 733.971 C 924.965 728.669 925 724.041 925 482.434 C 925 241.263 924.962 236.188 923.111 230.924 C 919.115 219.553 909.888 210.545 898.738 207.131 C 894.033 205.69 891.119 205.323 724.637 205.336 Z  M 404.799 261.625 C 540.314 261.622 653.95 261.623 657.324 261.627 L 663.459 261.635 L 660.904 265.77 C 658.082 270.338 650.239 286.08 647.479 292.717 C 633.445 326.458 623.029 379.304 619.496 434.701 C 618.204 454.969 618.825 514 620.52 532.041 C 627.689 608.358 645.607 667.95 670.275 697.52 L 674.029 702.02 L 671 702.627 C 669.333 702.96 638.261 703.232 601.949 703.232 C 444.038 536.185 385.527 703.441 210.322 703.148 C 182.637 703.102 158.892 702.731 157.555 702.322 C 149.48 699.857 142.968 694.391 138.936 686.695 L 136.643 682.318 L 136.391 484.416 C 136.168 309.94 136.311 285.912 137.611 281.439 C 139.546 274.785 146.959 266.558 153.586 263.707 L 158.408 261.631 L 404.799 261.625 L 404.799 261.625 Z  M 821.961 420.234 C 851.97 420.234 876.298 444.561 876.299 474.57 C 876.299 488.982 870.574 502.803 860.384 512.993 C 850.193 523.183 836.372 528.908 821.961 528.908 C 807.55 528.908 793.728 523.183 783.538 512.993 C 773.348 502.803 767.623 488.982 767.623 474.57 C 767.624 444.561 791.952 420.234 821.961 420.234 L 821.961 420.234 Z " fill="rgb(159,185,185)"/><path d=" M 859.085 474.572 C 859.085 495.075 842.464 511.697 821.96 511.697 C 801.457 511.697 784.835 495.075 784.835 474.572 C 784.835 454.068 801.457 437.447 821.96 437.447 C 842.464 437.447 859.085 454.068 859.085 474.572 Z " fill="rgb(159,185,185)"/><path d=" M 701.032 -126.964 Q 705.601 -128.21 712.246 -129.317 Q 719.029 -130.425 726.92 -130.425 Q 734.672 -130.425 739.795 -128.21 Q 744.917 -126.133 747.824 -122.118 Q 750.87 -118.242 752.115 -112.705 Q 753.361 -107.306 753.361 -100.661 L 753.361 -63.975 L 736.334 -63.975 L 736.334 -98.446 Q 736.334 -107.583 734.257 -111.597 Q 732.181 -115.612 725.812 -115.612 Q 723.874 -115.612 721.936 -115.473 Q 720.136 -115.335 718.06 -115.058 L 718.06 -63.975 L 701.032 -63.975 L 701.032 -126.964 Z  M 662.408 -147.729 Q 662.408 -142.746 659.224 -139.838 Q 656.04 -136.931 651.61 -136.931 Q 647.18 -136.931 643.996 -139.838 Q 640.95 -142.746 640.95 -147.729 Q 640.95 -152.852 643.996 -155.759 Q 647.18 -158.666 651.61 -158.666 Q 656.04 -158.666 659.224 -155.759 Q 662.408 -152.852 662.408 -147.729 Z  M 687.742 -66.744 Q 682.482 -64.252 677.775 -63.421 Q 673.206 -62.452 669.33 -62.452 Q 662.685 -62.452 658.117 -64.39 Q 653.687 -66.328 650.918 -69.928 Q 648.288 -73.665 647.18 -78.926 Q 646.073 -84.187 646.073 -90.97 L 646.073 -114.92 L 628.076 -114.92 L 628.076 -129.04 L 663.1 -129.04 L 663.1 -88.755 Q 663.1 -82.941 665.177 -80.034 Q 667.392 -77.265 672.376 -77.265 Q 674.729 -77.265 678.052 -77.819 Q 681.374 -78.511 685.527 -80.449 L 687.742 -66.744 Z  M 562.595 -63.975 L 562.595 -157.143 L 579.623 -160.05 L 579.623 -128.487 Q 581.699 -129.179 584.606 -129.733 Q 587.514 -130.425 589.729 -130.425 Q 596.927 -130.425 601.773 -128.21 Q 606.618 -126.133 609.525 -122.118 Q 612.432 -118.242 613.678 -112.705 Q 614.924 -107.306 614.924 -100.661 L 614.924 -63.975 L 597.896 -63.975 L 597.896 -98.446 Q 597.896 -107.583 595.82 -111.597 Q 593.743 -115.612 587.929 -115.612 Q 585.575 -115.612 583.222 -115.058 Q 581.007 -114.504 579.623 -114.089 L 579.623 -63.975 L 562.595 -63.975 Z  M 490.746 -96.508 Q 490.746 -103.568 492.961 -109.798 Q 495.176 -116.027 499.744 -120.596 Q 504.313 -125.303 511.235 -127.933 Q 518.295 -130.702 527.986 -130.702 Q 533.8 -130.702 538.507 -129.871 Q 543.214 -129.04 548.059 -127.102 L 544.321 -113.397 Q 541.552 -114.366 538.091 -115.058 Q 534.769 -115.889 529.508 -115.889 Q 523.417 -115.889 519.264 -114.366 Q 515.249 -112.982 512.757 -110.351 Q 510.266 -107.859 509.158 -104.26 Q 508.051 -100.661 508.051 -96.508 Q 508.051 -87.509 513.034 -82.387 Q 518.156 -77.265 530.339 -77.265 Q 534.354 -77.265 538.645 -77.819 Q 543.075 -78.372 546.675 -79.618 L 549.166 -65.636 Q 545.567 -64.252 540.445 -63.421 Q 535.323 -62.452 528.401 -62.452 Q 518.433 -62.452 511.235 -65.082 Q 504.174 -67.713 499.606 -72.281 Q 495.037 -76.849 492.822 -83.079 Q 490.746 -89.309 490.746 -96.508 L 490.746 -96.508 Z " fill="rgb(255,255,255)"/><path d=" M 460.302 544.27 C 440.726 529.815 431.456 508.968 436.294 490.274 C 437.886 484.122 445.188 473.671 451.342 468.737 C 453.991 466.613 460.191 462.739 465.119 460.128 C 474.516 455.149 479.283 450.835 483.846 443.183 C 486.096 439.408 486.489 437.314 486.492 429.079 C 486.494 421.074 486.041 418.506 483.854 414.17 C 480.48 407.48 473.675 399.441 467.035 394.3 C 460.23 389.032 459.374 386.694 463.259 383.989 C 467.277 381.193 470.097 381.403 475.682 384.915 C 486.066 391.445 496.383 404.089 500.54 415.379 C 503.026 422.13 503.328 434.409 501.165 440.765 C 499.088 446.868 491.687 457.385 486.539 461.55 C 484.188 463.452 478.134 467.197 473.087 469.871 C 458.889 477.394 452.173 485.872 450.625 498.224 C 449.153 509.968 457.163 525.183 470.359 535.711 C 477.296 541.245 478.23 543.687 474.422 546.338 C 470.466 549.091 465.933 548.427 460.302 544.27 Z  M 366.602 544.928 C 349.88 532.564 340.106 516.113 340.146 500.402 C 340.172 490.23 346.787 477.201 355.694 469.777 C 358.088 467.783 364.271 463.794 369.435 460.912 C 385.774 451.796 392.445 442.703 392.495 429.482 C 392.54 417.323 385.901 405.397 373.12 394.679 C 366.164 388.846 365.21 386.227 369.062 383.546 C 372.954 380.836 376.976 381.48 382.648 385.719 C 403.61 401.387 412.879 423.554 406.14 441.896 C 401.846 453.581 394.263 460.898 374.373 472.546 C 361.014 480.369 355.656 489.587 356.611 503.099 C 357.222 511.735 358.94 516.24 364.621 524.108 C 368.036 528.836 376.389 536.964 379.947 539.019 C 382.465 540.473 382.307 544.961 379.68 546.616 C 376.017 548.924 371.159 548.297 366.602 544.928 L 366.602 544.928 Z  M 270.886 544.122 C 260.672 536.507 252.296 525.928 248.48 515.823 C 245.498 507.926 245.247 495.578 247.923 488.404 C 252.403 476.39 258.512 470.567 280.813 457.058 C 284.678 454.716 289.204 451.181 290.869 449.203 C 294.629 444.737 298.443 434.605 298.416 429.152 C 298.362 418.121 291.011 405.281 278.815 394.918 C 274.96 391.642 271.807 388.271 271.807 387.426 C 271.807 385.419 276.86 381.934 279.77 381.934 C 283.06 381.934 288.189 385.219 294.585 391.423 C 303.526 400.096 305.787 403.089 310.244 412.155 C 313.963 419.722 314.471 433.677 311.34 442.295 C 307.193 453.71 298.907 462.093 284.4 469.553 C 265.28 479.385 257.86 493.921 263.128 511.229 C 265.357 518.553 272.757 528.828 279.745 534.303 C 286.796 539.827 288.258 541.759 287.332 544.328 C 286.472 546.712 283.693 547.95 279.2 547.95 C 276.9 547.95 274.601 546.891 270.886 544.122 L 270.886 544.122 Z " fill="rgb(159,185,185)"/></g></svg>