<?xml version="1.0" encoding="UTF-8" standalone="no"?>
<!-- Created with Inkscape (http://www.inkscape.org/) -->

<svg
   xmlns:dc="http://purl.org/dc/elements/1.1/"
   xmlns:cc="http://creativecommons.org/ns#"
   xmlns:rdf="http://www.w3.org/1999/02/22-rdf-syntax-ns#"
   xmlns:svg="http://www.w3.org/2000/svg"
   xmlns="http://www.w3.org/2000/svg"
   xmlns:sodipodi="http://sodipodi.sourceforge.net/DTD/sodipodi-0.dtd"
   xmlns:inkscape="http://www.inkscape.org/namespaces/inkscape"
   width="800"
   height="800"
   viewBox="0 0 2116.6667 2116.6667"
   version="1.1"
   id="svg8"
   inkscape:version="0.92.3 (2405546, 2018-03-11)"
   sodipodi:docname="rogo.svg"
   inkscape:export-filename="C:\Users\FMVA77HWZ\Desktop\chooslr\rogo.png"
   inkscape:export-xdpi="866.98669"
   inkscape:export-ydpi="866.98669">
  <defs
     id="defs2" />
  <sodipodi:namedview
     id="base"
     pagecolor="#000000"
     bordercolor="#666666"
     borderopacity="1.0"
     inkscape:pageopacity="0"
     inkscape:pageshadow="2"
     inkscape:zoom="1.0725"
     inkscape:cx="400"
     inkscape:cy="400.00001"
     inkscape:document-units="mm"
     inkscape:current-layer="svg8"
     showgrid="false"
     units="px"
     inkscape:window-width="1842"
     inkscape:window-height="1051"
     inkscape:window-x="-9"
     inkscape:window-y="-9"
     inkscape:window-maximized="1"
     inkscape:pagecheckerboard="true"
     showguides="false" />
  <path
     inkscape:connector-curvature="0"
     id="path4512"
     style="font-style:normal;font-variant:normal;font-weight:bold;font-stretch:normal;font-size:84.66666412px;line-height:1.25;font-family:'Century Gothic';-inkscape-font-specification:'Century Gothic, Bold';font-variant-ligatures:normal;font-variant-caps:normal;font-variant-numeric:normal;font-feature-settings:normal;text-align:center;letter-spacing:0px;word-spacing:0px;writing-mode:lr-tb;text-anchor:middle;fill:#c8c8c8;fill-opacity:1;stroke:none;stroke-width:29.70847511"
     d="m 636.71909,1013.8305 -29.49628,16.2424 q -8.31617,-8.7059 -16.50234,-12.0844 -8.05625,-3.3784 -18.97116,-3.3784 -19.88079,0 -32.22505,11.9544 -12.21433,11.8246 -12.21433,30.4059 0,18.0616 11.82451,29.4963 11.82451,11.4347 31.05556,11.4347 23.77891,0 37.03281,-16.2424 l 27.937,19.1011 q -22.73945,29.4962 -64.19017,29.4962 -37.29267,0 -58.47278,-22.0897 -21.05025,-22.0897 -21.05025,-51.716 0,-20.5304 10.2652,-37.8124 10.26527,-17.2819 28.58675,-27.15738 18.45137,-9.87538 41.19086,-9.87538 21.05018,0 37.81242,8.44606 16.7622,8.31614 27.41725,23.779 z" />
  <path
     inkscape:connector-curvature="0"
     id="path4514"
     style="font-style:normal;font-variant:normal;font-weight:bold;font-stretch:normal;font-size:84.66666412px;line-height:1.25;font-family:'Century Gothic';-inkscape-font-specification:'Century Gothic, Bold';font-variant-ligatures:normal;font-variant-caps:normal;font-variant-numeric:normal;font-feature-settings:normal;text-align:center;letter-spacing:0px;word-spacing:0px;writing-mode:lr-tb;text-anchor:middle;fill:#c8c8c8;fill-opacity:1;stroke:none;stroke-width:29.70847511"
     d="m 799.61091,934.30746 h 35.21361 v 68.86794 q 10.3952,-8.96585 20.92029,-13.38379 10.52509,-4.54787 21.3101,-4.54787 21.05018,0 35.4735,14.55325 12.3443,12.60411 12.3443,37.03281 v 93.4265 h -34.95379 v -61.9812 q 0,-24.5585 -2.33892,-33.2645 -2.33891,-8.7059 -8.05628,-12.9939 -5.58736,-4.2881 -13.90346,-4.2881 -10.78505,0 -18.58141,7.1467 -7.66646,7.1467 -10.65502,19.491 -1.55931,6.367 -1.55931,29.1064 v 56.7836 h -35.21361 z" />
  <path
     inkscape:connector-curvature="0"
     id="path4516"
     style="font-style:normal;font-variant:normal;font-weight:bold;font-stretch:normal;font-size:84.66666412px;line-height:1.25;font-family:'Century Gothic';-inkscape-font-specification:'Century Gothic, Bold';font-variant-ligatures:normal;font-variant-caps:normal;font-variant-numeric:normal;font-feature-settings:normal;text-align:center;letter-spacing:0px;word-spacing:0px;writing-mode:lr-tb;text-anchor:middle;fill:#264488;fill-opacity:1;stroke:none;stroke-width:20.83218384"
     d="m 346.96292,1585.0565 q 14.0319,0 26.33259,7.016 12.39178,7.0159 19.31667,19.0433 6.92478,12.0273 6.92478,25.9681 0,14.0319 -7.01594,26.2415 -6.92482,12.2096 -18.95218,19.1344 -12.02732,6.8337 -26.51476,6.8337 -21.32118,0 -36.44648,-15.1253 -15.03415,-15.2164 -15.03415,-36.902 0,-23.2347 17.03873,-38.7245 14.94303,-13.4852 34.35074,-13.4852 z m 0.36449,23.4169 q -11.57178,0 -19.31658,8.1094 -7.6538,8.0182 -7.6538,20.5922 0,12.9385 7.56267,20.9568 7.65372,8.0182 19.31662,8.0182 11.66282,0 19.40771,-8.1093 7.74488,-8.1094 7.74488,-20.8657 0,-12.7562 -7.65379,-20.6834 -7.56261,-8.0182 -19.40771,-8.0182 z" />
  <path
     inkscape:connector-curvature="0"
     id="path4518"
     style="font-style:normal;font-variant:normal;font-weight:bold;font-stretch:normal;font-size:84.66666412px;line-height:1.25;font-family:'Century Gothic';-inkscape-font-specification:'Century Gothic, Bold';font-variant-ligatures:normal;font-variant-caps:normal;font-variant-numeric:normal;font-feature-settings:normal;text-align:center;letter-spacing:0px;word-spacing:0px;writing-mode:lr-tb;text-anchor:middle;opacity:0.97000002;fill:#f4c100;fill-opacity:1;stroke:none;stroke-width:20.83383751"
     d="m 1826.6689,446.61603 q 14.033,0 26.3347,7.0165 12.3928,7.01651 19.3181,19.04482 6.9253,12.02831 6.9253,25.97023 0,14.033 -7.0165,26.24356 -6.9254,12.21052 -18.9536,19.1359 -12.0284,6.83426 -26.517,6.83426 -21.3229,0 -36.4494,-15.12651 -15.0354,-15.2176 -15.0354,-36.905 0,-23.23649 17.0401,-38.72749 14.9443,-13.48627 34.3537,-13.48627 z m 0.3644,23.41877 q -11.5727,0 -19.3181,8.10997 -7.6544,8.01888 -7.6544,20.5939 0,12.93953 7.5632,20.95838 7.6544,8.01889 19.3182,8.01889 11.6638,0 19.4094,-8.11001 7.7454,-8.10994 7.7454,-20.86726 0,-12.7573 -7.6543,-20.68502 -7.5633,-8.01885 -19.4094,-8.01885 z" />
  <path
     inkscape:connector-curvature="0"
     id="path4520"
     style="font-style:normal;font-variant:normal;font-weight:bold;font-stretch:normal;font-size:84.66666412px;line-height:1.25;font-family:'Century Gothic';-inkscape-font-specification:'Century Gothic, Bold';font-variant-ligatures:normal;font-variant-caps:normal;font-variant-numeric:normal;font-feature-settings:normal;text-align:center;letter-spacing:0px;word-spacing:0px;writing-mode:lr-tb;text-anchor:middle;fill:#c8c8c8;fill-opacity:1;stroke:none;stroke-width:29.70847511"
     d="m 1185.4792,1004.9945 -21.9598,21.9599 q -13.3838,-13.2539 -24.2987,-13.2539 -5.9772,0 -9.3556,2.5988 -3.3784,2.4688 -3.3784,6.2371 0,2.8587 2.0789,5.3275 2.209,2.3389 10.6551,6.497 l 12.9939,6.497 q 20.5305,10.1353 28.197,20.6604 7.6664,10.5251 7.6664,24.6885 0,18.8412 -13.9035,31.4454 -13.7736,12.6041 -37.0328,12.6041 -30.9256,0 -49.3771,-24.1687 l 21.8299,-23.779 q 6.2371,7.2766 14.5532,11.8245 8.4461,4.418 14.9431,4.418 7.0167,0 11.3047,-3.3784 4.288,-3.3785 4.288,-7.7964 0,-8.1862 -15.4628,-15.9826 l -11.9544,-5.9773 q -34.3041,-17.2819 -34.3041,-43.2698 0,-16.7622 12.864,-28.58669 12.994,-11.95447 33.1347,-11.95447 13.7735,0 25.8579,6.10715 12.2143,5.97722 20.6604,17.28191 z" />
  <path
     inkscape:connector-curvature="0"
     id="path4522"
     style="font-style:normal;font-variant:normal;font-weight:bold;font-stretch:normal;font-size:84.66666412px;line-height:1.25;font-family:'Century Gothic';-inkscape-font-specification:'Century Gothic, Bold';font-variant-ligatures:normal;font-variant-caps:normal;font-variant-numeric:normal;font-feature-settings:normal;text-align:center;letter-spacing:0px;word-spacing:0px;writing-mode:lr-tb;text-anchor:middle;fill:#c8c8c8;fill-opacity:1;stroke:none;stroke-width:29.70847511"
     d="m 1350.97,934.30746 h 35.4735 V 1130.2563 H 1350.97 Z" />
  <path
     inkscape:connector-curvature="0"
     id="path4524"
     style="font-style:normal;font-variant:normal;font-weight:bold;font-stretch:normal;font-size:84.66666412px;line-height:1.25;font-family:'Century Gothic';-inkscape-font-specification:'Century Gothic, Bold';font-variant-ligatures:normal;font-variant-caps:normal;font-variant-numeric:normal;font-feature-settings:normal;text-align:center;letter-spacing:0px;word-spacing:0px;writing-mode:lr-tb;text-anchor:middle;fill:#c8c8c8;fill-opacity:1;stroke:none;stroke-width:29.70847511"
     d="m 1549.3353,988.88208 h 30.4059 v 17.80172 q 4.9378,-10.52515 13.1239,-15.98259 8.1862,-5.45747 17.9317,-5.45747 6.8868,0 14.4233,3.63834 l -11.0449,30.53582 q -6.2371,-3.1186 -10.2652,-3.1186 -8.1862,0 -13.9035,10.1353 -5.5874,10.1353 -5.5874,39.7615 l 0.1298,6.8868 v 57.1734 h -35.2136 z" />
  <circle
     r="16.431303"
     cy="1541.4844"
     cx="307.65427"
     id="path4544-3"
     style="font-style:normal;font-variant:normal;font-weight:bold;font-stretch:normal;font-size:84.66666412px;line-height:1.25;font-family:'Century Gothic';-inkscape-font-specification:'Century Gothic, Bold';font-variant-ligatures:normal;font-variant-caps:normal;font-variant-numeric:normal;font-feature-settings:normal;text-align:center;letter-spacing:0px;word-spacing:0px;writing-mode:lr-tb;text-anchor:middle;opacity:1;fill:#264488;fill-opacity:1;stroke:none;stroke-width:23.35886383;stroke-linecap:square;stroke-linejoin:round;stroke-miterlimit:4;stroke-dasharray:none;stroke-dashoffset:0;stroke-opacity:1;paint-order:normal" />
  <circle
     r="7.7968826"
     cy="1546.7928"
     cx="227.82812"
     id="path4544-3-5-2"
     style="font-style:normal;font-variant:normal;font-weight:bold;font-stretch:normal;font-size:84.66666412px;line-height:1.25;font-family:'Century Gothic';-inkscape-font-specification:'Century Gothic, Bold';font-variant-ligatures:normal;font-variant-caps:normal;font-variant-numeric:normal;font-feature-settings:normal;text-align:center;letter-spacing:0px;word-spacing:0px;writing-mode:lr-tb;text-anchor:middle;opacity:1;fill:#264488;fill-opacity:1;stroke:none;stroke-width:11.08410645;stroke-linecap:square;stroke-linejoin:round;stroke-miterlimit:4;stroke-dasharray:none;stroke-dashoffset:0;stroke-opacity:1;paint-order:normal" />
  <circle
     transform="rotate(-171.46995)"
     r="16.431303"
     cy="-352.74429"
     cx="-1962.8947"
     id="path4544-3-4"
     style="font-style:normal;font-variant:normal;font-weight:bold;font-stretch:normal;font-size:84.66666412px;line-height:1.25;font-family:'Century Gothic';-inkscape-font-specification:'Century Gothic, Bold';font-variant-ligatures:normal;font-variant-caps:normal;font-variant-numeric:normal;font-feature-settings:normal;text-align:center;letter-spacing:0px;word-spacing:0px;writing-mode:lr-tb;text-anchor:middle;opacity:1;fill:#f4c100;fill-opacity:1;stroke:none;stroke-width:23.35886192;stroke-linecap:square;stroke-linejoin:round;stroke-miterlimit:4;stroke-dasharray:none;stroke-dashoffset:0;stroke-opacity:1;paint-order:normal" />
  <circle
     r="9.4536381"
     transform="rotate(-171.46995)"
     cy="-287.69614"
     cx="-1956.6635"
     id="path4544-3-2-1"
     style="font-style:normal;font-variant:normal;font-weight:bold;font-stretch:normal;font-size:84.66666412px;line-height:1.25;font-family:'Century Gothic';-inkscape-font-specification:'Century Gothic, Bold';font-variant-ligatures:normal;font-variant-caps:normal;font-variant-numeric:normal;font-feature-settings:normal;text-align:center;letter-spacing:0px;word-spacing:0px;writing-mode:lr-tb;text-anchor:middle;opacity:1;fill:#f4c100;fill-opacity:1;stroke:none;stroke-width:13.43936157;stroke-linecap:square;stroke-linejoin:round;stroke-miterlimit:4;stroke-dasharray:none;stroke-dashoffset:0;stroke-opacity:1;paint-order:normal" />
  <circle
     transform="rotate(-171.46995)"
     r="7.7968826"
     cy="-390.94156"
     cx="-2006.7285"
     id="path4544-3-5-4"
     style="font-style:normal;font-variant:normal;font-weight:bold;font-stretch:normal;font-size:84.66666412px;line-height:1.25;font-family:'Century Gothic';-inkscape-font-specification:'Century Gothic, Bold';font-variant-ligatures:normal;font-variant-caps:normal;font-variant-numeric:normal;font-feature-settings:normal;text-align:center;letter-spacing:0px;word-spacing:0px;writing-mode:lr-tb;text-anchor:middle;opacity:1;fill:#f4c100;fill-opacity:1;stroke:none;stroke-width:11.08410645;stroke-linecap:square;stroke-linejoin:round;stroke-miterlimit:4;stroke-dasharray:none;stroke-dashoffset:0;stroke-opacity:1;paint-order:normal" />
  <circle
     r="7.7968826"
     cy="1677.8757"
     cx="268.56958"
     id="path4544-3-5-3"
     style="font-style:normal;font-variant:normal;font-weight:bold;font-stretch:normal;font-size:84.66666412px;line-height:1.25;font-family:'Century Gothic';-inkscape-font-specification:'Century Gothic, Bold';font-variant-ligatures:normal;font-variant-caps:normal;font-variant-numeric:normal;font-feature-settings:normal;text-align:center;letter-spacing:0px;word-spacing:0px;writing-mode:lr-tb;text-anchor:middle;opacity:1;fill:#264488;fill-opacity:1;stroke:none;stroke-width:11.08410645;stroke-linecap:square;stroke-linejoin:round;stroke-miterlimit:4;stroke-dasharray:none;stroke-dashoffset:0;stroke-opacity:1;paint-order:normal" />
  <metadata
     id="metadata4492">
    <rdf:RDF>
      <cc:Work
         rdf:about="">
        <dc:title></dc:title>
        <dc:format>image/svg+xml</dc:format>
        <dc:type
           rdf:resource="http://purl.org/dc/dcmitype/StillImage" />
      </cc:Work>
    </rdf:RDF>
  </metadata>
</svg>
