<?xml version="1.0" standalone="no"?><!-- Generator: Gravit.io --><svg xmlns="http://www.w3.org/2000/svg" xmlns:xlink="http://www.w3.org/1999/xlink" style="isolation:isolate" viewBox="0 0 1578.667 1578.667" width="1578.667" height="1578.667"><defs><clipPath id="_clipPath_CGGmoy8pzv5GL42yTfgOVqM2aartxqkS"><rect width="1578.667" height="1578.667"/></clipPath></defs><g clip-path="url(#_clipPath_CGGmoy8pzv5GL42yTfgOVqM2aartxqkS)"><g><g><path d=" M 1464.712 817.229 C 1464.712 860.663 1429.502 895.874 1386.067 895.874 C 1342.632 895.874 1307.421 860.663 1307.421 817.229 C 1307.421 773.794 1342.632 738.583 1386.067 738.583 C 1429.502 738.583 1464.712 773.794 1464.712 817.229 Z " fill="rgb(255,195,12)"/><path d=" M 1083.038 400.9 C 1083.038 417.694 1076.366 433.8 1064.491 445.675 C 1052.616 457.55 1036.51 464.221 1019.717 464.221 C 1002.923 464.221 986.817 457.55 974.942 445.675 C 963.067 433.8 956.395 417.694 956.395 400.9 C 956.395 384.106 963.067 368 974.942 356.125 C 986.817 344.25 1002.923 337.579 1019.717 337.579 C 1036.51 337.579 1052.616 344.25 1064.491 356.125 C 1076.366 368 1083.038 384.106 1083.038 400.9 Z " fill="rgb(255,195,12)"/><path d=" M 544.124 981.074 C 544.124 1006.171 523.779 1026.516 498.681 1026.516 C 473.584 1026.516 453.239 1006.171 453.239 981.074 C 453.239 969.022 458.027 957.463 466.549 948.941 C 475.071 940.419 486.629 935.631 498.681 935.631 C 510.733 935.631 522.292 940.419 530.814 948.941 C 539.336 957.463 544.124 969.022 544.124 981.074 Z " fill="rgb(255,195,12)"/><path d=" M 1167.729 1210.97 C 1167.729 1227.603 1154.245 1241.088 1137.612 1241.088 C 1120.978 1241.088 1107.494 1227.603 1107.494 1210.97 C 1107.494 1202.982 1110.667 1195.321 1116.315 1189.673 C 1121.963 1184.025 1129.624 1180.852 1137.612 1180.852 C 1154.245 1180.852 1167.729 1194.336 1167.729 1210.97 L 1167.729 1210.97 Z " fill="rgb(255,195,12)"/><path d=" M 229.97 776.352 C 229.97 784.522 223.347 791.145 215.177 791.145 C 207.007 791.145 200.384 784.522 200.384 776.352 C 200.384 772.428 201.942 768.666 204.716 765.891 C 207.491 763.117 211.253 761.559 215.177 761.559 C 219.1 761.559 222.863 763.117 225.637 765.891 C 228.412 768.666 229.97 772.428 229.97 776.352 Z " fill="rgb(255,195,12)"/></g><g><path d=" M 270.66 510.796 Q 277.22 510.796 281.906 515.482 Q 286.592 520.168 286.592 526.728 L 286.592 529.54 Q 286.592 536.1 281.906 540.786 Q 277.22 545.472 270.66 545.472 L 175.067 545.472 Q 168.506 545.472 163.82 540.786 Q 159.134 536.1 159.134 529.54 L 159.134 526.728 Q 159.134 520.168 163.82 515.482 Q 168.506 510.796 175.067 510.796 L 270.66 510.796 Z  M 283.781 614.824 Q 290.341 614.824 295.027 619.51 Q 299.713 624.196 299.713 630.756 L 299.713 633.568 Q 299.713 640.128 295.027 644.814 Q 290.341 649.5 283.781 649.5 L 161.946 649.5 Q 155.386 649.5 150.7 644.814 Q 146.014 640.128 146.014 633.568 L 146.014 630.756 Q 146.014 624.196 150.7 619.51 Q 155.386 614.824 161.946 614.824 L 283.781 614.824 Z " fill="rgb(0,53,134)"/><path d=" M 461.847 510.796 Q 468.407 510.796 473.093 515.482 Q 477.779 520.168 477.779 526.728 L 477.779 633.568 Q 477.779 640.128 473.093 644.814 Q 468.407 649.5 461.847 649.5 L 355.007 649.5 Q 348.447 649.5 343.761 644.814 Q 339.075 640.128 339.075 633.568 Q 339.075 627.008 343.761 622.322 Q 348.447 617.636 355.007 617.636 L 440.104 617.636 Q 442.166 617.636 442.166 615.574 L 442.166 544.722 Q 442.166 542.661 440.104 542.661 L 355.007 542.661 Q 348.447 542.661 343.761 537.975 Q 339.075 533.289 339.075 526.728 Q 339.075 520.168 343.761 515.482 Q 348.447 510.796 355.007 510.796 L 461.847 510.796 Z " fill="rgb(0,53,134)"/><path d=" M 645.536 510.796 Q 652.096 510.796 656.782 515.482 Q 661.468 520.168 661.468 526.728 L 661.468 529.54 Q 661.468 536.1 656.782 540.786 Q 652.096 545.472 645.536 545.472 L 549.943 545.472 Q 543.382 545.472 538.696 540.786 Q 534.01 536.1 534.01 529.54 L 534.01 526.728 Q 534.01 520.168 538.696 515.482 Q 543.382 510.796 549.943 510.796 L 645.536 510.796 Z  M 658.657 614.824 Q 665.217 614.824 669.903 619.51 Q 674.589 624.196 674.589 630.756 L 674.589 633.568 Q 674.589 640.128 669.903 644.814 Q 665.217 649.5 658.657 649.5 L 536.822 649.5 Q 530.262 649.5 525.576 644.814 Q 520.89 640.128 520.89 633.568 L 520.89 630.756 Q 520.89 624.196 525.576 619.51 Q 530.262 614.824 536.822 614.824 L 658.657 614.824 Z " fill="rgb(0,53,134)"/><path d=" M 836.723 510.796 Q 843.283 510.796 847.969 515.482 Q 852.655 520.168 852.655 526.728 L 852.655 633.568 Q 852.655 640.128 847.969 644.814 Q 843.283 649.5 836.723 649.5 L 729.883 649.5 Q 723.323 649.5 718.637 644.814 Q 713.951 640.128 713.951 633.568 Q 713.951 627.008 718.637 622.322 Q 723.323 617.636 729.883 617.636 L 814.98 617.636 Q 817.042 617.636 817.042 615.574 L 817.042 544.722 Q 817.042 542.661 814.98 542.661 L 729.883 542.661 Q 723.323 542.661 718.637 537.975 Q 713.951 533.289 713.951 526.728 Q 713.951 520.168 718.637 515.482 Q 723.323 510.796 729.883 510.796 L 836.723 510.796 Z " fill="rgb(0,53,134)"/><path d=" M 925.006 495.801 Q 931.567 496.926 935.315 502.549 Q 939.252 507.985 937.752 514.545 Q 934.378 530.852 928.38 545.847 Q 927.631 547.534 927.631 549.783 L 927.631 650.437 Q 927.631 656.998 922.945 661.684 Q 918.259 666.37 911.698 666.37 L 910.761 666.37 Q 904.201 666.37 899.515 661.684 Q 894.829 656.998 894.829 650.437 L 894.829 598.142 Q 894.829 597.767 894.454 597.58 Q 894.267 597.393 893.892 597.58 Q 891.642 600.766 887.894 599.829 Q 884.332 598.705 883.77 594.956 L 881.896 581.835 Q 880.021 567.402 888.456 552.782 Q 898.765 534.788 905.325 508.547 Q 907.012 501.987 912.448 498.425 Q 918.071 494.676 924.631 495.801 L 925.006 495.801 Z  M 1051.34 622.322 Q 1056.963 626.633 1058.65 633.381 Q 1060.524 639.941 1057.713 646.126 L 1057.15 647.251 Q 1054.526 652.687 1048.528 653.999 Q 1042.717 655.311 1038.406 651.187 Q 1026.223 639.941 1015.914 626.633 Q 1015.726 626.258 1015.164 626.445 Q 1014.789 626.633 1014.789 627.195 L 1014.789 650.437 Q 1014.789 656.998 1010.103 661.684 Q 1005.417 666.37 998.857 666.37 L 996.045 666.37 Q 989.485 666.37 984.799 661.684 Q 980.113 656.998 980.113 650.437 L 980.113 627.195 Q 980.113 626.633 979.551 626.633 Q 978.989 626.445 978.801 626.82 Q 967.93 640.691 956.496 651.375 Q 951.997 655.498 945.999 654.186 Q 940.001 653.062 937.19 647.438 L 935.878 645.002 Q 932.879 639.004 934.566 632.443 Q 936.253 625.696 941.688 621.759 Q 954.059 612.575 961.557 605.077 Q 961.932 604.703 961.744 604.14 Q 961.557 603.578 960.994 603.578 L 948.624 603.578 Q 943 603.578 939.064 599.642 Q 935.128 595.518 935.128 589.895 Q 935.128 584.272 939.064 580.336 Q 943 576.399 948.624 576.399 L 978.051 576.399 Q 980.113 576.399 980.113 574.338 L 980.113 570.027 Q 980.113 567.965 978.051 567.965 L 976.364 567.965 L 958.558 567.965 Q 951.997 567.965 947.312 563.279 Q 942.626 558.593 942.626 552.032 L 942.626 512.67 Q 942.626 506.11 947.312 501.424 Q 951.997 496.738 958.558 496.738 L 1037.282 496.738 Q 1043.842 496.738 1048.528 501.424 Q 1053.214 506.11 1053.214 512.67 L 1053.214 552.032 Q 1053.214 558.593 1048.528 563.279 Q 1043.842 567.965 1037.282 567.965 L 1016.851 567.965 Q 1014.789 567.965 1014.789 570.027 L 1014.789 574.338 Q 1014.789 576.399 1016.851 576.399 L 1045.154 576.399 Q 1050.777 576.399 1054.714 580.336 Q 1058.837 584.272 1058.837 589.895 Q 1058.837 595.518 1054.714 599.642 Q 1050.777 603.578 1045.154 603.578 L 1031.846 603.578 Q 1031.284 603.578 1031.096 604.328 Q 1031.096 604.89 1031.471 605.265 Q 1040.281 613.887 1051.34 622.322 L 1051.34 622.322 Z  M 978.426 541.723 L 1017.413 541.723 Q 1019.475 541.723 1019.475 539.662 L 1019.475 525.979 Q 1019.475 523.917 1017.413 523.917 L 978.426 523.917 Q 976.364 523.917 976.364 525.979 L 976.364 539.662 Q 976.364 541.723 978.426 541.723 L 978.426 541.723 Z " fill="rgb(0,53,134)"/><path d=" M 1233.155 502.361 Q 1238.59 502.361 1242.339 506.298 Q 1246.275 510.046 1246.275 515.482 Q 1246.275 520.918 1242.339 524.854 Q 1238.59 528.603 1233.155 528.603 L 1220.409 528.603 Q 1219.846 528.603 1219.472 529.165 Q 1219.097 529.727 1219.472 530.102 Q 1229.593 542.473 1237.466 553.907 Q 1241.027 558.968 1239.153 564.778 Q 1237.278 570.401 1231.468 572.651 L 1229.968 573.213 Q 1228.281 573.963 1229.406 575.462 Q 1233.155 579.773 1233.155 585.771 L 1233.155 625.133 Q 1233.155 633.943 1232.78 639.191 Q 1232.405 644.439 1231.093 649.688 Q 1229.968 654.936 1227.719 657.56 Q 1225.657 660.372 1221.721 662.621 Q 1217.785 664.87 1212.162 665.62 Q 1206.538 666.37 1198.479 666.37 Q 1190.044 666.37 1181.422 665.995 Q 1176.173 665.807 1172.612 662.059 Q 1169.051 658.497 1168.863 653.249 Q 1168.676 648.376 1172.237 645.002 Q 1175.799 641.44 1180.672 641.628 Q 1191.918 642.003 1193.793 642.003 Q 1196.604 642.003 1196.979 641.628 Q 1197.541 641.066 1197.541 638.254 L 1197.541 637.504 Q 1197.541 635.442 1195.48 635.442 L 1124.628 635.442 Q 1122.566 635.442 1122.566 637.504 L 1122.566 650.437 Q 1122.566 656.998 1117.88 661.684 Q 1113.194 666.37 1106.634 666.37 L 1102.885 666.37 Q 1096.325 666.37 1091.639 661.684 Q 1086.953 656.998 1086.953 650.437 L 1086.953 585.771 Q 1086.953 579.211 1091.639 574.525 Q 1096.325 569.839 1102.885 569.839 L 1207.101 569.839 Q 1207.663 569.839 1207.85 569.464 Q 1208.225 568.902 1207.85 568.527 Q 1206.913 567.59 1205.789 565.715 Q 1205.414 564.966 1204.289 563.654 Q 1203.164 562.154 1202.79 561.404 Q 1201.665 559.53 1199.416 559.905 Q 1145.996 564.216 1093.888 565.715 Q 1088.64 565.903 1084.704 562.342 Q 1080.767 558.78 1080.393 553.345 Q 1080.018 548.096 1083.392 544.348 Q 1086.953 540.599 1092.201 540.411 L 1107.946 539.849 Q 1110.195 539.849 1111.132 538.162 Q 1111.695 537.037 1113.007 534.413 Q 1114.319 531.789 1115.069 530.665 Q 1115.443 529.915 1115.069 529.352 Q 1114.694 528.603 1113.944 528.603 L 1086.953 528.603 Q 1081.517 528.603 1077.581 524.854 Q 1073.832 520.918 1073.832 515.482 Q 1073.832 510.046 1077.581 506.298 Q 1081.517 502.361 1086.953 502.361 L 1140.748 502.361 Q 1142.247 502.361 1142.247 500.862 Q 1142.247 496.363 1145.246 493.364 Q 1148.433 490.178 1152.931 490.178 L 1167.176 490.178 Q 1171.675 490.178 1174.674 493.364 Q 1177.86 496.363 1177.86 500.862 Q 1177.86 502.361 1179.36 502.361 L 1233.155 502.361 Z  M 1197.541 616.511 L 1197.541 615.012 Q 1197.541 612.95 1195.48 612.95 L 1124.628 612.95 Q 1122.566 612.95 1122.566 615.012 L 1122.566 616.511 Q 1122.566 618.573 1124.628 618.573 L 1195.48 618.573 Q 1197.541 618.573 1197.541 616.511 Z  M 1197.541 594.019 L 1197.541 592.519 Q 1197.541 590.457 1195.48 590.457 L 1124.628 590.457 Q 1122.566 590.457 1122.566 592.519 L 1122.566 594.019 Q 1122.566 596.08 1124.628 596.08 L 1195.48 596.08 Q 1197.541 596.08 1197.541 594.019 Z  M 1183.671 534.976 Q 1182.171 532.914 1182.171 530.665 Q 1182.171 528.603 1180.484 528.603 L 1149.745 528.603 Q 1148.058 528.603 1148.058 530.477 Q 1148.245 533.476 1146.746 536.663 Q 1145.996 538.162 1147.683 538.162 Q 1158.554 537.6 1183.109 536.1 Q 1183.484 536.1 1183.671 535.725 Q 1184.046 535.163 1183.671 534.976 L 1183.671 534.976 Z " fill="rgb(0,53,134)"/><path d=" M 1417.781 494.864 Q 1424.341 494.864 1429.028 499.55 Q 1433.713 504.236 1433.713 510.796 L 1433.713 651.375 Q 1433.713 657.935 1429.028 662.621 Q 1424.341 667.307 1417.781 667.307 L 1406.722 667.307 Q 1404.286 667.307 1402.599 665.62 Q 1400.912 663.933 1400.912 661.496 Q 1400.912 660.747 1400.162 660.747 L 1294.822 660.747 Q 1294.072 660.747 1294.072 661.496 Q 1294.072 663.933 1292.385 665.62 Q 1290.698 667.307 1288.261 667.307 L 1277.203 667.307 Q 1270.642 667.307 1265.956 662.621 Q 1261.27 657.935 1261.27 651.375 L 1261.27 510.796 Q 1261.27 504.236 1265.956 499.55 Q 1270.642 494.864 1277.203 494.864 L 1417.781 494.864 Z  M 1400.912 635.255 L 1400.912 521.293 Q 1400.912 519.231 1398.85 519.231 L 1296.134 519.231 Q 1294.072 519.231 1294.072 521.293 L 1294.072 635.255 Q 1294.072 637.317 1296.134 637.317 L 1398.85 637.317 Q 1400.912 637.317 1400.912 635.255 L 1400.912 635.255 Z  M 1329.498 548.284 Q 1331.56 548.284 1331.56 546.222 L 1331.56 545.66 Q 1331.56 543.598 1329.498 543.598 L 1310.004 543.598 Q 1307.005 543.598 1304.756 541.536 Q 1302.507 539.287 1302.507 536.1 Q 1302.507 532.914 1304.756 530.852 Q 1307.005 528.603 1310.004 528.603 L 1330.81 528.603 Q 1331.56 528.603 1331.56 527.853 Q 1331.56 525.416 1333.247 523.729 Q 1334.934 522.042 1337.37 522.042 L 1357.614 522.042 Q 1360.05 522.042 1361.737 523.729 Q 1363.424 525.416 1363.424 527.853 Q 1363.424 528.603 1364.174 528.603 L 1384.98 528.603 Q 1387.979 528.603 1390.228 530.852 Q 1392.477 532.914 1392.477 536.1 Q 1392.477 539.287 1390.228 541.536 Q 1387.979 543.598 1384.98 543.598 L 1365.486 543.598 Q 1363.424 543.598 1363.424 545.66 L 1363.424 546.222 Q 1363.424 548.284 1365.486 548.284 L 1386.479 548.284 Q 1389.665 548.284 1391.915 550.72 Q 1394.351 552.97 1394.351 556.156 Q 1394.351 559.343 1391.915 561.779 Q 1389.665 564.216 1386.479 564.216 L 1308.505 564.216 Q 1305.318 564.216 1302.882 561.779 Q 1300.632 559.343 1300.632 556.156 Q 1300.632 552.97 1302.882 550.72 Q 1305.318 548.284 1308.505 548.284 L 1329.498 548.284 Z  M 1393.039 618.948 Q 1396.601 620.822 1397.163 625.133 Q 1397.913 629.257 1395.289 632.256 Q 1392.664 635.63 1388.353 636.192 Q 1384.042 636.755 1380.481 634.13 Q 1373.921 629.444 1363.612 622.884 Q 1363.237 622.697 1362.862 623.072 Q 1362.487 623.259 1362.487 623.446 Q 1362.487 627.195 1359.675 630.007 Q 1357.051 632.631 1353.302 632.631 L 1340.557 632.631 Q 1337.183 632.631 1334.746 630.382 Q 1332.497 627.945 1332.497 624.571 Q 1332.497 623.634 1331.747 624.009 Q 1324.437 627.945 1314.503 632.069 Q 1309.817 634.13 1304.943 632.443 Q 1300.258 630.569 1297.821 626.071 Q 1295.759 622.134 1297.446 618.198 Q 1299.133 614.074 1303.444 612.575 Q 1316.377 608.451 1328.936 602.641 Q 1329.31 602.453 1329.123 602.078 Q 1328.936 601.704 1328.561 601.704 L 1320.313 601.704 Q 1313.753 601.704 1309.067 597.018 Q 1304.381 592.332 1304.381 585.771 L 1304.381 583.897 Q 1304.381 577.337 1309.067 572.651 Q 1313.753 567.965 1320.313 567.965 L 1374.67 567.965 Q 1381.231 567.965 1385.917 572.651 Q 1390.603 577.337 1390.603 583.897 L 1390.603 594.206 Q 1390.603 595.893 1391.915 596.83 Q 1396.038 599.642 1396.788 604.703 Q 1397.725 609.576 1394.726 613.512 Q 1394.351 614.074 1393.414 615.199 Q 1392.477 616.136 1391.915 616.699 Q 1390.978 617.636 1392.29 618.573 Q 1392.477 618.76 1392.664 618.76 Q 1392.852 618.76 1393.039 618.948 L 1393.039 618.948 Z  M 1362.487 586.521 L 1362.487 583.147 Q 1362.487 581.085 1360.425 581.085 L 1334.559 581.085 Q 1332.497 581.085 1332.497 583.147 L 1332.497 586.521 Q 1332.497 588.583 1334.559 588.583 L 1360.425 588.583 Q 1362.487 588.583 1362.487 586.521 Z  M 1379.544 603.391 Q 1379.919 602.828 1379.544 602.266 Q 1379.356 601.704 1378.607 601.704 L 1368.11 601.704 Q 1366.611 601.704 1365.673 602.453 Q 1364.549 603.578 1365.673 603.953 Q 1366.985 604.515 1369.422 605.827 Q 1371.859 607.139 1372.983 607.702 Q 1375.045 608.826 1376.357 607.139 Q 1376.92 606.39 1377.857 605.265 Q 1378.981 604.14 1379.544 603.391 Z " fill="rgb(0,53,134)"/><path d=" M 480.591 746.031 Q 487.151 746.031 491.837 750.717 Q 496.523 755.403 496.523 761.963 L 496.523 890.358 Q 496.523 896.919 491.837 901.605 Q 487.151 906.29 480.591 906.29 L 471.031 906.29 Q 467.657 906.29 465.221 903.854 Q 462.784 901.417 462.784 898.043 Q 462.784 896.919 461.659 896.919 L 445.165 896.919 Q 444.04 896.919 444.04 898.043 Q 444.04 901.417 441.604 903.854 Q 439.167 906.29 435.793 906.29 L 427.171 906.29 Q 420.61 906.29 415.924 901.605 Q 411.239 896.919 411.239 890.358 L 411.239 761.963 Q 411.239 755.403 415.924 750.717 Q 420.61 746.031 427.171 746.031 L 480.591 746.031 Z  M 462.784 866.741 L 462.784 777.146 Q 462.784 775.084 460.722 775.084 L 446.102 775.084 Q 444.04 775.084 444.04 777.146 L 444.04 866.741 Q 444.04 868.803 446.102 868.803 L 460.722 868.803 Q 462.784 868.803 462.784 866.741 Z  M 389.871 818.944 Q 393.244 824.38 398.868 834.127 Q 404.491 843.874 406.178 846.498 Q 409.177 851.559 408.052 857.557 Q 407.115 863.367 402.429 866.928 Q 398.305 870.115 393.244 868.803 Q 388.371 867.303 386.497 862.617 Q 385.747 860.743 384.247 857.182 Q 382.748 853.433 381.998 851.559 Q 381.811 851.371 381.436 851.371 Q 381.248 851.371 381.248 851.746 L 381.248 894.107 Q 381.248 900.667 376.562 905.353 Q 371.877 910.039 365.316 910.039 Q 358.756 910.039 354.07 905.353 Q 349.384 900.667 349.384 894.107 L 349.384 867.866 Q 349.384 867.491 349.009 867.491 Q 348.822 867.491 348.634 867.678 Q 346.01 874.801 343.386 880.424 Q 340.949 885.297 335.514 885.297 Q 330.078 885.11 327.266 880.237 L 326.517 878.925 Q 322.955 872.552 323.33 865.429 Q 323.892 858.306 327.829 852.121 Q 338.7 835.814 344.323 819.132 Q 344.511 818.382 343.948 817.82 Q 343.573 817.257 342.824 817.257 L 337.2 817.257 Q 331.39 817.257 327.266 813.134 Q 323.143 809.01 323.143 803.2 Q 323.143 797.389 327.266 793.265 Q 331.39 789.142 337.2 789.142 L 347.322 789.142 Q 349.384 789.142 349.384 787.08 L 349.384 773.022 Q 349.384 771.148 347.322 771.148 L 340.012 771.71 Q 334.576 772.085 330.265 768.336 Q 325.954 764.587 325.392 759.152 Q 324.83 753.903 328.203 749.78 Q 331.765 745.656 337.2 745.281 Q 359.88 743.594 384.06 738.721 Q 389.683 737.596 394.744 740.408 Q 399.992 743.219 401.867 748.468 Q 403.741 753.716 401.304 758.589 Q 398.868 763.275 393.432 764.587 Q 387.434 766.087 383.31 766.649 Q 381.248 767.024 381.248 769.086 L 381.248 787.08 Q 381.248 789.142 383.31 789.142 L 391.558 789.142 Q 397.368 789.142 401.492 793.265 Q 405.615 797.389 405.615 803.2 Q 405.615 809.01 401.492 813.134 Q 397.368 817.257 391.558 817.257 L 390.808 817.257 Q 390.058 817.257 389.683 817.82 Q 389.496 818.382 389.871 818.944 L 389.871 818.944 Z " fill="rgb(0,53,134)"/><path d=" M 569.624 871.989 Q 558.377 887.547 538.322 900.855 Q 532.511 904.604 525.951 903.104 Q 519.39 901.792 515.454 896.169 L 515.079 895.794 Q 511.518 890.733 513.017 884.735 Q 514.517 878.737 519.953 875.551 Q 531.386 868.803 538.322 862.805 Q 538.509 862.617 538.509 862.243 Q 538.696 861.868 538.509 861.68 Q 538.322 861.305 537.947 861.305 L 526.138 861.305 Q 520.89 861.305 517.141 857.557 Q 513.392 853.808 513.392 848.56 Q 513.392 843.311 517.141 839.75 Q 520.89 836.001 526.138 836.001 L 563.626 836.001 Q 568.874 836.001 572.435 839.75 Q 576.184 843.311 576.184 848.56 Q 576.184 862.992 569.624 871.989 L 569.624 871.989 Z  M 675.714 875.363 Q 681.149 878.55 682.461 884.735 Q 683.961 890.733 680.4 895.794 L 680.025 896.169 Q 676.089 901.792 669.341 903.291 Q 662.78 904.791 657.157 901.042 Q 636.352 887.359 619.67 867.866 Q 619.482 867.491 618.92 867.678 Q 618.358 867.866 618.358 868.428 L 618.358 872.552 Q 618.358 882.111 617.983 887.547 Q 617.795 892.982 616.296 897.668 Q 614.796 902.354 612.922 904.416 Q 611.048 906.478 606.549 907.977 Q 602.238 909.477 597.365 909.664 Q 592.491 910.039 583.682 910.039 Q 582.744 910.039 571.498 909.664 Q 565.5 909.289 561.189 905.166 Q 556.878 901.042 556.503 895.044 Q 556.128 889.421 560.064 885.485 Q 564.188 881.361 569.811 881.736 Q 573.372 881.924 577.121 881.924 Q 581.995 881.924 582.744 880.986 Q 583.682 880.049 583.682 875.363 L 583.682 830.566 Q 583.682 828.504 581.62 828.504 L 561.189 828.504 L 542.445 828.504 Q 535.885 828.504 531.199 823.818 Q 526.513 819.132 526.513 812.571 L 526.513 762.9 Q 526.513 756.34 531.199 751.654 Q 535.885 746.968 542.445 746.968 L 574.685 746.968 Q 576.184 746.968 576.559 745.469 Q 577.684 740.595 581.62 737.409 Q 585.743 734.222 590.804 734.41 L 604.487 735.16 Q 608.423 735.534 610.86 738.721 Q 613.297 741.72 612.547 745.656 Q 612.172 746.968 613.672 746.968 L 653.034 746.968 Q 659.594 746.968 664.28 751.654 Q 668.966 756.34 668.966 762.9 L 668.966 812.571 Q 668.966 819.132 664.28 823.818 Q 659.594 828.504 653.034 828.504 L 625.668 828.504 Q 624.918 828.504 624.731 829.066 Q 624.543 829.628 624.918 830.191 Q 630.541 838.063 636.727 844.436 Q 638.039 845.935 639.726 844.623 Q 645.911 839.937 653.783 833.002 Q 658.657 828.691 665.217 828.879 Q 671.777 828.879 676.463 833.19 Q 681.149 837.501 681.149 843.686 Q 681.337 849.872 676.651 853.995 Q 668.029 861.493 663.53 864.867 Q 661.656 866.366 663.343 867.303 Q 668.404 870.865 675.714 875.363 Z  M 561.189 773.397 L 561.189 777.708 Q 561.189 779.77 563.251 779.77 L 632.228 779.77 Q 634.29 779.77 634.29 777.708 L 634.29 773.397 Q 634.29 771.335 632.228 771.335 L 563.251 771.335 Q 561.189 771.335 561.189 773.397 Z  M 563.251 807.885 L 632.228 807.885 Q 634.29 807.885 634.29 805.824 L 634.29 801.513 Q 634.29 799.451 632.228 799.451 L 563.251 799.451 Q 561.189 799.451 561.189 801.513 L 561.189 805.824 Q 561.189 807.885 563.251 807.885 Z " fill="rgb(0,53,134)"/><path d=" M 851.718 764.775 Q 858.278 764.775 862.964 769.461 Q 867.65 774.147 867.65 780.707 L 867.65 853.808 Q 867.65 860.368 862.964 865.054 Q 858.278 869.74 851.718 869.74 L 843.096 869.74 Q 839.722 869.74 837.285 867.303 Q 834.849 864.867 834.849 861.493 Q 834.849 860.368 833.724 860.368 L 805.046 860.368 Q 802.984 860.368 802.984 862.43 L 802.984 895.981 Q 802.984 902.542 798.298 907.228 Q 793.612 911.914 787.052 911.914 L 783.303 911.914 Q 776.743 911.914 772.057 907.228 Q 767.371 902.542 767.371 895.981 L 767.371 862.43 Q 767.371 860.368 765.309 860.368 L 736.631 860.368 Q 735.506 860.368 735.506 861.493 Q 735.506 864.867 733.07 867.303 Q 730.633 869.74 727.259 869.74 L 718.637 869.74 Q 712.077 869.74 707.391 865.054 Q 702.705 860.368 702.705 853.808 L 702.705 780.707 Q 702.705 774.147 707.391 769.461 Q 712.077 764.775 718.637 764.775 L 765.309 764.775 Q 767.371 764.775 767.371 762.713 L 767.371 751.654 Q 767.371 745.094 772.057 740.408 Q 776.743 735.722 783.303 735.722 L 787.052 735.722 Q 793.612 735.722 798.298 740.408 Q 802.984 745.094 802.984 751.654 L 802.984 762.713 Q 802.984 764.775 805.046 764.775 L 851.718 764.775 Z  M 737.568 832.252 L 765.309 832.252 Q 767.371 832.252 767.371 830.191 L 767.371 795.889 Q 767.371 793.828 765.309 793.828 L 737.568 793.828 Q 735.506 793.828 735.506 795.889 L 735.506 830.191 Q 735.506 832.252 737.568 832.252 Z  M 834.849 830.191 L 834.849 795.889 Q 834.849 793.828 832.787 793.828 L 805.046 793.828 Q 802.984 793.828 802.984 795.889 L 802.984 830.191 Q 802.984 832.252 805.046 832.252 L 832.787 832.252 Q 834.849 832.252 834.849 830.191 Z " fill="rgb(0,53,134)"/><path d=" M 1049.09 819.132 Q 1053.964 819.132 1057.338 822.693 Q 1060.712 826.067 1060.712 830.753 L 1060.712 833.19 Q 1060.712 839 1056.588 843.124 Q 1052.464 847.247 1046.654 847.247 L 1002.981 847.247 Q 1002.231 847.247 1002.043 847.81 Q 1001.856 848.372 1002.231 848.934 Q 1014.977 865.242 1045.717 877.425 Q 1051.715 879.862 1054.151 885.672 Q 1056.588 891.483 1053.776 897.293 L 1053.589 897.481 Q 1050.59 903.666 1044.217 906.29 Q 1038.032 908.915 1031.659 906.29 Q 996.233 890.921 975.802 862.43 Q 975.427 861.68 974.49 861.68 Q 973.553 861.68 973.178 862.43 Q 951.435 891.295 913.573 906.665 Q 907.387 909.102 901.014 906.29 Q 894.641 903.666 891.642 897.481 L 891.455 897.293 Q 888.643 891.483 891.08 885.672 Q 893.517 879.862 899.515 877.425 Q 930.067 865.242 943 848.934 Q 943.375 848.372 943 847.81 Q 942.813 847.247 942.063 847.247 L 898.578 847.247 Q 892.767 847.247 888.643 843.124 Q 884.52 839 884.52 833.19 L 884.52 830.753 Q 884.52 826.067 887.894 822.693 Q 891.268 819.132 896.141 819.132 Q 897.64 819.132 897.64 817.632 L 897.64 773.209 Q 897.64 766.649 902.326 761.963 Q 907.012 757.277 913.573 757.277 L 952.747 757.277 Q 954.809 757.277 954.809 755.215 L 954.809 751.654 Q 954.809 745.094 959.495 740.408 Q 964.181 735.722 970.741 735.722 L 974.49 735.722 Q 981.05 735.722 985.736 740.408 Q 990.422 745.094 990.422 751.654 L 990.422 755.215 Q 990.422 757.277 992.484 757.277 L 1031.659 757.277 Q 1038.219 757.277 1042.905 761.963 Q 1047.591 766.649 1047.591 773.209 L 1047.591 817.632 Q 1047.591 819.132 1049.09 819.132 L 1049.09 819.132 Z  M 954.809 812.571 L 954.809 788.392 Q 954.809 786.33 952.747 786.33 L 931.567 786.33 Q 929.505 786.33 929.505 788.392 L 929.505 817.07 Q 929.505 819.132 931.567 819.132 L 952.372 819.132 Q 954.622 819.132 954.622 817.07 Q 954.622 816.32 954.622 814.821 Q 954.809 813.321 954.809 812.571 L 954.809 812.571 Z  M 1015.726 817.07 L 1015.726 788.392 Q 1015.726 786.33 1013.665 786.33 L 992.484 786.33 Q 990.422 786.33 990.422 788.392 L 990.422 812.571 Q 990.422 813.321 990.422 814.821 Q 990.61 816.32 990.61 817.07 Q 990.61 819.132 992.859 819.132 L 1013.665 819.132 Q 1015.726 819.132 1015.726 817.07 L 1015.726 817.07 Z " fill="rgb(0,53,134)"/><path d=" M 1230.343 738.533 Q 1236.903 738.533 1241.589 743.219 Q 1246.275 747.905 1246.275 754.466 L 1246.275 895.044 Q 1246.275 901.605 1241.589 906.29 Q 1236.903 910.976 1230.343 910.976 L 1219.284 910.976 Q 1216.847 910.976 1215.161 909.289 Q 1213.474 907.603 1213.474 905.166 Q 1213.474 904.416 1212.724 904.416 L 1107.384 904.416 Q 1106.634 904.416 1106.634 905.166 Q 1106.634 907.603 1104.947 909.289 Q 1103.26 910.976 1100.823 910.976 L 1089.764 910.976 Q 1083.204 910.976 1078.518 906.29 Q 1073.832 901.605 1073.832 895.044 L 1073.832 754.466 Q 1073.832 747.905 1078.518 743.219 Q 1083.204 738.533 1089.764 738.533 L 1230.343 738.533 Z  M 1213.474 878.925 L 1213.474 764.962 Q 1213.474 762.9 1211.412 762.9 L 1108.696 762.9 Q 1106.634 762.9 1106.634 764.962 L 1106.634 878.925 Q 1106.634 880.986 1108.696 880.986 L 1211.412 880.986 Q 1213.474 880.986 1213.474 878.925 Z  M 1142.06 791.953 Q 1144.122 791.953 1144.122 789.891 L 1144.122 789.329 Q 1144.122 787.267 1142.06 787.267 L 1122.566 787.267 Q 1119.567 787.267 1117.318 785.205 Q 1115.069 782.956 1115.069 779.77 Q 1115.069 776.583 1117.318 774.522 Q 1119.567 772.272 1122.566 772.272 L 1143.372 772.272 Q 1144.122 772.272 1144.122 771.522 Q 1144.122 769.086 1145.808 767.399 Q 1147.495 765.712 1149.932 765.712 L 1170.175 765.712 Q 1172.612 765.712 1174.299 767.399 Q 1175.986 769.086 1175.986 771.522 Q 1175.986 772.272 1176.736 772.272 L 1197.541 772.272 Q 1200.54 772.272 1202.79 774.522 Q 1205.039 776.583 1205.039 779.77 Q 1205.039 782.956 1202.79 785.205 Q 1200.54 787.267 1197.541 787.267 L 1178.048 787.267 Q 1175.986 787.267 1175.986 789.329 L 1175.986 789.891 Q 1175.986 791.953 1178.048 791.953 L 1199.041 791.953 Q 1202.227 791.953 1204.477 794.39 Q 1206.913 796.639 1206.913 799.826 Q 1206.913 803.012 1204.477 805.449 Q 1202.227 807.885 1199.041 807.885 L 1121.067 807.885 Q 1117.88 807.885 1115.443 805.449 Q 1113.194 803.012 1113.194 799.826 Q 1113.194 796.639 1115.443 794.39 Q 1117.88 791.953 1121.067 791.953 L 1142.06 791.953 Z  M 1205.601 862.617 Q 1209.163 864.492 1209.725 868.803 Q 1210.475 872.927 1207.85 875.926 Q 1205.226 879.299 1200.915 879.862 Q 1196.604 880.424 1193.043 877.8 Q 1186.483 873.114 1176.173 866.554 Q 1175.799 866.366 1175.424 866.741 Q 1175.049 866.928 1175.049 867.116 Q 1175.049 870.865 1172.237 873.676 Q 1169.613 876.3 1165.864 876.3 L 1153.119 876.3 Q 1149.745 876.3 1147.308 874.051 Q 1145.059 871.614 1145.059 868.241 Q 1145.059 867.303 1144.309 867.678 Q 1136.999 871.614 1127.065 875.738 Q 1122.379 877.8 1117.505 876.113 Q 1112.819 874.239 1110.383 869.74 Q 1108.321 865.804 1110.008 861.868 Q 1111.695 857.744 1116.006 856.245 Q 1128.939 852.121 1141.497 846.31 Q 1141.872 846.123 1141.685 845.748 Q 1141.497 845.373 1141.122 845.373 L 1132.875 845.373 Q 1126.315 845.373 1121.629 840.687 Q 1116.943 836.001 1116.943 829.441 L 1116.943 827.566 Q 1116.943 821.006 1121.629 816.32 Q 1126.315 811.634 1132.875 811.634 L 1187.232 811.634 Q 1193.793 811.634 1198.479 816.32 Q 1203.165 821.006 1203.165 827.566 L 1203.165 837.876 Q 1203.165 839.563 1204.477 840.5 Q 1208.6 843.311 1209.35 848.372 Q 1210.287 853.246 1207.288 857.182 Q 1206.913 857.744 1205.976 858.869 Q 1205.039 859.806 1204.477 860.368 Q 1203.539 861.305 1204.852 862.243 Q 1205.039 862.43 1205.226 862.43 Q 1205.414 862.43 1205.601 862.617 L 1205.601 862.617 Z  M 1175.049 830.191 L 1175.049 826.817 Q 1175.049 824.755 1172.987 824.755 L 1147.121 824.755 Q 1145.059 824.755 1145.059 826.817 L 1145.059 830.191 Q 1145.059 832.252 1147.121 832.252 L 1172.987 832.252 Q 1175.049 832.252 1175.049 830.191 Z  M 1192.106 847.06 Q 1192.481 846.498 1192.106 845.935 Q 1191.918 845.373 1191.168 845.373 L 1180.672 845.373 Q 1179.172 845.373 1178.235 846.123 Q 1177.111 847.247 1178.235 847.622 Q 1179.547 848.185 1181.984 849.497 Q 1184.421 850.809 1185.545 851.371 Q 1187.607 852.496 1188.919 850.809 Q 1189.482 850.059 1190.419 848.934 Q 1191.543 847.81 1192.106 847.06 Z " fill="rgb(0,53,134)"/></g><g><path d=" M 117.326 1077.601 Q 119.002 1079.025 121.6 1079.025 Q 124.198 1079.025 125.79 1077.601 Q 127.467 1076.176 127.467 1073.997 Q 127.467 1071.818 125.79 1070.393 Q 124.198 1068.968 121.6 1068.968 Q 119.002 1068.968 117.326 1070.393 Q 115.733 1071.818 115.733 1073.997 Q 115.733 1076.176 117.326 1077.601 Z  M 156.8 1042.149 Q 159.398 1042.149 161.242 1043.993 Q 163.085 1045.837 163.085 1048.435 Q 163.085 1051.033 161.242 1052.877 Q 159.398 1054.721 156.8 1054.721 L 142.217 1054.721 Q 141.295 1054.721 141.295 1055.642 L 141.295 1068.884 Q 141.295 1069.639 141.714 1070.644 Q 144.228 1075.841 144.228 1081.54 Q 144.228 1093.44 137.691 1099.81 Q 131.238 1106.179 116.152 1108.442 Q 113.303 1108.861 110.956 1107.101 Q 108.693 1105.341 108.19 1102.492 Q 107.688 1099.81 109.364 1097.631 Q 111.04 1095.452 113.722 1095.117 Q 121.6 1094.195 124.366 1093.105 Q 127.131 1092.016 128.137 1089.753 Q 128.221 1089.669 128.221 1089.501 Q 128.221 1089.334 128.305 1089.25 L 128.305 1089.082 L 128.137 1089.082 Q 123.863 1090.759 119.505 1090.759 Q 111.291 1090.759 106.179 1086.149 Q 101.067 1081.54 101.067 1073.997 Q 101.067 1066.37 106.263 1061.844 Q 111.459 1057.235 120.343 1057.235 Q 122.941 1057.235 125.958 1058.073 L 126.126 1058.073 Q 126.21 1058.073 126.21 1057.989 L 126.21 1055.642 Q 126.21 1054.721 125.288 1054.721 L 95.619 1054.721 Q 93.021 1054.721 91.177 1052.877 Q 89.333 1051.033 89.333 1048.435 Q 89.333 1045.837 91.177 1043.993 Q 93.021 1042.149 95.619 1042.149 L 125.287 1042.149 Q 126.209 1042.149 126.209 1041.227 Q 126.209 1038.462 128.137 1036.534 Q 130.065 1034.606 132.83 1034.606 L 134.674 1034.606 Q 137.44 1034.606 139.367 1036.534 Q 141.295 1038.462 141.295 1041.227 Q 141.295 1042.149 142.217 1042.149 L 156.8 1042.149 Z " fill="rgb(93,154,31)"/><path d=" M 229.127 1041.311 Q 231.977 1041.311 233.988 1043.323 Q 236 1045.334 236 1048.183 Q 236 1051.117 233.988 1053.128 Q 231.977 1055.14 229.127 1055.14 L 191.748 1055.14 Q 188.899 1055.14 186.887 1053.128 Q 184.876 1051.117 184.876 1048.183 Q 184.876 1045.334 186.887 1043.323 Q 188.899 1041.311 191.748 1041.311 L 229.127 1041.311 Z  M 239.603 1097.212 Q 240.274 1100.145 238.681 1102.659 Q 237.089 1105.174 234.156 1105.76 Q 220.411 1108.359 210.019 1108.359 Q 194.598 1108.359 185.965 1103.079 Q 177.333 1097.799 177.333 1089.082 Q 177.333 1084.976 179.261 1080.953 Q 181.272 1076.93 186.133 1071.566 Q 188.228 1069.303 191.329 1069.052 Q 194.43 1068.717 196.944 1070.561 L 197.112 1070.728 Q 199.375 1072.321 199.543 1075.17 Q 199.794 1077.936 197.866 1080.031 Q 193.676 1084.724 193.676 1087.406 Q 193.676 1090.423 197.699 1092.267 Q 201.805 1094.111 210.019 1094.111 Q 218.4 1094.111 231.222 1091.513 Q 234.072 1090.926 236.502 1092.519 Q 238.933 1094.027 239.52 1096.877 L 239.603 1097.212 Z " fill="rgb(93,154,31)"/><path d=" M 312.266 1046.34 Q 321.569 1046.34 327.352 1052.122 Q 333.218 1057.822 333.218 1067.292 Q 333.218 1078.103 326.849 1084.221 Q 320.479 1090.34 309.752 1090.34 Q 307.489 1090.34 306.232 1090.256 Q 303.298 1090.088 301.455 1087.825 Q 299.695 1085.479 299.946 1082.461 Q 300.197 1079.612 302.46 1077.768 Q 304.723 1075.924 307.656 1075.924 L 308.076 1075.924 Q 312.098 1075.924 314.696 1073.829 Q 317.295 1071.65 317.295 1068.13 Q 317.295 1060.671 310.003 1060.587 Q 309.584 1060.587 309.416 1060.922 Q 309.249 1061.258 309.333 1061.593 Q 309.416 1061.761 309.5 1062.096 Q 309.584 1062.347 309.584 1062.515 Q 310.338 1065.364 308.83 1067.962 Q 307.405 1070.56 304.556 1071.399 L 304.053 1071.566 Q 301.203 1072.404 298.605 1070.98 Q 296.091 1069.555 295.169 1066.705 Q 295.169 1066.454 295.001 1066.119 Q 294.834 1065.783 294.75 1065.532 Q 294.415 1064.61 293.66 1064.861 Q 292.822 1065.197 291.062 1065.783 Q 289.386 1066.37 288.464 1066.705 Q 287.458 1067.04 287.794 1067.962 Q 292.99 1085.73 296.677 1099.726 Q 297.432 1102.576 295.839 1105.09 Q 294.331 1107.688 291.481 1108.358 L 289.889 1108.778 Q 287.039 1109.448 284.441 1107.939 Q 281.927 1106.431 281.173 1103.498 Q 276.647 1086.4 272.959 1073.745 Q 272.624 1072.823 271.87 1073.075 Q 271.618 1073.159 269.272 1074.08 Q 266.925 1075.002 265.668 1075.505 Q 262.902 1076.595 260.137 1075.505 Q 257.455 1074.332 256.365 1071.566 L 256.281 1071.399 Q 255.108 1068.633 256.281 1065.951 Q 257.455 1063.185 260.22 1062.096 Q 261.729 1061.509 264.578 1060.42 Q 267.428 1059.246 267.679 1059.162 Q 268.601 1058.827 268.266 1057.905 Q 267.847 1056.564 267.009 1054.05 Q 266.255 1051.536 265.836 1050.195 Q 264.914 1047.429 266.255 1044.831 Q 267.596 1042.149 270.445 1041.311 L 271.954 1040.892 Q 274.803 1040.054 277.401 1041.479 Q 279.999 1042.82 280.921 1045.669 Q 281.257 1046.842 281.927 1049.021 Q 282.681 1051.201 283.016 1052.374 Q 283.352 1053.296 284.274 1052.961 Q 287.291 1051.871 289.386 1051.201 Q 290.308 1050.865 290.056 1050.111 Q 289.889 1049.608 289.47 1048.351 Q 289.135 1047.094 288.883 1046.423 Q 287.961 1043.658 289.302 1041.06 Q 290.727 1038.462 293.576 1037.707 L 294.917 1037.372 Q 297.767 1036.534 300.365 1037.959 Q 302.963 1039.383 303.801 1042.233 Q 303.969 1042.82 304.304 1044.161 Q 304.723 1045.502 304.891 1046.088 Q 305.226 1047.01 306.232 1046.842 Q 309.584 1046.34 312.266 1046.34 L 312.266 1046.34 Z " fill="rgb(93,154,31)"/><path d=" M 371.771 1049.692 Q 376.464 1049.692 378.643 1049.692 Q 380.822 1049.692 383.671 1050.279 Q 386.605 1050.782 387.527 1051.117 Q 388.532 1051.452 389.957 1053.296 Q 391.382 1055.14 391.633 1056.481 Q 391.885 1057.822 392.304 1061.593 Q 392.723 1065.281 392.723 1068.214 Q 392.723 1071.147 392.723 1077.349 Q 392.723 1094.027 388.616 1101.235 Q 384.593 1108.359 376.799 1108.359 Q 372.357 1108.359 364.982 1106.766 Q 362.216 1106.179 360.792 1103.665 Q 359.367 1101.151 360.037 1098.301 Q 360.708 1095.536 363.138 1094.111 Q 365.653 1092.602 368.418 1093.273 Q 372.022 1094.111 373.447 1094.111 Q 376.799 1094.111 376.799 1074.835 Q 376.799 1066.119 376.129 1064.61 Q 375.542 1063.102 371.771 1063.102 L 366.155 1063.102 Q 365.233 1063.102 365.066 1064.023 Q 360.959 1082.545 353.919 1102.743 Q 352.997 1105.425 350.399 1106.682 Q 347.801 1108.023 345.119 1107.101 Q 342.437 1106.179 341.18 1103.665 Q 340.007 1101.235 340.845 1098.637 Q 346.544 1081.54 350.567 1063.94 Q 350.734 1063.102 349.813 1063.102 L 346.628 1063.102 Q 343.862 1063.102 341.851 1061.174 Q 339.923 1059.162 339.923 1056.397 Q 339.923 1053.631 341.851 1051.703 Q 343.862 1049.692 346.628 1049.692 L 352.578 1049.692 Q 353.584 1049.692 353.752 1048.686 Q 354.841 1042.987 355.176 1040.641 Q 355.679 1037.707 357.942 1035.863 Q 360.289 1034.02 363.222 1034.187 Q 366.072 1034.355 367.832 1036.534 Q 369.592 1038.713 369.172 1041.479 Q 368.837 1043.909 367.999 1048.77 Q 367.915 1049.105 368.167 1049.441 Q 368.418 1049.692 368.837 1049.692 L 371.771 1049.692 Z  M 408.479 1051.368 Q 413.005 1064.778 416.944 1079.78 Q 417.698 1082.545 416.106 1085.06 Q 414.597 1087.574 411.748 1088.244 L 411.077 1088.412 Q 408.228 1089.082 405.63 1087.574 Q 403.115 1086.065 402.361 1083.132 Q 398.422 1068.633 393.896 1055.14 Q 392.974 1052.374 394.315 1049.86 Q 395.656 1047.262 398.422 1046.591 L 399.26 1046.423 Q 402.193 1045.669 404.875 1047.094 Q 407.557 1048.519 408.479 1051.368 L 408.479 1051.368 Z " fill="rgb(93,154,31)"/><path d=" M 440.159 1088.412 Q 440.746 1089.082 447.283 1097.296 Q 448.959 1099.475 448.54 1102.157 Q 448.121 1104.755 445.942 1106.263 Q 443.679 1107.856 440.913 1107.437 Q 438.231 1107.018 436.471 1104.839 Q 434.711 1102.659 429.85 1096.793 Q 428.09 1094.698 428.258 1091.932 Q 428.509 1089.166 430.605 1087.406 Q 432.784 1085.646 435.549 1085.981 Q 438.399 1086.233 440.159 1088.412 L 440.159 1088.412 Z " fill="rgb(93,154,31)"/><path d=" M 551.122 1058.911 Q 564.197 1058.911 571.069 1064.023 Q 577.941 1069.136 577.941 1078.187 Q 577.941 1102.911 536.288 1107.688 Q 533.355 1108.023 531.008 1106.179 Q 528.745 1104.419 528.326 1101.486 Q 527.907 1098.637 529.583 1096.374 Q 531.26 1094.027 534.109 1093.692 Q 562.018 1089.753 562.018 1079.025 Q 562.018 1076.092 559.336 1074.667 Q 556.654 1073.159 550.284 1073.159 Q 540.814 1073.159 521.957 1077.098 Q 519.024 1077.684 516.509 1076.092 Q 514.079 1074.5 513.408 1071.65 Q 512.738 1068.717 514.246 1066.202 Q 515.755 1063.688 518.604 1063.102 Q 537.713 1058.911 551.122 1058.911 L 551.122 1058.911 Z  M 532.098 1037.875 Q 545.004 1039.132 559.001 1039.551 Q 561.934 1039.635 564.029 1041.73 Q 566.208 1043.825 566.208 1046.759 Q 566.208 1049.692 564.113 1051.787 Q 562.101 1053.799 559.168 1053.715 Q 546.681 1053.38 530.422 1051.703 Q 527.488 1051.368 525.728 1049.105 Q 523.968 1046.843 524.304 1043.993 Q 524.639 1041.143 526.902 1039.383 Q 529.164 1037.623 532.098 1037.875 L 532.098 1037.875 Z " fill="rgb(93,154,31)"/><path d=" M 637.027 1063.102 Q 650.269 1063.102 656.219 1068.214 Q 662.17 1073.242 662.17 1084.054 Q 662.17 1095.284 652.532 1101.821 Q 642.977 1108.359 625.294 1108.359 Q 617.583 1108.359 610.627 1107.772 Q 607.861 1107.52 606.101 1105.341 Q 604.341 1103.162 604.593 1100.397 Q 604.844 1097.631 607.023 1095.871 Q 609.202 1094.111 611.968 1094.362 Q 619.008 1094.949 625.294 1094.949 Q 634.094 1094.949 639.122 1091.932 Q 644.151 1088.831 644.151 1084.054 Q 644.151 1076.511 634.513 1076.511 Q 628.311 1076.511 617.332 1081.959 Q 610.627 1085.227 604.09 1083.886 L 603.755 1083.802 Q 600.821 1083.132 599.145 1080.701 Q 597.469 1078.271 597.972 1075.421 Q 598.056 1074.919 598.81 1070.393 Q 599.648 1065.783 599.983 1063.437 Q 600.402 1060.503 602.749 1058.66 Q 605.096 1056.732 608.113 1056.983 L 609.37 1057.067 Q 612.303 1057.319 614.063 1059.665 Q 615.907 1061.928 615.572 1064.778 Q 615.32 1066.621 614.817 1070.141 L 614.817 1070.225 L 614.985 1070.225 Q 626.886 1063.102 637.027 1063.102 L 637.027 1063.102 Z  M 616.577 1039.551 Q 630.993 1040.976 645.408 1041.227 Q 648.174 1041.311 650.101 1043.323 Q 652.113 1045.25 652.113 1048.016 Q 652.113 1050.782 650.101 1052.793 Q 648.174 1054.721 645.408 1054.637 Q 629.484 1054.385 614.901 1052.961 Q 612.136 1052.709 610.376 1050.53 Q 608.616 1048.267 608.951 1045.502 Q 609.286 1042.736 611.465 1041.06 Q 613.728 1039.3 616.577 1039.551 L 616.577 1039.551 Z " fill="rgb(93,154,31)"/><path d=" M 720.836 1063.102 Q 734.078 1063.102 740.029 1068.214 Q 745.979 1073.242 745.979 1084.054 Q 745.979 1095.284 736.341 1101.821 Q 726.787 1108.359 709.103 1108.359 Q 701.393 1108.359 694.436 1107.772 Q 691.671 1107.52 689.911 1105.341 Q 688.151 1103.162 688.402 1100.397 Q 688.653 1097.631 690.833 1095.871 Q 693.012 1094.111 695.777 1094.362 Q 702.817 1094.949 709.103 1094.949 Q 717.903 1094.949 722.931 1091.932 Q 727.96 1088.831 727.96 1084.054 Q 727.96 1076.511 718.322 1076.511 Q 712.12 1076.511 701.141 1081.959 Q 694.436 1085.227 687.899 1083.886 L 687.564 1083.802 Q 684.631 1083.132 682.954 1080.701 Q 681.278 1078.271 681.781 1075.421 Q 681.865 1074.919 682.619 1070.393 Q 683.457 1065.783 683.793 1063.437 Q 684.212 1060.503 686.558 1058.66 Q 688.905 1056.732 691.922 1056.983 L 693.179 1057.067 Q 696.113 1057.319 697.873 1059.665 Q 699.716 1061.928 699.381 1064.778 Q 699.13 1066.621 698.627 1070.141 L 698.627 1070.225 L 698.794 1070.225 Q 710.695 1063.102 720.836 1063.102 L 720.836 1063.102 Z  M 700.387 1039.551 Q 714.802 1040.976 729.217 1041.227 Q 731.983 1041.311 733.911 1043.323 Q 735.922 1045.25 735.922 1048.016 Q 735.922 1050.782 733.911 1052.793 Q 731.983 1054.721 729.217 1054.637 Q 713.293 1054.385 698.711 1052.961 Q 695.945 1052.709 694.185 1050.53 Q 692.425 1048.267 692.76 1045.502 Q 693.095 1042.736 695.274 1041.06 Q 697.537 1039.3 700.387 1039.551 L 700.387 1039.551 Z " fill="rgb(93,154,31)"/><path d=" M 790.817 1049.692 Q 795.51 1049.692 797.689 1049.692 Q 799.868 1049.692 802.718 1050.279 Q 805.651 1050.782 806.573 1051.117 Q 807.579 1051.452 809.004 1053.296 Q 810.428 1055.14 810.68 1056.481 Q 810.931 1057.822 811.35 1061.593 Q 811.769 1065.281 811.769 1068.214 Q 811.769 1071.147 811.769 1077.349 Q 811.769 1094.027 807.663 1101.235 Q 803.64 1108.359 795.846 1108.359 Q 791.404 1108.359 784.028 1106.766 Q 781.263 1106.179 779.838 1103.665 Q 778.413 1101.151 779.084 1098.301 Q 779.754 1095.536 782.185 1094.111 Q 784.699 1092.602 787.465 1093.273 Q 791.068 1094.111 792.493 1094.111 Q 795.846 1094.111 795.846 1074.835 Q 795.846 1066.119 795.175 1064.61 Q 794.588 1063.102 790.817 1063.102 L 785.202 1063.102 Q 784.28 1063.102 784.112 1064.023 Q 780.006 1082.545 772.966 1102.743 Q 772.044 1105.425 769.446 1106.682 Q 766.848 1108.023 764.166 1107.101 Q 761.484 1106.179 760.227 1103.665 Q 759.053 1101.235 759.891 1098.637 Q 765.59 1081.54 769.613 1063.94 Q 769.781 1063.102 768.859 1063.102 L 765.674 1063.102 Q 762.909 1063.102 760.897 1061.174 Q 758.969 1059.162 758.969 1056.397 Q 758.969 1053.631 760.897 1051.703 Q 762.909 1049.692 765.674 1049.692 L 771.625 1049.692 Q 772.63 1049.692 772.798 1048.686 Q 773.888 1042.987 774.223 1040.641 Q 774.726 1037.707 776.988 1035.863 Q 779.335 1034.02 782.268 1034.187 Q 785.118 1034.355 786.878 1036.534 Q 788.638 1038.713 788.219 1041.479 Q 787.884 1043.909 787.046 1048.77 Q 786.962 1049.105 787.213 1049.441 Q 787.465 1049.692 787.884 1049.692 L 790.817 1049.692 Z  M 827.525 1051.368 Q 832.051 1064.778 835.99 1079.78 Q 836.745 1082.545 835.152 1085.06 Q 833.644 1087.574 830.794 1088.244 L 830.124 1088.412 Q 827.274 1089.082 824.676 1087.574 Q 822.162 1086.065 821.407 1083.132 Q 817.468 1068.633 812.943 1055.14 Q 812.021 1052.374 813.362 1049.86 Q 814.703 1047.262 817.468 1046.591 L 818.306 1046.423 Q 821.24 1045.669 823.922 1047.094 Q 826.604 1048.519 827.525 1051.368 L 827.525 1051.368 Z " fill="rgb(93,154,31)"/><path d=" M 859.205 1088.412 Q 859.792 1089.082 866.329 1097.296 Q 868.005 1099.475 867.586 1102.157 Q 867.167 1104.755 864.988 1106.263 Q 862.725 1107.856 859.96 1107.437 Q 857.278 1107.018 855.518 1104.839 Q 853.758 1102.659 848.897 1096.793 Q 847.137 1094.698 847.304 1091.932 Q 847.556 1089.166 849.651 1087.406 Q 851.83 1085.646 854.596 1085.981 Q 857.445 1086.233 859.205 1088.412 L 859.205 1088.412 Z " fill="rgb(93,154,31)"/><path d=" M 957.514 1056.145 Q 957.598 1055.81 957.346 1055.642 Q 957.095 1055.475 956.759 1055.559 Q 949.552 1057.989 945.613 1063.688 Q 941.674 1069.387 941.674 1077.349 Q 941.674 1082.126 943.518 1086.484 Q 945.361 1090.759 946.702 1090.759 Q 948.043 1090.759 949.636 1087.658 Q 951.312 1084.473 953.407 1076.343 Q 955.586 1068.13 957.514 1056.145 L 957.514 1056.145 Z  M 967.655 1039.635 Q 982.489 1039.635 992.211 1049.105 Q 1002.016 1058.492 1002.016 1073.159 Q 1002.016 1086.149 996.234 1094.781 Q 990.535 1103.33 980.561 1106.263 Q 977.712 1107.101 975.197 1105.341 Q 972.683 1103.581 971.929 1100.564 L 971.761 1100.229 Q 971.091 1097.547 972.599 1095.033 Q 974.192 1092.519 976.957 1091.261 Q 986.931 1086.652 986.931 1073.159 Q 986.931 1066.621 983.495 1061.761 Q 980.142 1056.9 974.443 1054.972 Q 973.521 1054.637 973.354 1055.642 Q 971.091 1070.728 968.325 1080.785 Q 965.559 1090.842 962.123 1096.29 Q 958.687 1101.654 955.083 1103.749 Q 951.479 1105.844 946.702 1105.844 Q 939.243 1105.844 932.874 1097.547 Q 926.588 1089.166 926.588 1077.349 Q 926.588 1060.587 937.902 1050.111 Q 949.217 1039.635 967.655 1039.635 L 967.655 1039.635 Z " fill="rgb(93,154,31)"/><path d=" M 1083.395 1036.45 Q 1085.239 1039.803 1086.161 1041.563 Q 1087.083 1043.323 1086.412 1045.25 Q 1085.742 1047.094 1083.898 1048.016 Q 1082.054 1048.938 1080.127 1048.351 Q 1078.199 1047.681 1077.277 1045.837 Q 1076.439 1044.161 1074.595 1040.808 Q 1073.673 1039.048 1074.176 1037.121 Q 1074.763 1035.109 1076.607 1034.271 Q 1078.45 1033.349 1080.378 1034.02 Q 1082.39 1034.606 1083.395 1036.45 L 1083.395 1036.45 Z  M 1082.809 1064.526 Q 1085.071 1066.454 1085.49 1069.387 Q 1085.91 1072.237 1084.15 1074.667 Q 1082.473 1077.014 1079.54 1077.349 Q 1076.69 1077.684 1074.511 1075.841 Q 1072.165 1073.829 1071.075 1072.823 Q 1070.991 1072.74 1070.908 1072.823 L 1070.908 1072.991 Q 1073.254 1079.696 1073.254 1086.568 Q 1073.254 1096.374 1065.041 1102.827 Q 1056.911 1109.197 1043.083 1109.197 Q 1029.841 1109.197 1021.963 1102.073 Q 1014.169 1094.865 1014.169 1082.378 Q 1014.169 1075.841 1017.856 1068.381 Q 1021.544 1060.922 1027.913 1054.972 Q 1027.997 1054.888 1027.997 1054.804 Q 1027.997 1054.721 1027.913 1054.721 L 1019.616 1054.721 Q 1016.851 1054.721 1014.839 1052.793 Q 1012.912 1050.781 1012.912 1048.016 Q 1012.912 1045.25 1014.839 1043.322 Q 1016.851 1041.311 1019.616 1041.311 L 1037.635 1041.311 Q 1040.569 1041.311 1042.664 1043.406 Q 1044.759 1045.502 1044.759 1048.435 Q 1044.759 1054.469 1039.395 1060.252 Q 1035.121 1064.778 1032.607 1070.56 Q 1030.093 1076.26 1030.093 1081.54 Q 1030.093 1088.412 1033.613 1092.099 Q 1037.132 1095.787 1043.083 1095.787 Q 1050.123 1095.787 1053.894 1092.099 Q 1057.75 1088.412 1057.75 1081.54 Q 1057.75 1074.919 1057.163 1071.315 Q 1056.576 1067.627 1054.146 1061.425 Q 1052.972 1058.408 1053.727 1055.307 Q 1054.481 1052.206 1056.911 1050.111 Q 1059.51 1047.848 1063.113 1048.435 Q 1063.365 1048.519 1063.532 1048.267 Q 1063.7 1048.016 1063.532 1047.764 Q 1063.197 1047.094 1062.443 1045.753 Q 1061.689 1044.328 1061.353 1043.658 Q 1060.431 1041.898 1061.018 1040.054 Q 1061.605 1038.126 1063.365 1037.204 Q 1065.209 1036.282 1067.136 1036.869 Q 1069.064 1037.456 1069.986 1039.3 Q 1070.405 1040.138 1071.243 1041.814 Q 1072.165 1043.406 1072.584 1044.244 Q 1073.506 1046.004 1072.835 1047.932 Q 1072.249 1049.86 1070.489 1050.698 Q 1070.07 1050.949 1068.896 1051.117 Q 1068.645 1051.117 1068.561 1051.368 Q 1068.477 1051.62 1068.645 1051.787 Q 1075.517 1058.576 1082.809 1064.526 L 1082.809 1064.526 Z " fill="rgb(93,154,31)"/><path d=" M 1125.132 1056.145 Q 1125.216 1055.81 1124.965 1055.642 Q 1124.713 1055.475 1124.378 1055.559 Q 1117.17 1057.989 1113.231 1063.688 Q 1109.292 1069.387 1109.292 1077.349 Q 1109.292 1082.126 1111.136 1086.484 Q 1112.98 1090.759 1114.321 1090.759 Q 1115.662 1090.759 1117.254 1087.658 Q 1118.93 1084.473 1121.026 1076.343 Q 1123.205 1068.13 1125.132 1056.145 L 1125.132 1056.145 Z  M 1135.273 1039.635 Q 1150.107 1039.635 1159.829 1049.105 Q 1169.635 1058.492 1169.635 1073.159 Q 1169.635 1086.149 1163.852 1094.781 Q 1158.153 1103.33 1148.18 1106.263 Q 1145.33 1107.101 1142.816 1105.341 Q 1140.302 1103.581 1139.547 1100.564 L 1139.38 1100.229 Q 1138.709 1097.547 1140.218 1095.033 Q 1141.81 1092.519 1144.576 1091.261 Q 1154.549 1086.652 1154.549 1073.159 Q 1154.549 1066.621 1151.113 1061.761 Q 1147.761 1056.9 1142.062 1054.972 Q 1141.14 1054.637 1140.972 1055.642 Q 1138.709 1070.728 1135.944 1080.785 Q 1133.178 1090.842 1129.742 1096.29 Q 1126.306 1101.654 1122.702 1103.749 Q 1119.098 1105.844 1114.321 1105.844 Q 1106.862 1105.844 1100.492 1097.547 Q 1094.207 1089.166 1094.207 1077.349 Q 1094.207 1060.587 1105.521 1050.111 Q 1116.835 1039.635 1135.273 1039.635 L 1135.273 1039.635 Z " fill="rgb(93,154,31)"/><path d=" M 1251.014 1036.45 Q 1252.858 1039.803 1253.779 1041.563 Q 1254.701 1043.323 1254.031 1045.25 Q 1253.361 1047.094 1251.517 1048.016 Q 1249.673 1048.938 1247.745 1048.351 Q 1245.818 1047.681 1244.896 1045.837 Q 1244.058 1044.161 1242.214 1040.808 Q 1241.292 1039.048 1241.795 1037.121 Q 1242.381 1035.109 1244.225 1034.271 Q 1246.069 1033.349 1247.997 1034.02 Q 1250.008 1034.606 1251.014 1036.45 L 1251.014 1036.45 Z  M 1250.427 1064.526 Q 1252.69 1066.454 1253.109 1069.387 Q 1253.528 1072.237 1251.768 1074.667 Q 1250.092 1077.014 1247.159 1077.349 Q 1244.309 1077.684 1242.13 1075.841 Q 1239.783 1073.829 1238.694 1072.823 Q 1238.61 1072.74 1238.526 1072.823 L 1238.526 1072.991 Q 1240.873 1079.696 1240.873 1086.568 Q 1240.873 1096.374 1232.66 1102.827 Q 1224.53 1109.197 1210.702 1109.197 Q 1197.46 1109.197 1189.582 1102.073 Q 1181.787 1094.865 1181.787 1082.378 Q 1181.787 1075.841 1185.475 1068.381 Q 1189.163 1060.922 1195.532 1054.972 Q 1195.616 1054.888 1195.616 1054.804 Q 1195.616 1054.721 1195.532 1054.721 L 1187.235 1054.721 Q 1184.469 1054.721 1182.458 1052.793 Q 1180.53 1050.781 1180.53 1048.016 Q 1180.53 1045.25 1182.458 1043.322 Q 1184.469 1041.311 1187.235 1041.311 L 1205.254 1041.311 Q 1208.187 1041.311 1210.283 1043.406 Q 1212.378 1045.502 1212.378 1048.435 Q 1212.378 1054.469 1207.014 1060.252 Q 1202.74 1064.778 1200.225 1070.56 Q 1197.711 1076.26 1197.711 1081.54 Q 1197.711 1088.412 1201.231 1092.099 Q 1204.751 1095.787 1210.702 1095.787 Q 1217.742 1095.787 1221.513 1092.099 Q 1225.368 1088.412 1225.368 1081.54 Q 1225.368 1074.919 1224.782 1071.315 Q 1224.195 1067.627 1221.764 1061.425 Q 1220.591 1058.408 1221.345 1055.307 Q 1222.1 1052.206 1224.53 1050.111 Q 1227.128 1047.848 1230.732 1048.435 Q 1230.983 1048.519 1231.151 1048.267 Q 1231.319 1048.016 1231.151 1047.764 Q 1230.816 1047.094 1230.062 1045.753 Q 1229.307 1044.328 1228.972 1043.658 Q 1228.05 1041.898 1228.637 1040.054 Q 1229.223 1038.126 1230.983 1037.204 Q 1232.827 1036.282 1234.755 1036.869 Q 1236.682 1037.456 1237.604 1039.3 Q 1238.023 1040.138 1238.861 1041.814 Q 1239.783 1043.406 1240.202 1044.244 Q 1241.124 1046.004 1240.454 1047.932 Q 1239.867 1049.86 1238.107 1050.698 Q 1237.688 1050.949 1236.515 1051.117 Q 1236.263 1051.117 1236.18 1051.368 Q 1236.095 1051.62 1236.264 1051.787 Q 1243.136 1058.576 1250.428 1064.526 L 1250.427 1064.526 Z " fill="rgb(93,154,31)"/><path d=" M 1307.082 1090.34 L 1307.082 1090.004 Q 1307.082 1088.999 1306.16 1088.831 Q 1305.322 1088.663 1303.73 1088.663 Q 1297.863 1088.663 1297.863 1092.016 Q 1297.863 1093.776 1298.953 1094.614 Q 1300.126 1095.368 1302.892 1095.368 Q 1307.082 1095.368 1307.082 1090.34 L 1307.082 1090.34 Z  M 1323.09 1071.482 Q 1322.168 1071.482 1322.168 1072.404 L 1322.168 1080.869 Q 1322.168 1081.875 1322.922 1082.378 Q 1327.029 1085.479 1332.56 1091.178 Q 1334.572 1093.273 1334.488 1096.122 Q 1334.404 1098.972 1332.393 1100.983 Q 1330.381 1102.995 1327.615 1102.911 Q 1324.85 1102.827 1322.922 1100.816 L 1321.497 1099.391 Q 1320.827 1098.72 1320.408 1099.642 Q 1318.396 1104 1314.29 1106.347 Q 1310.183 1108.778 1304.568 1108.778 Q 1283.616 1108.778 1283.616 1092.016 Q 1283.616 1075.673 1304.568 1075.673 L 1306.16 1075.673 Q 1307.082 1075.673 1307.082 1074.835 L 1307.082 1072.404 Q 1307.082 1071.482 1306.16 1071.482 L 1293.505 1071.482 Q 1290.823 1071.482 1288.896 1069.555 Q 1286.968 1067.627 1286.968 1064.945 Q 1286.968 1062.263 1288.896 1060.42 Q 1290.823 1058.492 1293.505 1058.492 L 1306.16 1058.492 Q 1307.082 1058.492 1307.082 1057.57 L 1307.082 1054.385 Q 1307.082 1053.463 1306.16 1053.463 L 1293.673 1053.463 Q 1290.907 1053.463 1288.896 1051.536 Q 1286.968 1049.524 1286.968 1046.759 Q 1286.968 1043.993 1288.896 1042.065 Q 1290.907 1040.054 1293.673 1040.054 L 1328.873 1040.054 Q 1331.638 1040.054 1333.566 1042.065 Q 1335.577 1043.993 1335.577 1046.759 Q 1335.577 1049.524 1333.566 1051.536 Q 1331.638 1053.463 1328.873 1053.463 L 1323.09 1053.463 Q 1322.168 1053.463 1322.168 1054.385 L 1322.168 1057.57 Q 1322.168 1058.492 1323.09 1058.492 L 1329.04 1058.492 Q 1331.722 1058.492 1333.65 1060.42 Q 1335.577 1062.263 1335.577 1064.945 Q 1335.577 1067.627 1333.65 1069.555 Q 1331.722 1071.482 1329.04 1071.482 L 1323.09 1071.482 Z  M 1275.402 1038.797 Q 1278.252 1039.132 1279.844 1041.479 Q 1281.52 1043.742 1281.017 1046.507 Q 1278.587 1059.33 1278.587 1073.159 Q 1278.587 1086.987 1281.017 1099.81 Q 1281.52 1102.576 1279.844 1104.839 Q 1278.252 1107.185 1275.402 1107.52 L 1274.732 1107.52 Q 1271.715 1107.856 1269.2 1106.096 Q 1266.686 1104.419 1266.099 1101.402 Q 1263.501 1088.328 1263.501 1073.159 Q 1263.501 1057.989 1266.099 1044.915 Q 1266.686 1041.898 1269.2 1040.222 Q 1271.715 1038.462 1274.732 1038.797 L 1275.402 1038.797 Z " fill="rgb(93,154,31)"/><path d=" M 1401.2 1044.915 Q 1404.217 1044.077 1406.983 1045.418 Q 1409.749 1046.675 1410.838 1049.524 Q 1418.213 1068.717 1419.219 1092.016 Q 1419.303 1094.949 1417.208 1097.044 Q 1415.196 1099.139 1412.263 1099.139 L 1410.587 1099.139 Q 1407.653 1099.139 1405.558 1097.044 Q 1403.463 1094.949 1403.295 1091.932 Q 1402.29 1072.321 1395.92 1053.882 Q 1394.998 1051.201 1396.255 1048.603 Q 1397.512 1046.004 1400.278 1045.25 L 1401.2 1044.915 Z  M 1388.377 1079.025 Q 1391.227 1080.115 1392.484 1082.797 Q 1393.741 1085.395 1392.484 1088.077 Q 1388.042 1097.715 1381.84 1103.079 Q 1375.722 1108.359 1369.939 1108.359 Q 1362.229 1108.359 1355.608 1098.385 Q 1348.987 1088.412 1348.987 1073.997 Q 1348.987 1062.515 1351.669 1050.698 Q 1352.339 1047.681 1354.937 1046.004 Q 1357.619 1044.244 1360.72 1044.58 L 1361.977 1044.747 Q 1364.743 1045.083 1366.335 1047.429 Q 1368.012 1049.692 1367.425 1052.458 Q 1364.911 1064.61 1364.911 1073.997 Q 1364.911 1077.936 1365.497 1081.54 Q 1366.168 1085.06 1367.173 1087.406 Q 1368.179 1089.669 1369.185 1091.094 Q 1370.274 1092.435 1371.196 1092.435 Q 1372.454 1092.435 1374.465 1090.088 Q 1376.476 1087.658 1378.739 1083.132 Q 1380.08 1080.45 1382.846 1079.193 Q 1385.695 1077.936 1388.377 1079.025 L 1388.377 1079.025 Z " fill="rgb(93,154,31)"/><path d=" M 1486.602 1095.62 Q 1488.948 1097.38 1489.284 1100.313 Q 1489.619 1103.246 1487.691 1105.425 L 1486.853 1106.263 Q 1484.926 1108.526 1481.908 1108.861 Q 1478.975 1109.197 1476.628 1107.437 Q 1466.404 1099.81 1452.743 1090.423 Q 1444.529 1084.724 1441.429 1082.126 Q 1438.328 1079.444 1437.238 1077.349 Q 1436.148 1075.17 1436.148 1071.482 Q 1436.148 1065.951 1438.747 1063.102 Q 1441.429 1060.252 1452.575 1053.212 Q 1462.297 1047.094 1474.701 1038.629 Q 1477.131 1036.953 1480.065 1037.456 Q 1482.998 1037.959 1484.758 1040.389 L 1485.596 1041.395 Q 1487.356 1043.825 1486.853 1046.675 Q 1486.35 1049.524 1483.92 1051.201 Q 1473.611 1058.324 1462.632 1064.945 Q 1457.604 1068.046 1456.095 1069.303 Q 1454.587 1070.477 1454.587 1071.482 Q 1454.587 1072.488 1455.844 1073.661 Q 1457.185 1074.751 1462.129 1078.103 Q 1472.941 1085.227 1486.602 1095.62 Z " fill="rgb(93,154,31)"/></g></g></g></svg>