<?xml version="1.0" encoding="UTF-8" standalone="no"?>
<!-- Created with Inkscape (http://www.inkscape.org/) -->

<svg
   xmlns:dc="http://purl.org/dc/elements/1.1/"
   xmlns:cc="http://creativecommons.org/ns#"
   xmlns:rdf="http://www.w3.org/1999/02/22-rdf-syntax-ns#"
   xmlns:svg="http://www.w3.org/2000/svg"
   xmlns="http://www.w3.org/2000/svg"
   xmlns:sodipodi="http://sodipodi.sourceforge.net/DTD/sodipodi-0.dtd"
   xmlns:inkscape="http://www.inkscape.org/namespaces/inkscape"
   width="1578.6666"
   height="1578.6666"
   viewBox="0 0 1480 1480"
   id="svg2"
   version="1.1"
   inkscape:version="0.92.3 (2405546, 2018-03-11)"
   sodipodi:docname="niconico-hoik.trans.svg">
  <defs
     id="defs4" />
  <sodipodi:namedview
     id="base"
     pagecolor="#ffffff"
     bordercolor="#666666"
     borderopacity="1.0"
     inkscape:pageopacity="0.0"
     inkscape:pageshadow="2"
     inkscape:zoom="0.54349664"
     inkscape:cx="789.33331"
     inkscape:cy="789.33331"
     inkscape:document-units="px"
     inkscape:current-layer="g4529"
     showgrid="false"
     inkscape:window-width="1842"
     inkscape:window-height="1051"
     inkscape:window-x="-9"
     inkscape:window-y="-9"
     inkscape:window-maximized="1"
     units="px" />
  <metadata
     id="metadata7">
    <rdf:RDF>
      <cc:Work
         rdf:about="">
        <dc:format>image/svg+xml</dc:format>
        <dc:type
           rdf:resource="http://purl.org/dc/dcmitype/StillImage" />
        <dc:title></dc:title>
      </cc:Work>
    </rdf:RDF>
  </metadata>
  <g
     inkscape:label="レイヤー 1"
     inkscape:groupmode="layer"
     id="layer1"
     transform="translate(0,427.63784)">
    <g
       id="g4529">
      <g
         transform="matrix(2.5655984,0,0,2.5655984,151.25196,-511.05718)"
         style="opacity:1;fill:#ffc30c;fill-opacity:1"
         id="g4176">
        <path
           style="opacity:1;fill:#ffc30c;fill-opacity:1;stroke:none;stroke-width:14.03800011;stroke-linejoin:round;stroke-miterlimit:4;stroke-dasharray:none;stroke-opacity:1"
           d="m 423.15047,319.43747 a 22.552542,22.552542 0 0 1 -22.55254,22.55254 22.552542,22.552542 0 0 1 -22.55254,-22.55254 22.552542,22.552542 0 0 1 22.55254,-22.55254 22.552542,22.552542 0 0 1 22.55254,22.55254 z"
           id="path4257-53" />
        <path
           style="opacity:1;fill:#ffc30c;fill-opacity:1;stroke:none;stroke-width:14.03800011;stroke-linejoin:round;stroke-miterlimit:4;stroke-dasharray:none;stroke-opacity:1"
           d="m 313.70093,200.05057 a 18.158049,18.158049 0 0 1 -18.15805,18.15805 18.158049,18.158049 0 0 1 -18.15805,-18.15805 18.158049,18.158049 0 0 1 18.15805,-18.15805 18.158049,18.158049 0 0 1 18.15805,18.15805 z"
           id="path4257-5-6" />
        <path
           style="opacity:1;fill:#ffc30c;fill-opacity:1;stroke:none;stroke-width:14.03800011;stroke-linejoin:round;stroke-miterlimit:4;stroke-dasharray:none;stroke-opacity:1"
           d="m 159.16128,366.42191 a 13.031139,13.031139 0 0 1 -13.03114,13.03113 13.031139,13.031139 0 0 1 -13.03114,-13.03113 13.031139,13.031139 0 0 1 13.03114,-13.03114 13.031139,13.031139 0 0 1 13.03114,13.03114 z"
           id="path4257-5-5-0" />
        <path
           style="opacity:1;fill:#ffc30c;fill-opacity:1;stroke:none;stroke-width:14.03800011;stroke-linejoin:round;stroke-miterlimit:4;stroke-dasharray:none;stroke-opacity:1"
           d="m 337.98723,432.34717 a 8.6366463,8.6366463 0 0 1 -8.63664,8.63664 8.6366463,8.6366463 0 0 1 -8.63665,-8.63664 8.6366463,8.6366463 0 0 1 8.63665,-8.63665 8.6366463,8.6366463 0 0 1 8.63664,8.63665 z"
           id="path4257-5-5-6-8" />
        <path
           style="opacity:1;fill:#ffc30c;fill-opacity:1;stroke:none;stroke-width:14.03800011;stroke-linejoin:round;stroke-miterlimit:4;stroke-dasharray:none;stroke-opacity:1"
           d="m 69.074177,307.71561 a 4.2421536,4.2421536 0 0 1 -4.242153,4.24215 4.2421536,4.2421536 0 0 1 -4.242154,-4.24215 4.2421536,4.2421536 0 0 1 4.242154,-4.24216 4.2421536,4.2421536 0 0 1 4.242153,4.24216 z"
           id="path4257-5-5-6-0-1" />
      </g>
      <g
         aria-label="ニコニコ保育園
和泉中央園"
         style="font-style:normal;font-variant:normal;font-weight:900;font-stretch:normal;font-size:30.78717995px;line-height:0%;font-family:'Rounded-X M+ 1c';-inkscape-font-specification:'Rounded-X M+ 1c, Heavy';text-align:center;letter-spacing:0px;word-spacing:0px;writing-mode:lr-tb;text-anchor:middle;opacity:1;fill:#303379;fill-opacity:1;stroke:none;stroke-width:2.56559849px;stroke-linecap:butt;stroke-linejoin:miter;stroke-opacity:1"
         id="text8483-8">
        <path
           d="m 358.40461,83.044277 q 4.82653,0 8.27406,3.447522 3.44752,3.447522 3.44752,8.274054 v 2.068513 q 0,4.826534 -3.44752,8.274054 -3.44753,3.44752 -8.27406,3.44752 h -70.32945 q -4.82654,0 -8.27406,-3.44752 -3.44752,-3.44752 -3.44752,-8.274054 v -2.068513 q 0,-4.826532 3.44752,-8.274054 3.44752,-3.447522 8.27406,-3.447522 z m 9.65306,76.534993 q 4.82654,0 8.27406,3.44753 3.44752,3.44752 3.44752,8.27405 v 2.06851 q 0,4.82653 -3.44752,8.27406 -3.44752,3.44752 -8.27406,3.44752 h -89.63558 q -4.82653,0 -8.27405,-3.44752 -3.44752,-3.44753 -3.44752,-8.27406 v -2.06851 q 0,-4.82653 3.44752,-8.27405 3.44752,-3.44753 8.27405,-3.44753 z"
           style="font-style:normal;font-variant:normal;font-weight:900;font-stretch:normal;font-size:137.90089417px;line-height:129.99999523%;font-family:'Rounded-X M+ 1c';-inkscape-font-specification:'Rounded-X M+ 1c, Heavy';text-align:center;writing-mode:lr-tb;text-anchor:middle;fill:#003586;fill-opacity:1;stroke-width:2.56559849px"
           id="path890" />
        <path
           d="m 499.06352,83.044277 q 4.82653,0 8.27406,3.447522 3.44752,3.447522 3.44752,8.274054 v 78.603507 q 0,4.82653 -3.44752,8.27406 -3.44753,3.44752 -8.27406,3.44752 h -78.60351 q -4.82653,0 -8.27405,-3.44752 -3.44752,-3.44753 -3.44752,-8.27406 0,-4.82653 3.44752,-8.27405 3.44752,-3.44752 8.27405,-3.44752 h 62.60701 q 1.51691,0 1.51691,-1.51691 v -52.12654 q 0,-1.51691 -1.51691,-1.51691 h -62.60701 q -4.82653,0 -8.27405,-3.44752 -3.44752,-3.447526 -3.44752,-8.274057 0,-4.826532 3.44752,-8.274054 3.44752,-3.447522 8.27405,-3.447522 z"
           style="font-style:normal;font-variant:normal;font-weight:900;font-stretch:normal;font-size:137.90089417px;line-height:129.99999523%;font-family:'Rounded-X M+ 1c';-inkscape-font-specification:'Rounded-X M+ 1c, Heavy';text-align:center;writing-mode:lr-tb;text-anchor:middle;fill:#003586;fill-opacity:1;stroke-width:2.56559849px"
           id="path892" />
        <path
           d="m 634.2064,83.044277 q 4.82653,0 8.27405,3.447522 3.44753,3.447522 3.44753,8.274054 v 2.068513 q 0,4.826534 -3.44753,8.274054 -3.44752,3.44752 -8.27405,3.44752 h -70.32946 q -4.82653,0 -8.27405,-3.44752 -3.44752,-3.44752 -3.44752,-8.274054 v -2.068513 q 0,-4.826532 3.44752,-8.274054 3.44752,-3.447522 8.27405,-3.447522 z m 9.65306,76.534993 q 4.82653,0 8.27406,3.44753 3.44752,3.44752 3.44752,8.27405 v 2.06851 q 0,4.82653 -3.44752,8.27406 -3.44753,3.44752 -8.27406,3.44752 h -89.63558 q -4.82653,0 -8.27405,-3.44752 -3.44752,-3.44753 -3.44752,-8.27406 v -2.06851 q 0,-4.82653 3.44752,-8.27405 3.44752,-3.44753 8.27405,-3.44753 z"
           style="font-style:normal;font-variant:normal;font-weight:900;font-stretch:normal;font-size:137.90089417px;line-height:129.99999523%;font-family:'Rounded-X M+ 1c';-inkscape-font-specification:'Rounded-X M+ 1c, Heavy';text-align:center;writing-mode:lr-tb;text-anchor:middle;fill:#003586;fill-opacity:1;stroke-width:2.56559849px"
           id="path894" />
        <path
           d="m 774.86533,83.044277 q 4.82653,0 8.27405,3.447522 3.44752,3.447522 3.44752,8.274054 v 78.603507 q 0,4.82653 -3.44752,8.27406 -3.44752,3.44752 -8.27405,3.44752 h -78.60351 q -4.82653,0 -8.27406,-3.44752 -3.44752,-3.44753 -3.44752,-8.27406 0,-4.82653 3.44752,-8.27405 3.44753,-3.44752 8.27406,-3.44752 h 62.607 q 1.51691,0 1.51691,-1.51691 v -52.12654 q 0,-1.51691 -1.51691,-1.51691 h -62.607 q -4.82653,0 -8.27406,-3.44752 -3.44752,-3.447526 -3.44752,-8.274057 0,-4.826532 3.44752,-8.274054 3.44753,-3.447522 8.27406,-3.447522 z"
           style="font-style:normal;font-variant:normal;font-weight:900;font-stretch:normal;font-size:137.90089417px;line-height:129.99999523%;font-family:'Rounded-X M+ 1c';-inkscape-font-specification:'Rounded-X M+ 1c, Heavy';text-align:center;writing-mode:lr-tb;text-anchor:middle;fill:#003586;fill-opacity:1;stroke-width:2.56559849px"
           id="path896" />
        <path
           d="m 839.81663,72.012205 q 4.82653,0.827405 7.58455,4.964432 2.89592,3.999126 1.79271,8.825657 -2.48221,11.997378 -6.89504,23.029446 -0.5516,1.24111 -0.5516,2.89592 v 74.05278 q 0,4.82653 -3.44753,8.27406 -3.44752,3.44752 -8.27405,3.44752 h -0.6895 q -4.82654,0 -8.27406,-3.44752 -3.44752,-3.44753 -3.44752,-8.27406 v -38.47435 q 0,-0.2758 -0.2758,-0.4137 -0.1379,-0.1379 -0.41371,0 -1.65481,2.34432 -4.41282,1.65481 -2.62012,-0.8274 -3.03382,-3.58542 l -1.37901,-9.65306 q -1.37901,-10.61837 4.82653,-21.37464 7.58455,-13.23849 12.41108,-32.544614 1.24111,-4.826531 5.24023,-7.446648 4.13703,-2.758018 8.96356,-1.930613 z m 92.94521,93.083105 q 4.13702,3.17172 5.37813,8.13615 1.37901,4.82653 -0.6895,9.37726 l -0.41371,0.82741 q -1.93061,3.99912 -6.34344,4.96443 -4.27493,0.96531 -7.44665,-2.06851 -8.96355,-8.27406 -16.5481,-18.06502 -0.1379,-0.2758 -0.55161,-0.1379 -0.2758,0.1379 -0.2758,0.5516 v 17.09971 q 0,4.82653 -3.44752,8.27406 -3.44752,3.44752 -8.27405,3.44752 h -2.06852 q -4.82653,0 -8.27405,-3.44752 -3.44752,-3.44753 -3.44752,-8.27406 v -17.09971 q 0,-0.4137 -0.41371,-0.4137 -0.4137,-0.1379 -0.5516,0.1379 -7.99825,10.20467 -16.41021,18.06502 -3.30962,3.03382 -7.72245,2.06851 -4.41283,-0.8274 -6.48134,-4.96443 l -0.96531,-1.79271 q -2.20641,-4.41283 -0.9653,-9.23936 1.24111,-4.96444 5.24023,-7.86035 9.10146,-6.75715 14.6175,-12.27318 0.2758,-0.27581 0.1379,-0.68951 -0.1379,-0.4137 -0.55161,-0.4137 h -9.10145 q -4.13703,0 -7.03295,-2.89592 -2.89592,-3.03382 -2.89592,-7.17085 0,-4.13702 2.89592,-7.03294 2.89592,-2.89592 7.03295,-2.89592 h 21.65044 q 1.51691,0 1.51691,-1.51691 v -3.17172 q 0,-1.51691 -1.51691,-1.51691 h -1.24111 -13.10059 q -4.82653,0 -8.27405,-3.44752 -3.44752,-3.44753 -3.44752,-8.27406 V 84.423286 q 0,-4.826532 3.44752,-8.274054 3.44752,-3.447522 8.27405,-3.447522 h 57.91838 q 4.82653,0 8.27405,3.447522 3.44752,3.447522 3.44752,8.274054 v 28.959184 q 0,4.82653 -3.44752,8.27406 -3.44752,3.44752 -8.27405,3.44752 h -15.0312 q -1.51691,0 -1.51691,1.51691 v 3.17172 q 0,1.51691 1.51691,1.51691 h 20.82304 q 4.13702,0 7.03294,2.89592 3.03382,2.89592 3.03382,7.03294 0,4.13703 -3.03382,7.17085 -2.89592,2.89592 -7.03294,2.89592 h -9.79097 q -0.4137,0 -0.5516,0.5516 0,0.41371 0.2758,0.68951 6.48134,6.34344 14.6175,12.54898 z m -53.64345,-59.29739 h 28.68338 q 1.51691,0 1.51691,-1.51691 V 94.214249 q 0,-1.51691 -1.51691,-1.51691 h -28.68338 q -1.51691,0 -1.51691,1.51691 v 10.066761 q 0,1.51691 1.51691,1.51691 z"
           style="font-style:normal;font-variant:normal;font-weight:900;font-stretch:normal;font-size:137.90089417px;line-height:129.99999523%;font-family:'Rounded-X M+ 1c';-inkscape-font-specification:'Rounded-X M+ 1c, Heavy';text-align:center;writing-mode:lr-tb;text-anchor:middle;fill:#003586;fill-opacity:1;stroke-width:2.56559849px"
           id="path898" />
        <path
           d="m 1066.5257,76.838736 q 3.9991,0 6.7571,2.895919 2.896,2.758018 2.896,6.757144 0,3.999126 -2.896,6.895045 -2.758,2.758018 -6.7571,2.758018 h -9.3773 q -0.4137,0 -0.6895,0.413702 -0.2758,0.413703 0,0.689505 7.4467,9.101461 13.2385,17.513411 2.6201,3.72333 1.2411,7.99825 -1.379,4.13703 -5.6539,5.79184 l -1.1032,0.4137 q -1.2411,0.55161 -0.4137,1.65482 2.758,3.17172 2.758,7.58454 v 28.95919 q 0,6.48134 -0.2758,10.34257 -0.2758,3.86122 -1.2411,7.72245 -0.8274,3.86122 -2.4822,5.79184 -1.5169,2.06851 -4.4129,3.72332 -2.8959,1.65481 -7.0329,2.20642 -4.137,0.5516 -10.0668,0.5516 -6.2055,0 -12.549,-0.2758 -3.8612,-0.1379 -6.4813,-2.89592 -2.6201,-2.62012 -2.758,-6.48134 -0.1379,-3.58543 2.4822,-6.06764 2.6201,-2.62012 6.2055,-2.48222 8.2741,0.2758 9.6531,0.2758 2.0685,0 2.3443,-0.2758 0.4137,-0.4137 0.4137,-2.48222 v -0.5516 q 0,-1.51691 -1.5169,-1.51691 h -52.12653 q -1.51691,0 -1.51691,1.51691 v 9.51516 q 0,4.82653 -3.44752,8.27406 -3.44752,3.44752 -8.27406,3.44752 h -2.75801 q -4.82654,0 -8.27406,-3.44752 -3.44752,-3.44753 -3.44752,-8.27406 v -47.57581 q 0,-4.82653 3.44752,-8.27405 3.44752,-3.44752 8.27406,-3.44752 h 76.67293 q 0.4137,0 0.5516,-0.2758 0.2758,-0.41371 0,-0.68951 -0.6895,-0.6895 -1.5169,-2.06851 -0.2758,-0.55161 -1.1032,-1.51691 -0.8275,-1.10321 -1.1033,-1.65481 -0.8274,-1.37901 -2.4822,-1.10321 -39.3017,3.17172 -77.63818,4.27493 -3.86122,0.1379 -6.75714,-2.48222 -2.89592,-2.62011 -3.17172,-6.61924 -0.2758,-3.86123 2.20641,-6.61924 2.62012,-2.75802 6.48135,-2.89592 l 11.58367,-0.4137 q 1.65481,0 2.34432,-1.24111 0.4137,-0.82741 1.379,-2.75802 0.96531,-1.930613 1.51691,-2.758019 0.27581,-0.551603 0,-0.965306 -0.2758,-0.551603 -0.8274,-0.551603 h -19.85773 q -3.99913,0 -6.89504,-2.758018 -2.75802,-2.895919 -2.75802,-6.895045 0,-3.999126 2.75802,-6.757144 2.89591,-2.895919 6.89504,-2.895919 h 39.57756 q 1.1032,0 1.1032,-1.103207 0,-3.309621 2.20645,-5.516036 2.3443,-2.344315 5.6539,-2.344315 h 10.4805 q 3.3096,0 5.516,2.344315 2.3443,2.206415 2.3443,5.516036 0,1.103207 1.1032,1.103207 z m -26.2012,83.981644 v -1.10321 q 0,-1.51691 -1.5169,-1.51691 h -52.12653 q -1.51691,0 -1.51691,1.51691 v 1.10321 q 0,1.51691 1.51691,1.51691 h 52.12653 q 1.5169,0 1.5169,-1.51691 z m 0,-16.54811 v -1.1032 q 0,-1.51691 -1.5169,-1.51691 h -52.12653 q -1.51691,0 -1.51691,1.51691 v 1.1032 q 0,1.51691 1.51691,1.51691 h 52.12653 q 1.5169,0 1.5169,-1.51691 z m -10.2046,-43.43878 q -1.1033,-1.516908 -1.1033,-3.171719 0,-1.516909 -1.2411,-1.516909 h -22.6157 q -1.2411,0 -1.2411,1.379008 0.1379,2.206415 -0.9653,4.55073 -0.5516,1.10321 0.6895,1.10321 7.9982,-0.41371 26.0632,-1.51691 0.2759,0 0.4138,-0.2758 0.2758,-0.41371 0,-0.55161 z"
           style="font-style:normal;font-variant:normal;font-weight:900;font-stretch:normal;font-size:137.90089417px;line-height:129.99999523%;font-family:'Rounded-X M+ 1c';-inkscape-font-specification:'Rounded-X M+ 1c, Heavy';text-align:center;writing-mode:lr-tb;text-anchor:middle;fill:#003586;fill-opacity:1;stroke-width:2.56559849px"
           id="path900" />
        <path
           d="m 1202.3581,71.322701 q 4.8265,0 8.2741,3.447522 3.4475,3.447522 3.4475,8.274054 V 186.46995 q 0,4.82653 -3.4475,8.27405 -3.4476,3.44752 -8.2741,3.44752 h -8.1361 q -1.7928,0 -3.0339,-1.2411 -1.2411,-1.24111 -1.2411,-3.03382 0,-0.55161 -0.5516,-0.55161 h -77.5003 q -0.5516,0 -0.5516,0.55161 0,1.79271 -1.2411,3.03382 -1.2411,1.2411 -3.0338,1.2411 h -8.1362 q -4.8265,0 -8.274,-3.44752 -3.4475,-3.44752 -3.4475,-8.27405 V 83.044277 q 0,-4.826532 3.4475,-8.274054 3.4475,-3.447522 8.274,-3.447522 z M 1189.947,174.61047 V 90.766727 q 0,-1.51691 -1.5169,-1.51691 h -75.5697 q -1.5169,0 -1.5169,1.51691 v 83.843743 q 0,1.51691 1.5169,1.51691 h 75.5697 q 1.5169,0 1.5169,-1.51691 z m -52.5402,-63.98601 q 1.5169,0 1.5169,-1.51691 v -0.41371 q 0,-1.51691 -1.5169,-1.51691 h -14.3417 q -2.2064,0 -3.8612,-1.51691 -1.6548,-1.65481 -1.6548,-3.99912 0,-2.344318 1.6548,-3.861228 1.6548,-1.65481 3.8612,-1.65481 h 15.307 q 0.5516,0 0.5516,-0.551604 0,-1.792712 1.2411,-3.03382 1.2411,-1.241108 3.0338,-1.241108 h 14.8933 q 1.7927,0 3.0338,1.241108 1.2412,1.241108 1.2412,3.03382 0,0.551604 0.5516,0.551604 h 15.307 q 2.2064,0 3.8612,1.65481 1.6548,1.51691 1.6548,3.861228 0,2.34431 -1.6548,3.99912 -1.6548,1.51691 -3.8612,1.51691 h -14.3417 q -1.5169,0 -1.5169,1.51691 v 0.41371 q 0,1.51691 1.5169,1.51691 h 15.4449 q 2.3443,0 3.9991,1.79271 1.7927,1.65481 1.7927,3.99912 0,2.34432 -1.7927,4.13703 -1.6548,1.79271 -3.9991,1.79271 h -57.3668 q -2.3443,0 -4.137,-1.79271 -1.6548,-1.79271 -1.6548,-4.13703 0,-2.34431 1.6548,-3.99912 1.7927,-1.79271 4.137,-1.79271 z m 46.7484,51.98863 q 2.6201,1.37901 3.0338,4.55073 0.5516,3.03382 -1.379,5.24024 -1.9306,2.48221 -5.1023,2.89591 -3.1717,0.41371 -5.7919,-1.51691 -4.8265,-3.44752 -12.411,-8.27405 -0.2758,-0.1379 -0.5516,0.1379 -0.2758,0.1379 -0.2758,0.2758 0,2.75802 -2.0686,4.82654 -1.9306,1.93061 -4.6886,1.93061 h -9.3773 q -2.4822,0 -4.2749,-1.65481 -1.6548,-1.79271 -1.6548,-4.27493 0,-0.68951 -0.5516,-0.4137 -5.3781,2.89592 -12.6869,5.92974 -3.4475,1.5169 -7.0329,0.2758 -3.4475,-1.37901 -5.2403,-4.68863 -1.5169,-2.89592 -0.2758,-5.79184 1.2411,-3.03382 4.4129,-4.13703 9.5151,-3.03382 18.7545,-7.30875 0.2758,-0.1379 0.1379,-0.4137 -0.1379,-0.2758 -0.4137,-0.2758 h -6.0677 q -4.8265,0 -8.274,-3.44752 -3.4475,-3.44752 -3.4475,-8.27406 v -1.379 q 0,-4.82654 3.4475,-8.27406 3.4475,-3.44752 8.274,-3.44752 h 39.9913 q 4.8265,0 8.2741,3.44752 3.4475,3.44752 3.4475,8.27406 v 7.58454 q 0,1.24111 0.9653,1.93062 3.0338,2.06851 3.5854,5.79183 0.6895,3.58543 -1.5169,6.48135 -0.2758,0.4137 -0.9653,1.2411 -0.6895,0.68951 -1.1032,1.10321 -0.6895,0.68951 0.2758,1.37901 0.1379,0.1379 0.2758,0.1379 0.1379,0 0.2758,0.1379 z m -22.4778,-23.85685 v -2.48222 q 0,-1.51691 -1.517,-1.51691 h -19.0303 q -1.5169,0 -1.5169,1.51691 v 2.48222 q 0,1.51691 1.5169,1.51691 h 19.0303 q 1.517,0 1.517,-1.51691 z m 12.5489,12.41108 q 0.2758,-0.4137 0,-0.82741 -0.1379,-0.4137 -0.6895,-0.4137 h -7.7224 q -1.1032,0 -1.7927,0.5516 -0.8274,0.82741 0,1.10321 0.9653,0.4137 2.758,1.37901 1.7927,0.96531 2.6201,1.37901 1.5169,0.8274 2.4822,-0.4137 0.4137,-0.55161 1.1032,-1.37901 0.8274,-0.82741 1.2411,-1.37901 z"
           style="font-style:normal;font-variant:normal;font-weight:900;font-stretch:normal;font-size:137.90089417px;line-height:129.99999523%;font-family:'Rounded-X M+ 1c';-inkscape-font-specification:'Rounded-X M+ 1c, Heavy';text-align:center;writing-mode:lr-tb;text-anchor:middle;fill:#003586;fill-opacity:1;stroke-width:2.56559849px"
           id="path902" />
        <path
           d="m 512.85361,256.10989 q 4.82653,0 8.27406,3.44752 3.44752,3.44753 3.44752,8.27406 v 94.46211 q 0,4.82653 -3.44752,8.27405 -3.44753,3.44753 -8.27406,3.44753 h -7.03294 q -2.48222,0 -4.27493,-1.79271 -1.79271,-1.79272 -1.79271,-4.27493 0,-0.82741 -0.82741,-0.82741 h -12.13528 q -0.8274,0 -0.8274,0.82741 0,2.48221 -1.79271,4.27493 -1.79271,1.79271 -4.27493,1.79271 h -6.34344 q -4.82653,0 -8.27406,-3.44753 -3.44752,-3.44752 -3.44752,-8.27405 v -94.46211 q 0,-4.82653 3.44752,-8.27406 3.44753,-3.44752 8.27406,-3.44752 z m -13.10058,88.80818 v -65.91663 q 0,-1.51691 -1.51691,-1.51691 h -10.75627 q -1.51691,0 -1.51691,1.51691 v 65.91663 q 0,1.51691 1.51691,1.51691 h 10.75627 q 1.51691,0 1.51691,-1.51691 z m -53.64345,-35.16473 q 2.48222,3.99913 6.61924,11.16997 4.13703,7.17085 5.37814,9.10146 2.20641,3.72333 1.37901,8.13615 -0.68951,4.27493 -4.13703,6.89505 -3.03382,2.34431 -6.75714,1.37901 -3.58543,-1.10321 -4.96444,-4.55073 -0.5516,-1.37901 -1.65481,-3.99913 -1.1032,-2.75802 -1.65481,-4.13702 -0.1379,-0.13791 -0.4137,-0.13791 -0.1379,0 -0.1379,0.27581 v 31.1656 q 0,4.82653 -3.44752,8.27405 -3.44753,3.44752 -8.27406,3.44752 -4.82653,0 -8.27405,-3.44752 -3.44752,-3.44752 -3.44752,-8.27405 v -19.30613 q 0,-0.2758 -0.2758,-0.2758 -0.13791,0 -0.27581,0.1379 -1.93061,5.24024 -3.86122,9.37726 -1.79271,3.58543 -5.79184,3.58543 -3.99913,-0.1379 -6.06764,-3.72333 l -0.5516,-0.9653 q -2.62012,-4.68863 -2.34432,-9.92887 0.41371,-5.24023 3.30962,-9.79096 7.99826,-11.99738 12.13528,-24.27056 0.1379,-0.5516 -0.2758,-0.96531 -0.2758,-0.4137 -0.8274,-0.4137 h -4.13703 q -4.27493,0 -7.30875,-3.03382 -3.03382,-3.03382 -3.03382,-7.30875 0,-4.27492 3.03382,-7.30874 3.03382,-3.03382 7.30875,-3.03382 h 7.44665 q 1.51691,0 1.51691,-1.51691 v -10.34257 q 0,-1.37901 -1.51691,-1.37901 l -5.37814,0.4137 q -3.99912,0.27581 -7.17084,-2.48221 -3.17172,-2.75802 -3.58543,-6.75715 -0.4137,-3.86122 2.06852,-6.89504 2.62011,-3.03382 6.61924,-3.30962 16.68601,-1.24111 34.47522,-4.82653 4.13703,-0.82741 7.86035,1.24111 3.86123,2.06851 5.24024,5.92973 1.37901,3.86123 -0.41371,7.44665 -1.79271,3.44752 -5.79183,4.41283 -4.41283,1.10321 -7.44665,1.51691 -1.51691,0.2758 -1.51691,1.79271 v 13.23849 q 0,1.51691 1.51691,1.51691 h 6.06764 q 4.27493,0 7.30875,3.03382 3.03382,3.03382 3.03382,7.30874 0,4.27493 -3.03382,7.30875 -3.03382,3.03382 -7.30875,3.03382 h -0.55161 q -0.5516,0 -0.8274,0.4137 -0.1379,0.41371 0.1379,0.82741 z"
           style="font-style:normal;font-variant:normal;font-weight:900;font-stretch:normal;font-size:137.90089417px;line-height:129.99999523%;font-family:'Rounded-X M+ 1c';-inkscape-font-specification:'Rounded-X M+ 1c, Heavy';text-align:center;writing-mode:lr-tb;text-anchor:middle;fill:#003586;fill-opacity:1;stroke-width:2.56559849px"
           id="path904" />
        <path
           d="m 578.35654,348.77929 q -8.27406,11.44578 -23.02945,21.23674 -4.27493,2.75802 -9.10146,1.65481 -4.82653,-0.9653 -7.72245,-5.10233 l -0.2758,-0.2758 q -2.62012,-3.72333 -1.51691,-8.13616 1.1032,-4.41282 5.10233,-6.75714 8.41196,-4.96443 13.51429,-9.37726 0.1379,-0.1379 0.1379,-0.4137 0.1379,-0.27581 0,-0.41371 -0.1379,-0.2758 -0.4137,-0.2758 h -8.68776 q -3.86122,0 -6.61924,-2.75802 -2.75802,-2.75801 -2.75802,-6.61924 0,-3.86122 2.75802,-6.48134 2.75802,-2.75802 6.61924,-2.75802 h 27.58018 q 3.86122,0 6.48134,2.75802 2.75802,2.62012 2.75802,6.48134 0,10.61837 -4.82653,17.23761 z m 78.0519,2.48222 q 3.99913,2.34431 4.96444,6.89504 1.1032,4.41283 -1.51691,8.13616 l -0.27581,0.2758 q -2.89591,4.13703 -7.86035,5.24023 -4.82653,1.10321 -8.96355,-1.65481 -15.307,-10.06676 -27.58018,-24.40846 -0.1379,-0.2758 -0.55161,-0.1379 -0.4137,0.1379 -0.4137,0.55161 v 3.03382 q 0,7.03294 -0.2758,11.03207 -0.1379,3.99912 -1.24111,7.44665 -1.10321,3.44752 -2.48222,4.96443 -1.379,1.51691 -4.68863,2.62011 -3.17172,1.10321 -6.75714,1.24111 -3.58542,0.2758 -10.06677,0.2758 -0.6895,0 -8.96355,-0.2758 -4.41283,-0.2758 -7.58455,-3.30962 -3.17172,-3.03382 -3.44752,-7.44665 -0.27581,-4.13702 2.62011,-7.03294 3.03382,-3.03382 7.17085,-2.75802 2.62012,0.1379 5.37813,0.1379 3.58543,0 4.13703,-0.6895 0.6895,-0.68951 0.6895,-4.13703 V 318.3032 q 0,-1.51691 -1.51691,-1.51691 H 572.151 558.36091 q -4.82653,0 -8.27406,-3.44753 -3.44752,-3.44752 -3.44752,-8.27405 v -36.54374 q 0,-4.82653 3.44752,-8.27405 3.44753,-3.44752 8.27406,-3.44752 h 23.71895 q 1.10321,0 1.37901,-1.10321 0.82741,-3.58542 3.72332,-5.92974 3.03382,-2.34431 6.75715,-2.20641 l 10.06676,0.5516 q 2.89592,0.2758 4.68863,2.62012 1.79272,2.20641 1.24111,5.10233 -0.2758,0.96531 0.82741,0.96531 h 28.95919 q 4.82653,0 8.27405,3.44752 3.44752,3.44752 3.44752,8.27405 v 36.54374 q 0,4.82653 -3.44752,8.27405 -3.44752,3.44753 -8.27405,3.44753 H 619.5889 q -0.5516,0 -0.6895,0.4137 -0.1379,0.4137 0.1379,0.8274 4.13703,5.79184 8.68776,10.48047 0.9653,1.10321 2.20641,0.1379 4.55073,-3.44752 10.34257,-8.54985 3.58542,-3.17172 8.41195,-3.03382 4.82653,0 8.27406,3.17172 3.44752,3.17172 3.44752,7.72245 0.1379,4.55073 -3.30962,7.58455 -6.34344,5.51603 -9.65306,7.99825 -1.37901,1.10321 -0.13791,1.79271 3.72333,2.62012 9.10146,5.92974 z M 572.151,276.24342 v 3.17172 q 0,1.51691 1.51691,1.51691 h 50.74753 q 1.51691,0 1.51691,-1.51691 v -3.17172 q 0,-1.51691 -1.51691,-1.51691 h -50.74753 q -1.51691,0 -1.51691,1.51691 z m 1.51691,25.37377 h 50.74753 q 1.51691,0 1.51691,-1.51691 v -3.17172 q 0,-1.51691 -1.51691,-1.51691 h -50.74753 q -1.51691,0 -1.51691,1.51691 v 3.17172 q 0,1.51691 1.51691,1.51691 z"
           style="font-style:normal;font-variant:normal;font-weight:900;font-stretch:normal;font-size:137.90089417px;line-height:129.99999523%;font-family:'Rounded-X M+ 1c';-inkscape-font-specification:'Rounded-X M+ 1c, Heavy';text-align:center;writing-mode:lr-tb;text-anchor:middle;fill:#003586;fill-opacity:1;stroke-width:2.56559849px"
           id="path906" />
        <path
           d="m 785.89738,269.89998 q 4.82653,0 8.27406,3.44752 3.44752,3.44753 3.44752,8.27406 v 53.78135 q 0,4.82653 -3.44752,8.27405 -3.44753,3.44752 -8.27406,3.44752 h -6.34344 q -2.48221,0 -4.27493,-1.79271 -1.79271,-1.79271 -1.79271,-4.27493 0,-0.8274 -0.8274,-0.8274 h -21.09884 q -1.51691,0 -1.51691,1.51691 v 24.68426 q 0,4.82653 -3.44752,8.27405 -3.44752,3.44752 -8.27406,3.44752 h -2.75801 q -4.82653,0 -8.27406,-3.44752 -3.44752,-3.44752 -3.44752,-8.27405 v -24.68426 q 0,-1.51691 -1.51691,-1.51691 h -21.09884 q -0.8274,0 -0.8274,0.8274 0,2.48222 -1.79271,4.27493 -1.79271,1.79271 -4.27493,1.79271 h -6.34344 q -4.82653,0 -8.27406,-3.44752 -3.44752,-3.44752 -3.44752,-8.27405 v -53.78135 q 0,-4.82653 3.44752,-8.27406 3.44753,-3.44752 8.27406,-3.44752 h 34.33732 q 1.51691,0 1.51691,-1.51691 v -8.13615 q 0,-4.82653 3.44752,-8.27405 3.44753,-3.44753 8.27406,-3.44753 h 2.75801 q 4.82654,0 8.27406,3.44753 3.44752,3.44752 3.44752,8.27405 v 8.13615 q 0,1.51691 1.51691,1.51691 z m -83.98164,49.64432 h 20.40933 q 1.51691,0 1.51691,-1.51691 v -25.23586 q 0,-1.51691 -1.51691,-1.51691 h -20.40933 q -1.51691,0 -1.51691,1.51691 v 25.23586 q 0,1.51691 1.51691,1.51691 z m 71.57056,-1.51691 v -25.23586 q 0,-1.51691 -1.51691,-1.51691 h -20.40933 q -1.51691,0 -1.51691,1.51691 v 25.23586 q 0,1.51691 1.51691,1.51691 h 20.40933 q 1.51691,0 1.51691,-1.51691 z"
           style="font-style:normal;font-variant:normal;font-weight:900;font-stretch:normal;font-size:137.90089417px;line-height:129.99999523%;font-family:'Rounded-X M+ 1c';-inkscape-font-specification:'Rounded-X M+ 1c, Heavy';text-align:center;writing-mode:lr-tb;text-anchor:middle;fill:#003586;fill-opacity:1;stroke-width:2.56559849px"
           id="path908" />
        <path
           d="m 931.10704,309.89124 q 3.58542,0 6.06764,2.62012 2.48222,2.48221 2.48222,5.92974 v 1.79271 q 0,4.27493 -3.03382,7.30875 -3.03382,3.03382 -7.30875,3.03382 h -32.13091 q -0.5516,0 -0.6895,0.4137 -0.13791,0.4137 0.1379,0.8274 9.37726,11.99738 31.993,20.96094 4.41283,1.79271 6.20554,6.06764 1.79272,4.27493 -0.2758,8.54985 l -0.1379,0.1379 q -2.20641,4.55073 -6.89504,6.48135 -4.55073,1.93061 -9.23936,0 -26.06327,-11.30788 -41.09447,-32.26881 -0.2758,-0.55161 -0.96531,-0.55161 -0.6895,0 -0.9653,0.55161 -15.99651,21.23674 -43.85249,32.54461 -4.55073,1.79271 -9.23936,-0.2758 -4.68863,-1.93062 -6.89504,-6.48135 l -0.1379,-0.1379 q -2.06852,-4.27492 -0.2758,-8.54985 1.79271,-4.27493 6.20554,-6.06764 22.47784,-8.96356 31.993,-20.96094 0.27581,-0.4137 0,-0.8274 -0.1379,-0.4137 -0.6895,-0.4137 h -31.99301 q -4.27493,0 -7.30875,-3.03382 -3.03381,-3.03382 -3.03381,-7.30875 v -1.79271 q 0,-3.44753 2.48221,-5.92974 2.48222,-2.62012 6.06764,-2.62012 1.10321,0 1.10321,-1.10321 v -32.68251 q 0,-4.82653 3.44752,-8.27405 3.44752,-3.44752 8.27405,-3.44752 h 28.82129 q 1.51691,0 1.51691,-1.51691 v -2.62012 q 0,-4.82653 3.44752,-8.27405 3.44753,-3.44753 8.27406,-3.44753 h 2.75801 q 4.82654,0 8.27406,3.44753 3.44752,3.44752 3.44752,8.27405 v 2.62012 q 0,1.51691 1.51691,1.51691 h 28.82129 q 4.82653,0 8.27405,3.44752 3.44752,3.44752 3.44752,8.27405 v 32.68251 q 0,1.10321 1.10321,1.10321 z m -69.36415,-4.82653 v -17.78922 q 0,-1.51691 -1.51691,-1.51691 h -15.5828 q -1.51691,0 -1.51691,1.51691 v 21.09884 q 0,1.51691 1.51691,1.51691 h 15.307 q 1.65481,0 1.65481,-1.51691 0,-0.5516 0,-1.65481 0.1379,-1.10321 0.1379,-1.65481 z m 44.81779,3.30962 v -21.09884 q 0,-1.51691 -1.51691,-1.51691 h -15.5828 q -1.51691,0 -1.51691,1.51691 v 17.78922 q 0,0.5516 0,1.65481 0.1379,1.10321 0.1379,1.65481 0,1.51691 1.65481,1.51691 h 15.307 q 1.51691,0 1.51691,-1.51691 z"
           style="font-style:normal;font-variant:normal;font-weight:900;font-stretch:normal;font-size:137.90089417px;line-height:129.99999523%;font-family:'Rounded-X M+ 1c';-inkscape-font-specification:'Rounded-X M+ 1c, Heavy';text-align:center;writing-mode:lr-tb;text-anchor:middle;fill:#003586;fill-opacity:1;stroke-width:2.56559849px"
           id="path910" />
        <path
           d="m 1064.4572,250.59386 q 4.8265,0 8.274,3.44752 3.4476,3.44752 3.4476,8.27405 V 365.7411 q 0,4.82653 -3.4476,8.27406 -3.4475,3.44752 -8.274,3.44752 h -8.1362 q -1.7927,0 -3.0338,-1.24111 -1.2411,-1.24111 -1.2411,-3.03382 0,-0.5516 -0.5516,-0.5516 h -77.5003 q -0.5516,0 -0.5516,0.5516 0,1.79271 -1.24111,3.03382 -1.24111,1.24111 -3.03382,1.24111 h -8.13615 q -4.82653,0 -8.27405,-3.44752 -3.44753,-3.44753 -3.44753,-8.27406 V 262.31543 q 0,-4.82653 3.44753,-8.27405 3.44752,-3.44752 8.27405,-3.44752 z m -12.4111,103.28777 v -83.84375 q 0,-1.51691 -1.5169,-1.51691 h -75.56969 q -1.51691,0 -1.51691,1.51691 v 83.84375 q 0,1.51691 1.51691,1.51691 h 75.56969 q 1.5169,0 1.5169,-1.51691 z m -52.54023,-63.98602 q 1.51693,0 1.51693,-1.51691 v -0.4137 q 0,-1.51691 -1.51693,-1.51691 h -14.34169 q -2.20642,0 -3.86123,-1.51691 -1.65481,-1.65481 -1.65481,-3.99913 0,-2.34431 1.65481,-3.86122 1.65481,-1.65481 3.86123,-1.65481 h 15.30702 q 0.5516,0 0.5516,-0.55161 0,-1.79271 1.2411,-3.03382 1.2411,-1.2411 3.0338,-1.2411 h 14.8933 q 1.7927,0 3.0338,1.2411 1.2411,1.24111 1.2411,3.03382 0,0.55161 0.5516,0.55161 h 15.307 q 2.2064,0 3.8613,1.65481 1.6548,1.51691 1.6548,3.86122 0,2.34432 -1.6548,3.99913 -1.6549,1.51691 -3.8613,1.51691 h -14.3417 q -1.5169,0 -1.5169,1.51691 v 0.4137 q 0,1.51691 1.5169,1.51691 h 15.4449 q 2.3444,0 3.9992,1.79271 1.7927,1.65481 1.7927,3.99913 0,2.34431 -1.7927,4.13703 -1.6548,1.79271 -3.9992,1.79271 h -57.36673 q -2.34432,0 -4.13703,-1.79271 -1.65481,-1.79272 -1.65481,-4.13703 0,-2.34432 1.65481,-3.99913 1.79271,-1.79271 4.13703,-1.79271 z m 46.74843,51.98864 q 2.6201,1.37901 3.0338,4.55073 0.5516,3.03382 -1.379,5.24023 -1.9306,2.48222 -5.1024,2.89592 -3.1717,0.4137 -5.7918,-1.51691 -4.8265,-3.44752 -12.4111,-8.27405 -0.2758,-0.1379 -0.5516,0.1379 -0.2758,0.1379 -0.2758,0.2758 0,2.75802 -2.0685,4.82653 -1.9306,1.93061 -4.6886,1.93061 h -9.3773 q -2.4822,0 -4.2749,-1.65481 -1.6548,-1.79271 -1.6548,-4.27492 0,-0.68951 -0.5516,-0.41371 -5.37816,2.89592 -12.6869,5.92974 -3.44753,1.51691 -7.03295,0.2758 -3.44752,-1.37901 -5.24023,-4.68863 -1.51691,-2.89592 -0.2758,-5.79184 1.2411,-3.03381 4.41282,-4.13702 9.51517,-3.03382 18.75453,-7.30875 0.2758,-0.1379 0.1379,-0.4137 -0.1379,-0.2758 -0.41371,-0.2758 h -6.06764 q -4.82653,0 -8.27405,-3.44753 -3.44752,-3.44752 -3.44752,-8.27405 v -1.37901 q 0,-4.82653 3.44752,-8.27405 3.44752,-3.44752 8.27405,-3.44752 H 1032.74 q 4.8265,0 8.274,3.44752 3.4476,3.44752 3.4476,8.27405 v 7.58455 q 0,1.24111 0.9653,1.93061 3.0338,2.06852 3.5854,5.79184 0.6895,3.58542 -1.5169,6.48134 -0.2758,0.41371 -0.9653,1.24111 -0.6895,0.6895 -1.1032,1.10321 -0.6895,0.6895 0.2758,1.37901 0.1379,0.1379 0.2758,0.1379 0.1379,0 0.2758,0.1379 z m -22.4779,-23.85686 v -2.48221 q 0,-1.51691 -1.5169,-1.51691 h -19.0303 q -1.5169,0 -1.5169,1.51691 v 2.48221 q 0,1.51691 1.5169,1.51691 h 19.0303 q 1.5169,0 1.5169,-1.51691 z m 12.549,12.41108 q 0.2758,-0.4137 0,-0.8274 -0.1379,-0.4137 -0.6895,-0.4137 h -7.7224 q -1.1033,0 -1.7928,0.5516 -0.8274,0.82741 0,1.10321 0.9653,0.4137 2.7581,1.37901 1.7927,0.9653 2.6201,1.379 1.5169,0.82741 2.4822,-0.4137 0.4137,-0.5516 1.1032,-1.37901 0.8274,-0.8274 1.2411,-1.37901 z"
           style="font-style:normal;font-variant:normal;font-weight:900;font-stretch:normal;font-size:137.90089417px;line-height:129.99999523%;font-family:'Rounded-X M+ 1c';-inkscape-font-specification:'Rounded-X M+ 1c, Heavy';text-align:center;writing-mode:lr-tb;text-anchor:middle;fill:#003586;fill-opacity:1;stroke-width:2.56559849px"
           id="path912" />
      </g>
      <g
         aria-label="すこやか、うららか、のびのびほいく"
         style="font-style:normal;font-variant:normal;font-weight:900;font-stretch:normal;font-size:30.78717995px;line-height:0%;font-family:'Rounded-X M+ 1c';-inkscape-font-specification:'Rounded-X M+ 1c, Heavy';text-align:start;letter-spacing:0px;word-spacing:0px;writing-mode:lr-tb;text-anchor:start;opacity:1;fill:#5d9a1f;fill-opacity:1;stroke:none;stroke-width:2.56559849px;stroke-linecap:butt;stroke-linejoin:miter;stroke-opacity:1"
         id="text4251-0">
        <path
           d="m 245.59433,500.05039 q 1.2332,1.04822 3.14465,1.04822 1.91145,0 3.08298,-1.04822 1.2332,-1.04821 1.2332,-2.65136 0,-1.60315 -1.2332,-2.65137 -1.17153,-1.04821 -3.08298,-1.04821 -1.91145,0 -3.14465,1.04821 -1.17153,1.04822 -1.17153,2.65137 0,1.60315 1.17153,2.65136 z m 29.04172,-26.08204 q 1.91145,0 3.26796,1.35651 1.35651,1.35651 1.35651,3.26796 0,1.91145 -1.35651,3.26797 -1.35651,1.35651 -3.26796,1.35651 h -10.72879 q -0.67826,0 -0.67826,0.67826 v 9.74223 q 0,0.55493 0.3083,1.29485 1.84979,3.8229 1.84979,8.01576 0,8.75568 -4.80945,13.44181 -4.7478,4.68614 -15.84654,6.35095 -2.09643,0.3083 -3.8229,-0.98655 -1.66481,-1.29486 -2.03477,-3.39129 -0.36996,-1.97311 0.86323,-3.57626 1.2332,-1.60315 3.20631,-1.84979 5.79601,-0.67826 7.83078,-1.47983 2.03477,-0.80158 2.77468,-2.46639 0.0617,-0.0617 0.0617,-0.18498 0,-0.12332 0.0617,-0.18498 v -0.12332 h -0.12332 q -3.14464,1.2332 -6.35094,1.2332 -6.04265,0 -9.8039,-3.39129 -3.76124,-3.39128 -3.76124,-8.94065 0,-5.61103 3.8229,-8.94066 3.8229,-3.39128 10.35883,-3.39128 1.91145,0 4.1312,0.6166 h 0.12332 q 0.0617,0 0.0617,-0.0617 v -1.72647 q 0,-0.67826 -0.67826,-0.67826 h -21.82753 q -1.91145,0 -3.26796,-1.35651 Q 225,480.50427 225,478.59282 q 0,-1.91145 1.35651,-3.26796 1.35651,-1.35651 3.26796,-1.35651 H 251.452 q 0.67826,0 0.67826,-0.67826 0,-2.03477 1.41817,-3.45294 1.41818,-1.41818 3.45295,-1.41818 h 1.35651 q 2.03477,0 3.45294,1.41818 1.41817,1.41817 1.41817,3.45294 0,0.67826 0.67826,0.67826 z"
           style="font-style:normal;font-variant:normal;font-weight:900;font-stretch:normal;font-size:61.65969086px;line-height:125%;font-family:'Rounded-X M+ 1c';-inkscape-font-specification:'Rounded-X M+ 1c, Heavy';text-align:start;writing-mode:lr-tb;text-anchor:start;fill:#5d9a1f;fill-opacity:1;stroke-width:2.56559849px"
           id="path920" />
        <path
           d="m 327.84836,473.35175 q 2.09643,0 3.57626,1.47983 1.47984,1.47983 1.47984,3.57626 0,2.15809 -1.47984,3.63792 -1.47983,1.47984 -3.57626,1.47984 h -27.50022 q -2.09643,0 -3.57626,-1.47984 -1.47984,-1.47983 -1.47984,-3.63792 0,-2.09643 1.47984,-3.57626 1.47983,-1.47983 3.57626,-1.47983 z m 7.70746,41.12701 q 0.49328,2.15809 -0.67825,4.00788 -1.17154,1.84979 -3.32963,2.28141 -10.11219,1.91145 -17.75799,1.91145 -11.34538,0 -17.69633,-3.88456 -6.35095,-3.88456 -6.35095,-10.29717 0,-3.02132 1.41817,-5.98099 1.47984,-2.95966 5.0561,-6.90588 1.54149,-1.66482 3.8229,-1.84979 2.28141,-0.24664 4.1312,1.10987 l 0.12332,0.12332 q 1.66481,1.17153 1.78813,3.26796 0.18498,2.03477 -1.23319,3.57627 -3.08299,3.45294 -3.08299,5.42605 0,2.21975 2.95967,3.57626 3.02132,1.35651 9.06397,1.35651 6.16597,0 15.5999,-1.91145 2.09643,-0.43161 3.88456,0.73992 1.78813,1.10987 2.21975,3.2063 z"
           style="font-style:normal;font-variant:normal;font-weight:900;font-stretch:normal;font-size:61.65969086px;line-height:125%;font-family:'Rounded-X M+ 1c';-inkscape-font-specification:'Rounded-X M+ 1c, Heavy';text-align:start;writing-mode:lr-tb;text-anchor:start;fill:#5d9a1f;fill-opacity:1;stroke-width:2.56559849px"
           id="path922" />
        <path
           d="m 389.01477,477.05133 q 6.84423,0 11.09875,4.25452 4.31618,4.19286 4.31618,11.1604 0,7.9541 -4.68614,12.45526 -4.68614,4.50116 -12.57858,4.50116 -1.66481,0 -2.5897,-0.0617 -2.15809,-0.12332 -3.51461,-1.78813 -1.29485,-1.72647 -1.10987,-3.94622 0.18498,-2.09643 1.84979,-3.45295 1.66481,-1.35651 3.8229,-1.35651 h 0.3083 q 2.95966,0 4.87112,-1.54149 1.91145,-1.60315 1.91145,-4.19286 0,-5.48771 -5.3644,-5.54937 -0.3083,0 -0.43162,0.24664 -0.12331,0.24663 -0.0617,0.49327 0.0617,0.12332 0.12332,0.36996 0.0617,0.18498 0.0617,0.3083 0.55494,2.09643 -0.55493,4.00788 -1.04822,1.91145 -3.14465,2.52805 l -0.36996,0.12332 q -2.09643,0.61659 -4.00788,-0.43162 -1.84979,-1.04822 -2.52804,-3.14465 0,-0.18497 -0.12332,-0.43161 -0.12332,-0.24664 -0.18498,-0.43162 -0.24664,-0.67826 -0.80158,-0.49328 -0.61659,0.24664 -1.91145,0.67826 -1.23319,0.43162 -1.91145,0.67825 -0.73991,0.24664 -0.49328,0.9249 3.82291,13.07185 6.53593,23.36902 0.55494,2.09643 -0.6166,3.94622 -1.10987,1.91145 -3.2063,2.40473 l -1.17153,0.3083 q -2.09643,0.49328 -4.00788,-0.6166 -1.84979,-1.10987 -2.40473,-3.26796 -3.32962,-12.57858 -6.04265,-21.88919 -0.24664,-0.67826 -0.80158,-0.49328 -0.18498,0.0617 -1.91145,0.73992 -1.72647,0.67825 -2.65136,1.04821 -2.03477,0.80158 -4.06954,0 -1.97311,-0.86323 -2.77469,-2.898 l -0.0617,-0.12332 q -0.86323,-2.03477 0,-4.00788 0.86324,-2.03477 2.89801,-2.83635 1.10987,-0.43162 3.2063,-1.23319 2.09643,-0.86324 2.28141,-0.9249 0.67826,-0.24664 0.43162,-0.92489 -0.3083,-0.98656 -0.9249,-2.83635 -0.55494,-1.84979 -0.86323,-2.83634 -0.67826,-2.03477 0.30829,-3.94622 0.98656,-1.97311 3.08299,-2.58971 l 1.10987,-0.3083 q 2.09643,-0.6166 4.00788,0.43162 1.91145,0.98655 2.58971,3.08298 0.24664,0.86324 0.73992,2.46639 0.55493,1.60315 0.80157,2.46639 0.24664,0.67825 0.9249,0.43162 2.21975,-0.80158 3.76124,-1.29486 0.67826,-0.24664 0.49328,-0.80157 -0.12332,-0.36996 -0.43162,-1.29486 -0.24664,-0.92489 -0.43162,-1.41817 -0.67826,-2.03477 0.3083,-3.94622 1.04821,-1.91145 3.14464,-2.46639 l 0.98656,-0.24664 q 2.09643,-0.61659 4.00788,0.43162 1.91145,1.04822 2.52805,3.14464 0.12331,0.43162 0.36995,1.41818 0.3083,0.98655 0.43162,1.41817 0.24664,0.67826 0.98656,0.55494 2.46638,-0.36996 4.43949,-0.36996 z"
           style="font-style:normal;font-variant:normal;font-weight:900;font-stretch:normal;font-size:61.65969086px;line-height:125%;font-family:'Rounded-X M+ 1c';-inkscape-font-specification:'Rounded-X M+ 1c, Heavy';text-align:start;writing-mode:lr-tb;text-anchor:start;fill:#5d9a1f;fill-opacity:1;stroke-width:2.56559849px"
           id="path924" />
        <path
           d="m 432.79315,479.51772 q 3.45294,0 5.05609,0 1.60315,0 3.69958,0.43162 2.15809,0.36995 2.83635,0.61659 0.73992,0.24664 1.78813,1.60315 1.04821,1.35652 1.23319,2.34307 0.18498,0.98656 0.49328,3.76124 0.3083,2.71303 0.3083,4.87112 0,2.15809 0,6.72091 0,12.27027 -3.02133,17.57301 -2.95966,5.24107 -8.69401,5.24107 -3.26797,0 -8.69402,-1.17153 -2.03477,-0.43162 -3.08298,-2.28141 -1.04822,-1.84979 -0.55494,-3.94622 0.49328,-2.03477 2.28141,-3.08299 1.84979,-1.10987 3.88456,-0.61659 2.65137,0.61659 3.69958,0.61659 2.46639,0 2.46639,-14.18173 0,-6.4126 -0.49328,-7.52248 -0.43162,-1.10987 -3.2063,-1.10987 h -4.1312 q -0.67826,0 -0.80158,0.67825 -3.02132,13.6268 -8.20074,28.48678 -0.67825,1.97311 -2.5897,2.89801 -1.91145,0.98655 -3.88456,0.3083 -1.97311,-0.67826 -2.89801,-2.52805 -0.86324,-1.78813 -0.24664,-3.69958 4.19286,-12.57858 7.15253,-25.52712 0.12331,-0.61659 -0.55494,-0.61659 h -2.34307 q -2.03477,0 -3.5146,-1.41818 -1.41818,-1.47983 -1.41818,-3.5146 0,-2.03477 1.41818,-3.45294 1.47983,-1.47983 3.5146,-1.47983 h 4.37784 q 0.73991,0 0.86323,-0.73992 0.80158,-4.19286 1.04822,-5.91933 0.36996,-2.15809 2.03477,-3.5146 1.72647,-1.35651 3.88456,-1.2332 2.09643,0.12332 3.39128,1.72648 1.29486,1.60315 0.98656,3.63792 -0.24664,1.78813 -0.86324,5.36439 -0.0617,0.24664 0.12332,0.49328 0.18498,0.18498 0.49328,0.18498 z m 27.00694,1.23319 q 3.32962,9.86555 6.22763,20.90264 0.55494,2.03477 -0.6166,3.88456 -1.10987,1.84979 -3.2063,2.34307 l -0.49328,0.12331 q -2.09643,0.49328 -4.00788,-0.61659 -1.84979,-1.10988 -2.40473,-3.26797 -2.898,-10.66712 -6.22762,-20.59433 -0.67826,-2.03477 0.30829,-3.88456 0.98656,-1.91145 3.02133,-2.40473 l 0.6166,-0.12332 q 2.15808,-0.55494 4.13119,0.49328 1.97312,1.04821 2.65137,3.14464 z"
           style="font-style:normal;font-variant:normal;font-weight:900;font-stretch:normal;font-size:61.65969086px;line-height:125%;font-family:'Rounded-X M+ 1c';-inkscape-font-specification:'Rounded-X M+ 1c, Heavy';text-align:start;writing-mode:lr-tb;text-anchor:start;fill:#5d9a1f;fill-opacity:1;stroke-width:2.56559849px"
           id="path926" />
        <path
           d="m 483.10746,508.00449 q 0.43162,0.49328 5.24108,6.53593 1.23319,1.60315 0.92489,3.57626 -0.3083,1.91145 -1.91145,3.02133 -1.66481,1.17153 -3.69958,0.86323 -1.97311,-0.30829 -3.26796,-1.91145 -1.29486,-1.60315 -4.87112,-5.91933 -1.29485,-1.54149 -1.17153,-3.57626 0.18498,-2.03477 1.72647,-3.32962 1.60315,-1.29486 3.63792,-1.04822 2.09643,0.18498 3.39128,1.78813 z"
           style="font-style:normal;font-variant:normal;font-weight:900;font-stretch:normal;font-size:61.65969086px;line-height:125%;font-family:'Rounded-X M+ 1c';-inkscape-font-specification:'Rounded-X M+ 1c, Heavy';text-align:start;writing-mode:lr-tb;text-anchor:start;fill:#5d9a1f;fill-opacity:1;stroke-width:2.56559849px"
           id="path928" />
        <path
           d="m 564.7449,486.30028 q 9.61891,0 14.67501,3.76124 5.05609,3.76125 5.05609,10.42049 0,18.18961 -30.64486,21.70421 -2.15809,0.24664 -3.88457,-1.10987 -1.66481,-1.29485 -1.97311,-3.45294 -0.30829,-2.09643 0.9249,-3.76124 1.23319,-1.72648 3.32962,-1.97312 20.53268,-2.898 20.53268,-10.79044 0,-2.15809 -1.97311,-3.2063 -1.97311,-1.10988 -6.65925,-1.10988 -6.96754,0 -20.84097,2.89801 -2.15809,0.43161 -4.00788,-0.73992 -1.78813,-1.17153 -2.28141,-3.26796 -0.49328,-2.15809 0.6166,-4.00788 1.10987,-1.84979 3.2063,-2.28141 14.05841,-3.08299 23.92396,-3.08299 z M 550.74815,470.8237 q 9.49559,0.9249 19.79276,1.23319 2.15809,0.0617 3.69958,1.60316 1.60316,1.54149 1.60316,3.69958 0,2.15809 -1.5415,3.69958 -1.47983,1.47983 -3.63792,1.41817 -9.18729,-0.24664 -21.14927,-1.47983 -2.15809,-0.24664 -3.45295,-1.91145 -1.29485,-1.66481 -1.04821,-3.76124 0.24664,-2.09643 1.91145,-3.39128 1.66481,-1.29486 3.8229,-1.10988 z"
           style="font-style:normal;font-variant:normal;font-weight:900;font-stretch:normal;font-size:61.65969086px;line-height:125%;font-family:'Rounded-X M+ 1c';-inkscape-font-specification:'Rounded-X M+ 1c, Heavy';text-align:start;writing-mode:lr-tb;text-anchor:start;fill:#5d9a1f;fill-opacity:1;stroke-width:2.56559849px"
           id="path930" />
        <path
           d="m 627.94606,489.38327 q 9.74223,0 14.12007,3.76124 4.37784,3.69958 4.37784,11.65368 0,8.2624 -7.09087,13.07185 -7.0292,4.80946 -20.0394,4.80946 -5.67269,0 -10.79044,-0.43162 -2.03477,-0.18498 -3.32962,-1.78813 -1.29486,-1.60315 -1.10988,-3.63792 0.18498,-2.03477 1.78813,-3.32962 1.60315,-1.29486 3.63792,-1.10988 5.17942,0.43162 9.80389,0.43162 6.47427,0 10.17385,-2.21975 3.69958,-2.28141 3.69958,-5.79601 0,-5.54937 -7.09086,-5.54937 -4.56282,0 -12.64024,4.00788 -4.93277,2.40473 -9.74223,1.41817 l -0.24664,-0.0617 q -2.15809,-0.49328 -3.39128,-2.28141 -1.23319,-1.78813 -0.86323,-3.88456 0.0616,-0.36996 0.61659,-3.69958 0.6166,-3.39128 0.86324,-5.11775 0.3083,-2.15809 2.03477,-3.51461 1.72647,-1.41817 3.94622,-1.23319 l 0.92489,0.0617 q 2.15809,0.18498 3.45295,1.91145 1.35651,1.66481 1.10987,3.76124 -0.18498,1.35651 -0.55494,3.94622 v 0.0617 h 0.12332 q 8.75568,-5.24107 16.2165,-5.24107 z M 612.9011,472.05689 q 10.60546,1.04822 21.21093,1.2332 2.03477,0.0617 3.45294,1.54149 1.47984,1.41817 1.47984,3.45294 0,2.03477 -1.47984,3.51461 -1.41817,1.41817 -3.45294,1.35651 -11.71534,-0.18498 -22.44413,-1.23319 -2.03477,-0.18498 -3.32962,-1.78814 -1.29485,-1.66481 -1.04822,-3.69958 0.24664,-2.03477 1.8498,-3.26796 1.66481,-1.29485 3.76124,-1.10988 z"
           style="font-style:normal;font-variant:normal;font-weight:900;font-stretch:normal;font-size:61.65969086px;line-height:125%;font-family:'Rounded-X M+ 1c';-inkscape-font-specification:'Rounded-X M+ 1c, Heavy';text-align:start;writing-mode:lr-tb;text-anchor:start;fill:#5d9a1f;fill-opacity:1;stroke-width:2.56559849px"
           id="path932" />
        <path
           d="m 689.60576,489.38327 q 9.74223,0 14.12007,3.76124 4.37784,3.69958 4.37784,11.65368 0,8.2624 -7.09087,13.07185 -7.0292,4.80946 -20.0394,4.80946 -5.67269,0 -10.79044,-0.43162 -2.03477,-0.18498 -3.32963,-1.78813 -1.29485,-1.60315 -1.10987,-3.63792 0.18498,-2.03477 1.78813,-3.32962 1.60315,-1.29486 3.63792,-1.10988 5.17942,0.43162 9.80389,0.43162 6.47427,0 10.17385,-2.21975 3.69958,-2.28141 3.69958,-5.79601 0,-5.54937 -7.09086,-5.54937 -4.56282,0 -12.64024,4.00788 -4.93277,2.40473 -9.74223,1.41817 l -0.24664,-0.0617 q -2.15809,-0.49328 -3.39128,-2.28141 -1.23319,-1.78813 -0.86324,-3.88456 0.0617,-0.36996 0.6166,-3.69958 0.6166,-3.39128 0.86324,-5.11775 0.30829,-2.15809 2.03477,-3.51461 1.72647,-1.41817 3.94622,-1.23319 l 0.92489,0.0617 q 2.15809,0.18498 3.45294,1.91145 1.35652,1.66481 1.10988,3.76124 -0.18498,1.35651 -0.55494,3.94622 v 0.0617 h 0.12332 q 8.75568,-5.24107 16.2165,-5.24107 z m -15.04497,-17.32638 q 10.60547,1.04822 21.21094,1.2332 2.03477,0.0617 3.45294,1.54149 1.47983,1.41817 1.47983,3.45294 0,2.03477 -1.47983,3.51461 -1.41817,1.41817 -3.45294,1.35651 -11.71534,-0.18498 -22.44413,-1.23319 -2.03477,-0.18498 -3.32962,-1.78814 -1.29486,-1.66481 -1.04822,-3.69958 0.24664,-2.03477 1.84979,-3.26796 1.66482,-1.29485 3.76124,-1.10988 z"
           style="font-style:normal;font-variant:normal;font-weight:900;font-stretch:normal;font-size:61.65969086px;line-height:125%;font-family:'Rounded-X M+ 1c';-inkscape-font-specification:'Rounded-X M+ 1c, Heavy';text-align:start;writing-mode:lr-tb;text-anchor:start;fill:#5d9a1f;fill-opacity:1;stroke-width:2.56559849px"
           id="path934" />
        <path
           d="m 741.09161,479.51772 q 3.45294,0 5.05609,0 1.60316,0 3.69959,0.43162 2.15808,0.36995 2.83634,0.61659 0.73992,0.24664 1.78813,1.60315 1.04822,1.35652 1.2332,2.34307 0.18497,0.98656 0.49327,3.76124 0.3083,2.71303 0.3083,4.87112 0,2.15809 0,6.72091 0,12.27027 -3.02132,17.57301 -2.95967,5.24107 -8.69402,5.24107 -3.26796,0 -8.69402,-1.17153 -2.03477,-0.43162 -3.08298,-2.28141 -1.04822,-1.84979 -0.55494,-3.94622 0.49328,-2.03477 2.28141,-3.08299 1.84979,-1.10987 3.88456,-0.61659 2.65137,0.61659 3.69958,0.61659 2.46639,0 2.46639,-14.18173 0,-6.4126 -0.49328,-7.52248 -0.43161,-1.10987 -3.2063,-1.10987 h -4.1312 q -0.67826,0 -0.80158,0.67825 -3.02132,13.6268 -8.20074,28.48678 -0.67825,1.97311 -2.5897,2.89801 -1.91145,0.98655 -3.88456,0.3083 -1.97311,-0.67826 -2.89801,-2.52805 -0.86323,-1.78813 -0.24664,-3.69958 4.19286,-12.57858 7.15253,-25.52712 0.12332,-0.61659 -0.55494,-0.61659 h -2.34307 q -2.03477,0 -3.5146,-1.41818 -1.41817,-1.47983 -1.41817,-3.5146 0,-2.03477 1.41817,-3.45294 1.47983,-1.47983 3.5146,-1.47983 h 4.37784 q 0.73992,0 0.86324,-0.73992 0.80157,-4.19286 1.04821,-5.91933 0.36996,-2.15809 2.03477,-3.5146 1.72647,-1.35651 3.88456,-1.2332 2.09643,0.12332 3.39128,1.72648 1.29486,1.60315 0.98656,3.63792 -0.24664,1.78813 -0.86324,5.36439 -0.0617,0.24664 0.12332,0.49328 0.18498,0.18498 0.49328,0.18498 z m 27.00694,1.23319 q 3.32963,9.86555 6.22763,20.90264 0.55494,2.03477 -0.61659,3.88456 -1.10988,1.84979 -3.20631,2.34307 l -0.49328,0.12331 q -2.09643,0.49328 -4.00788,-0.61659 -1.84979,-1.10988 -2.40472,-3.26797 -2.89801,-10.66712 -6.22763,-20.59433 -0.67826,-2.03477 0.3083,-3.88456 0.98655,-1.91145 3.02132,-2.40473 l 0.6166,-0.12332 q 2.15809,-0.55494 4.1312,0.49328 1.97311,1.04821 2.65136,3.14464 z"
           style="font-style:normal;font-variant:normal;font-weight:900;font-stretch:normal;font-size:61.65969086px;line-height:125%;font-family:'Rounded-X M+ 1c';-inkscape-font-specification:'Rounded-X M+ 1c, Heavy';text-align:start;writing-mode:lr-tb;text-anchor:start;fill:#5d9a1f;fill-opacity:1;stroke-width:2.56559849px"
           id="path936" />
        <path
           d="m 791.40589,508.00449 q 0.43162,0.49328 5.24108,6.53593 1.23319,1.60315 0.92489,3.57626 -0.3083,1.91145 -1.91145,3.02133 -1.66481,1.17153 -3.69958,0.86323 -1.97311,-0.30829 -3.26796,-1.91145 -1.29486,-1.60315 -4.87112,-5.91933 -1.29485,-1.54149 -1.17153,-3.57626 0.18498,-2.03477 1.72647,-3.32962 1.60315,-1.29486 3.63792,-1.04822 2.09643,0.18498 3.39128,1.78813 z"
           style="font-style:normal;font-variant:normal;font-weight:900;font-stretch:normal;font-size:61.65969086px;line-height:125%;font-family:'Rounded-X M+ 1c';-inkscape-font-specification:'Rounded-X M+ 1c, Heavy';text-align:start;writing-mode:lr-tb;text-anchor:start;fill:#5d9a1f;fill-opacity:1;stroke-width:2.56559849px"
           id="path938" />
        <path
           d="m 863.73275,484.26551 q 0.0617,-0.24664 -0.12332,-0.36995 -0.18498,-0.12332 -0.43162,-0.0617 -5.30273,1.78813 -8.20074,5.98099 -2.898,4.19285 -2.898,10.05053 0,3.5146 1.35651,6.7209 1.35651,3.14465 2.34307,3.14465 0.98655,0 2.15809,-2.28141 1.23319,-2.34307 2.77468,-8.32406 1.60316,-6.04265 3.02133,-14.85999 z m 7.46082,-12.14696 q 10.91377,0 18.06629,6.96755 7.21419,6.90588 7.21419,17.69633 0,9.55725 -4.25452,15.9082 -4.19286,6.28929 -11.53037,8.44738 -2.09643,0.6166 -3.94622,-0.67826 -1.84979,-1.29485 -2.40472,-3.5146 l -0.12332,-0.24664 q -0.49328,-1.97311 0.61659,-3.8229 1.17154,-1.84979 3.20631,-2.77469 7.3375,-3.39128 7.3375,-13.31849 0,-4.80946 -2.52805,-8.38572 -2.46638,-3.57626 -6.65924,-4.99443 -0.67826,-0.24664 -0.80158,0.49328 -1.66481,11.09874 -3.69958,18.4979 -2.03477,7.39917 -4.56282,11.40705 -2.52804,3.94622 -5.17941,5.48771 -2.65137,1.54149 -6.16597,1.54149 -5.48771,0 -10.17385,-6.10431 -4.62448,-6.16597 -4.62448,-14.85998 0,-12.33194 8.32406,-20.0394 8.32406,-7.70747 21.88919,-7.70747 z"
           style="font-style:normal;font-variant:normal;font-weight:900;font-stretch:normal;font-size:61.65969086px;line-height:125%;font-family:'Rounded-X M+ 1c';-inkscape-font-specification:'Rounded-X M+ 1c, Heavy';text-align:start;writing-mode:lr-tb;text-anchor:start;fill:#5d9a1f;fill-opacity:1;stroke-width:2.56559849px"
           id="path940" />
        <path
           d="m 956.34558,469.77549 q 1.35652,2.46638 2.03477,3.76124 0.67826,1.29485 0.18498,2.71302 -0.49328,1.35652 -1.84979,2.03477 -1.35651,0.67826 -2.77469,0.24664 -1.41817,-0.49328 -2.09643,-1.84979 -0.61659,-1.23319 -1.97311,-3.69958 -0.67825,-1.29485 -0.30829,-2.71303 0.43161,-1.47983 1.78813,-2.09643 1.35651,-0.67825 2.77468,-0.18497 1.47984,0.43161 2.21975,1.78813 z m -0.43162,20.65599 q 1.66482,1.41818 1.97311,3.57626 0.3083,2.09643 -0.98655,3.88457 -1.23319,1.72647 -3.39128,1.97311 -2.09643,0.24663 -3.69959,-1.10988 -1.72647,-1.47983 -2.52804,-2.21975 -0.0617,-0.0617 -0.12332,0 v 0.12332 q 1.72647,4.93278 1.72647,9.98887 0,7.21419 -6.04265,11.96198 -5.98099,4.68614 -16.15484,4.68614 -9.74223,0 -15.53824,-5.24108 -5.73435,-5.30273 -5.73435,-14.49002 0,-4.80946 2.71302,-10.29717 2.71303,-5.48771 7.39917,-9.86555 0.0617,-0.0617 0.0617,-0.12332 0,-0.0617 -0.0617,-0.0617 h -6.10431 q -2.03477,0 -3.51461,-1.41817 -1.41817,-1.47984 -1.41817,-3.51461 0,-2.03477 1.41817,-3.45294 1.47984,-1.47983 3.51461,-1.47983 h 13.25683 q 2.15809,0 3.69958,1.54149 1.54149,1.54149 1.54149,3.69958 0,4.4395 -3.94622,8.69402 -3.14464,3.32962 -4.99443,7.58414 -1.84979,4.19286 -1.84979,8.07742 0,5.05609 2.58971,7.76912 2.5897,2.71303 6.96754,2.71303 5.17941,0 7.9541,-2.71303 2.83635,-2.71303 2.83635,-7.76912 0,-4.87112 -0.43162,-7.52248 -0.43162,-2.71303 -2.21975,-7.27585 -0.86324,-2.21974 -0.3083,-4.50115 0.55494,-2.28141 2.34307,-3.8229 1.91145,-1.66482 4.56282,-1.2332 0.18498,0.0617 0.3083,-0.12332 0.12331,-0.18498 0,-0.36996 -0.24664,-0.49327 -0.80158,-1.47983 -0.55494,-1.04821 -0.80158,-1.54149 -0.67825,-1.29485 -0.24664,-2.65137 0.43162,-1.41817 1.72648,-2.09643 1.35651,-0.67825 2.77468,-0.24664 1.41817,0.43162 2.09643,1.78814 0.3083,0.61659 0.9249,1.84979 0.67825,1.17153 0.98655,1.78813 0.67826,1.29485 0.18498,2.71302 -0.43162,1.41818 -1.72647,2.03477 -0.3083,0.18498 -1.17153,0.3083 -0.18498,0 -0.24664,0.18498 -0.0617,0.18498 0.0617,0.3083 5.05609,4.99443 10.42048,9.37227 z"
           style="font-style:normal;font-variant:normal;font-weight:900;font-stretch:normal;font-size:61.65969086px;line-height:125%;font-family:'Rounded-X M+ 1c';-inkscape-font-specification:'Rounded-X M+ 1c, Heavy';text-align:start;writing-mode:lr-tb;text-anchor:start;fill:#5d9a1f;fill-opacity:1;stroke-width:2.56559849px"
           id="path942" />
        <path
           d="m 987.05209,484.26551 q 0.0616,-0.24664 -0.12332,-0.36995 -0.18498,-0.12332 -0.43162,-0.0617 -5.30274,1.78813 -8.20074,5.98099 -2.89801,4.19285 -2.89801,10.05053 0,3.5146 1.35652,6.7209 1.35651,3.14465 2.34307,3.14465 0.98655,0 2.15808,-2.28141 1.2332,-2.34307 2.77469,-8.32406 1.60315,-6.04265 3.02133,-14.85999 z m 7.46082,-12.14696 q 10.91379,0 18.06629,6.96755 7.2142,6.90588 7.2142,17.69633 0,9.55725 -4.2545,15.9082 -4.1929,6.28929 -11.5304,8.44738 -2.0964,0.6166 -3.9462,-0.67826 -1.84981,-1.29485 -2.40475,-3.5146 l -0.12332,-0.24664 q -0.49327,-1.97311 0.6166,-3.8229 1.17153,-1.84979 3.20627,-2.77469 7.3375,-3.39128 7.3375,-13.31849 0,-4.80946 -2.528,-8.38572 -2.4664,-3.57626 -6.65926,-4.99443 -0.67825,-0.24664 -0.80157,0.49328 -1.66481,11.09874 -3.69958,18.4979 -2.03477,7.39917 -4.56282,11.40705 -2.52805,3.94622 -5.17942,5.48771 -2.65136,1.54149 -6.16596,1.54149 -5.48772,0 -10.17385,-6.10431 -4.62448,-6.16597 -4.62448,-14.85998 0,-12.33194 8.32406,-20.0394 8.32406,-7.70747 21.88919,-7.70747 z"
           style="font-style:normal;font-variant:normal;font-weight:900;font-stretch:normal;font-size:61.65969086px;line-height:125%;font-family:'Rounded-X M+ 1c';-inkscape-font-specification:'Rounded-X M+ 1c, Heavy';text-align:start;writing-mode:lr-tb;text-anchor:start;fill:#5d9a1f;fill-opacity:1;stroke-width:2.56559849px"
           id="path944" />
        <path
           d="m 1079.665,469.77549 q 1.3565,2.46638 2.0347,3.76124 0.6783,1.29485 0.185,2.71302 -0.4932,1.35652 -1.8498,2.03477 -1.3565,0.67826 -2.7746,0.24664 -1.4182,-0.49328 -2.0965,-1.84979 -0.6166,-1.23319 -1.9731,-3.69958 -0.6782,-1.29485 -0.3083,-2.71303 0.4316,-1.47983 1.7881,-2.09643 1.3566,-0.67825 2.7747,-0.18497 1.4799,0.43161 2.2198,1.78813 z m -0.4316,20.65599 q 1.6648,1.41818 1.9731,3.57626 0.3083,2.09643 -0.9866,3.88457 -1.2332,1.72647 -3.3913,1.97311 -2.0964,0.24663 -3.6995,-1.10988 -1.7265,-1.47983 -2.5281,-2.21975 -0.062,-0.0617 -0.1233,0 v 0.12332 q 1.7265,4.93278 1.7265,9.98887 0,7.21419 -6.0427,11.96198 -5.981,4.68614 -16.1548,4.68614 -9.7423,0 -15.5383,-5.24108 -5.7343,-5.30273 -5.7343,-14.49002 0,-4.80946 2.713,-10.29717 2.713,-5.48771 7.3992,-9.86555 0.062,-0.0617 0.062,-0.12332 0,-0.0617 -0.062,-0.0617 h -6.1043 q -2.0348,0 -3.5146,-1.41817 -1.4182,-1.47984 -1.4182,-3.51461 0,-2.03477 1.4182,-3.45294 1.4798,-1.47983 3.5146,-1.47983 h 13.2568 q 2.1581,0 3.6996,1.54149 1.5415,1.54149 1.5415,3.69958 0,4.4395 -3.9463,8.69402 -3.1446,3.32962 -4.9944,7.58414 -1.8498,4.19286 -1.8498,8.07742 0,5.05609 2.5897,7.76912 2.5897,2.71303 6.9676,2.71303 5.1794,0 7.9541,-2.71303 2.8363,-2.71303 2.8363,-7.76912 0,-4.87112 -0.4316,-7.52248 -0.4316,-2.71303 -2.2198,-7.27585 -0.8632,-2.21974 -0.3083,-4.50115 0.555,-2.28141 2.3431,-3.8229 1.9115,-1.66482 4.5628,-1.2332 0.185,0.0617 0.3083,-0.12332 0.1234,-0.18498 0,-0.36996 -0.2466,-0.49327 -0.8015,-1.47983 -0.555,-1.04821 -0.8016,-1.54149 -0.6783,-1.29485 -0.2467,-2.65137 0.4317,-1.41817 1.7265,-2.09643 1.3565,-0.67825 2.7747,-0.24664 1.4182,0.43162 2.0964,1.78814 0.3083,0.61659 0.9249,1.84979 0.6783,1.17153 0.9866,1.78813 0.6782,1.29485 0.185,2.71302 -0.4317,1.41818 -1.7265,2.03477 -0.3083,0.18498 -1.1715,0.3083 -0.185,0 -0.2467,0.18498 -0.062,0.18498 0.062,0.3083 5.0561,4.99443 10.4205,9.37227 z"
           style="font-style:normal;font-variant:normal;font-weight:900;font-stretch:normal;font-size:61.65969086px;line-height:125%;font-family:'Rounded-X M+ 1c';-inkscape-font-specification:'Rounded-X M+ 1c, Heavy';text-align:start;writing-mode:lr-tb;text-anchor:start;fill:#5d9a1f;fill-opacity:1;stroke-width:2.56559849px"
           id="path946" />
        <path
           d="m 1120.9153,509.42267 v -0.24664 q 0,-0.73992 -0.6783,-0.86324 -0.6166,-0.12332 -1.7881,-0.12332 -4.3162,0 -4.3162,2.46639 0,1.29485 0.8016,1.91145 0.8632,0.55494 2.898,0.55494 3.083,0 3.083,-3.69958 z m 11.777,-13.87343 q -0.6783,0 -0.6783,0.67825 v 6.22763 q 0,0.73992 0.555,1.10988 3.0213,2.28141 7.0908,6.47426 1.4799,1.5415 1.4182,3.63793 -0.062,2.09643 -1.5415,3.57626 -1.4798,1.47983 -3.5146,1.41817 -2.0348,-0.0617 -3.4529,-1.54149 l -1.0482,-1.04822 q -0.4933,-0.49327 -0.8016,0.18498 -1.4799,3.20631 -4.5012,4.93278 -3.0213,1.78813 -7.1525,1.78813 -15.4149,0 -15.4149,-12.33194 0,-12.02364 15.4149,-12.02364 h 1.1715 q 0.6783,0 0.6783,-0.6166 v -1.78813 q 0,-0.67825 -0.6783,-0.67825 h -9.3106 q -1.9731,0 -3.3913,-1.41818 -1.4181,-1.41817 -1.4181,-3.39128 0,-1.97311 1.4181,-3.32962 1.4182,-1.41818 3.3913,-1.41818 h 9.3106 q 0.6783,0 0.6783,-0.67825 v -2.34307 q 0,-0.67826 -0.6783,-0.67826 h -9.1873 q -2.0347,0 -3.5146,-1.41817 -1.4181,-1.47983 -1.4181,-3.5146 0,-2.03477 1.4181,-3.45294 1.4799,-1.47984 3.5146,-1.47984 h 25.8971 q 2.0348,0 3.453,1.47984 1.4798,1.41817 1.4798,3.45294 0,2.03477 -1.4798,3.5146 -1.4182,1.41817 -3.453,1.41817 h -4.2545 q -0.6783,0 -0.6783,0.67826 v 2.34307 q 0,0.67825 0.6783,0.67825 h 4.3778 q 1.9731,0 3.3913,1.41818 1.4182,1.35651 1.4182,3.32962 0,1.97311 -1.4182,3.39128 -1.4182,1.41818 -3.3913,1.41818 z m -35.0844,-24.04728 q 2.0965,0.24664 3.268,1.97311 1.2332,1.66481 0.8632,3.69958 -1.7881,9.43393 -1.7881,19.60778 0,10.17385 1.7881,19.60778 0.37,2.03477 -0.8632,3.69958 -1.1715,1.72648 -3.268,1.97311 h -0.4933 q -2.2197,0.24664 -4.0695,-1.04821 -1.8498,-1.23319 -2.2814,-3.45294 -1.9114,-9.61892 -1.9114,-20.77932 0,-11.1604 1.9114,-20.77932 0.4316,-2.21974 2.2814,-3.45294 1.8498,-1.29485 4.0695,-1.04821 z"
           style="font-style:normal;font-variant:normal;font-weight:900;font-stretch:normal;font-size:61.65969086px;line-height:125%;font-family:'Rounded-X M+ 1c';-inkscape-font-specification:'Rounded-X M+ 1c, Heavy';text-align:start;writing-mode:lr-tb;text-anchor:start;fill:#5d9a1f;fill-opacity:1;stroke-width:2.56559849px"
           id="path948" />
        <path
           d="m 1190.1592,476.00311 q 2.2197,-0.61659 4.2545,0.36996 2.0347,0.9249 2.8363,3.02133 5.4261,14.12007 6.166,31.26146 0.062,2.15809 -1.4798,3.69958 -1.4799,1.54149 -3.638,1.54149 h -1.2332 q -2.158,0 -3.6995,-1.54149 -1.5415,-1.54149 -1.6648,-3.76124 -0.74,-14.42837 -5.4261,-27.9935 -0.6783,-1.97311 0.2466,-3.88456 0.9249,-1.91145 2.9597,-2.46639 z m -9.434,25.0955 q 2.0965,0.80158 3.0214,2.77469 0.9248,1.91145 0,3.88456 -3.268,7.09086 -7.8308,11.03708 -4.5012,3.88456 -8.7557,3.88456 -5.6727,0 -10.5438,-7.3375 -4.8711,-7.33751 -4.8711,-17.94297 0,-8.44738 1.9731,-17.1414 0.4933,-2.21975 2.4047,-3.45294 1.9731,-1.29485 4.2545,-1.04821 l 0.9249,0.12332 q 2.0348,0.24663 3.2063,1.97311 1.2332,1.66481 0.8016,3.69958 -1.8498,8.94065 -1.8498,15.84654 0,2.898 0.4316,5.54937 0.4933,2.58971 1.2332,4.31618 0.7399,1.66481 1.4799,2.71302 0.8015,0.98656 1.4798,0.98656 0.9249,0 2.4047,-1.72647 1.4799,-1.78813 3.1447,-5.11776 0.9865,-1.97311 3.0213,-2.898 2.0964,-0.9249 4.0695,-0.12332 z"
           style="font-style:normal;font-variant:normal;font-weight:900;font-stretch:normal;font-size:61.65969086px;line-height:125%;font-family:'Rounded-X M+ 1c';-inkscape-font-specification:'Rounded-X M+ 1c, Heavy';text-align:start;writing-mode:lr-tb;text-anchor:start;fill:#5d9a1f;fill-opacity:1;stroke-width:2.56559849px"
           id="path950" />
        <path
           d="m 1252.9904,513.30723 q 1.7264,1.29485 1.9731,3.45294 0.2466,2.15809 -1.1716,3.76124 l -0.6166,0.6166 q -1.4181,1.66481 -3.6379,1.91145 -2.1581,0.24664 -3.8845,-1.04822 -7.5225,-5.61103 -17.5731,-12.51691 -6.0426,-4.19286 -8.324,-6.10431 -2.2814,-1.97311 -3.083,-3.5146 -0.8016,-1.60316 -0.8016,-4.31618 0,-4.06954 1.9115,-6.16597 1.9731,-2.09643 10.1738,-7.27585 7.1526,-4.50115 16.2782,-10.72878 1.7881,-1.2332 3.9462,-0.86324 2.1581,0.36996 3.4529,2.15809 l 0.6166,0.73992 q 1.2949,1.78813 0.9249,3.88456 -0.3699,2.09643 -2.158,3.32962 -7.5842,5.24108 -15.6616,10.11219 -3.6996,2.28141 -4.8095,3.2063 -1.1098,0.86324 -1.1098,1.60316 0,0.73991 0.9249,1.60315 0.9865,0.80157 4.6244,3.26796 7.9541,5.24108 18.0047,12.88688 z"
           style="font-style:normal;font-variant:normal;font-weight:900;font-stretch:normal;font-size:61.65969086px;line-height:125%;font-family:'Rounded-X M+ 1c';-inkscape-font-specification:'Rounded-X M+ 1c, Heavy';text-align:start;writing-mode:lr-tb;text-anchor:start;fill:#5d9a1f;fill-opacity:1;stroke-width:2.56559849px"
           id="path952" />
      </g>
    </g>
  </g>
</svg>
